<svg xmlns="http://www.w3.org/2000/svg" fill="none" viewBox="0 0 1088 1088" height="1088" width="1088">
<rect stroke-width="10" stroke="#FAF6EF" fill="black" height="1078" width="1078" y="5" x="5"></rect>
<mask fill="white" id="path-2-inside-1_396_80">
<path d="M106.382 273V142.091H154.322C163.612 142.091 171.304 143.625 177.398 146.693C183.491 149.719 188.051 153.831 191.077 159.03C194.102 164.186 195.615 170.003 195.615 176.48C195.615 181.935 194.614 186.537 192.611 190.287C190.608 193.994 187.923 196.977 184.557 199.236C181.233 201.452 177.568 203.071 173.562 204.094V205.372C177.909 205.585 182.149 206.991 186.283 209.591C190.459 212.148 193.911 215.791 196.638 220.521C199.365 225.251 200.729 231.004 200.729 237.78C200.729 244.47 199.152 250.479 195.999 255.805C192.888 261.089 188.072 265.287 181.553 268.398C175.033 271.466 166.702 273 156.56 273H106.382ZM126.134 256.061H154.642C164.102 256.061 170.878 254.229 174.969 250.564C179.06 246.899 181.105 242.318 181.105 236.821C181.105 232.687 180.061 228.895 177.973 225.443C175.885 221.991 172.902 219.243 169.024 217.197C165.189 215.152 160.629 214.129 155.345 214.129H126.134V256.061ZM126.134 198.724H152.597C157.028 198.724 161.013 197.872 164.55 196.168C168.129 194.463 170.963 192.077 173.051 189.009C175.182 185.898 176.247 182.233 176.247 178.014C176.247 172.602 174.351 168.064 170.558 164.399C166.766 160.734 160.949 158.902 153.108 158.902H126.134V198.724ZM264.937 274.982C255.263 274.982 246.933 272.915 239.944 268.781C232.998 264.605 227.629 258.746 223.836 251.203C220.086 243.618 218.211 234.733 218.211 224.548C218.211 214.491 220.086 205.628 223.836 197.957C227.629 190.287 232.913 184.3 239.688 179.996C246.506 175.692 254.475 173.54 263.594 173.54C269.134 173.54 274.504 174.456 279.702 176.288C284.901 178.121 289.567 180.997 293.701 184.918C297.835 188.838 301.094 193.93 303.481 200.195C305.867 206.416 307.06 213.98 307.06 222.886V229.662H229.013V215.344H288.332C288.332 210.315 287.309 205.862 285.263 201.984C283.218 198.064 280.342 194.974 276.634 192.716C272.969 190.457 268.665 189.328 263.722 189.328C258.353 189.328 253.665 190.649 249.66 193.291C245.697 195.891 242.629 199.3 240.455 203.518C238.325 207.695 237.259 212.233 237.259 217.134V228.32C237.259 234.882 238.41 240.464 240.711 245.067C243.055 249.669 246.315 253.185 250.491 255.614C254.667 258 259.546 259.193 265.129 259.193C268.751 259.193 272.053 258.682 275.036 257.659C278.019 256.594 280.597 255.017 282.771 252.929C284.944 250.841 286.606 248.263 287.756 245.195L305.846 248.455C304.397 253.781 301.798 258.447 298.048 262.453C294.34 266.416 289.674 269.506 284.049 271.722C278.467 273.895 272.096 274.982 264.937 274.982ZM369.623 274.982C360.12 274.982 351.938 272.83 345.077 268.526C338.259 264.179 333.017 258.192 329.353 250.564C325.688 242.936 323.855 234.2 323.855 224.357C323.855 214.385 325.73 205.585 329.48 197.957C333.23 190.287 338.515 184.3 345.333 179.996C352.151 175.692 360.184 173.54 369.431 173.54C376.888 173.54 383.536 174.925 389.374 177.695C395.212 180.422 399.921 184.257 403.5 189.2C407.123 194.143 409.275 199.918 409.956 206.523H391.355C390.333 201.92 387.989 197.957 384.324 194.634C380.702 191.31 375.844 189.648 369.75 189.648C364.424 189.648 359.757 191.054 355.752 193.866C351.789 196.636 348.699 200.599 346.483 205.756C344.267 210.869 343.159 216.92 343.159 223.909C343.159 231.068 344.246 237.247 346.419 242.446C348.593 247.645 351.661 251.672 355.624 254.527C359.63 257.382 364.338 258.81 369.75 258.81C373.373 258.81 376.654 258.149 379.594 256.828C382.577 255.464 385.07 253.526 387.073 251.011C389.118 248.497 390.546 245.472 391.355 241.935H409.956C409.275 248.284 407.208 253.952 403.756 258.938C400.304 263.923 395.681 267.844 389.885 270.699C384.132 273.554 377.378 274.982 369.623 274.982ZM471.751 274.982C462.547 274.982 454.514 272.872 447.653 268.653C440.793 264.435 435.466 258.533 431.673 250.947C427.881 243.362 425.984 234.499 425.984 224.357C425.984 214.172 427.881 205.266 431.673 197.638C435.466 190.01 440.793 184.087 447.653 179.868C454.514 175.649 462.547 173.54 471.751 173.54C480.956 173.54 488.989 175.649 495.849 179.868C502.71 184.087 508.037 190.01 511.83 197.638C515.622 205.266 517.518 214.172 517.518 224.357C517.518 234.499 515.622 243.362 511.83 250.947C508.037 258.533 502.71 264.435 495.849 268.653C488.989 272.872 480.956 274.982 471.751 274.982ZM471.815 258.938C477.781 258.938 482.724 257.361 486.645 254.207C490.565 251.054 493.463 246.857 495.338 241.615C497.256 236.374 498.214 230.599 498.214 224.293C498.214 218.028 497.256 212.276 495.338 207.034C493.463 201.75 490.565 197.51 486.645 194.314C482.724 191.118 477.781 189.52 471.815 189.52C465.807 189.52 460.821 191.118 456.858 194.314C452.938 197.51 450.018 201.75 448.101 207.034C446.226 212.276 445.288 218.028 445.288 224.293C445.288 230.599 446.226 236.374 448.101 241.615C450.018 246.857 452.938 251.054 456.858 254.207C460.821 257.361 465.807 258.938 471.815 258.938ZM538.852 273V174.818H557.197V190.798H558.412C560.457 185.386 563.802 181.168 568.447 178.142C573.092 175.074 578.653 173.54 585.13 173.54C591.693 173.54 597.19 175.074 601.622 178.142C606.096 181.21 609.399 185.429 611.529 190.798H612.552C614.896 185.557 618.625 181.381 623.738 178.27C628.852 175.116 634.946 173.54 642.02 173.54C650.926 173.54 658.191 176.331 663.816 181.913C669.484 187.496 672.318 195.912 672.318 207.162V273H653.206V208.952C653.206 202.304 651.395 197.489 647.772 194.506C644.15 191.523 639.825 190.031 634.797 190.031C628.575 190.031 623.738 191.949 620.287 195.784C616.835 199.577 615.109 204.456 615.109 210.422V273H596.061V207.737C596.061 202.411 594.399 198.128 591.075 194.889C587.751 191.651 583.426 190.031 578.099 190.031C574.477 190.031 571.132 190.99 568.064 192.908C565.038 194.783 562.588 197.403 560.713 200.77C558.88 204.136 557.964 208.036 557.964 212.467V273H538.852ZM740.249 274.982C730.576 274.982 722.245 272.915 715.256 268.781C708.31 264.605 702.941 258.746 699.148 251.203C695.398 243.618 693.523 234.733 693.523 224.548C693.523 214.491 695.398 205.628 699.148 197.957C702.941 190.287 708.225 184.3 715.001 179.996C721.819 175.692 729.788 173.54 738.907 173.54C744.447 173.54 749.816 174.456 755.015 176.288C760.214 178.121 764.88 180.997 769.013 184.918C773.147 188.838 776.407 193.93 778.793 200.195C781.18 206.416 782.373 213.98 782.373 222.886V229.662H704.326V215.344H763.644C763.644 210.315 762.621 205.862 760.576 201.984C758.531 198.064 755.654 194.974 751.947 192.716C748.282 190.457 743.978 189.328 739.035 189.328C733.665 189.328 728.978 190.649 724.972 193.291C721.009 195.891 717.941 199.3 715.768 203.518C713.637 207.695 712.572 212.233 712.572 217.134V228.32C712.572 234.882 713.722 240.464 716.023 245.067C718.367 249.669 721.627 253.185 725.803 255.614C729.979 258 734.859 259.193 740.441 259.193C744.063 259.193 747.366 258.682 750.349 257.659C753.332 256.594 755.91 255.017 758.083 252.929C760.256 250.841 761.918 248.263 763.069 245.195L781.158 248.455C779.71 253.781 777.11 258.447 773.36 262.453C769.653 266.416 764.987 269.506 759.362 271.722C753.779 273.895 747.408 274.982 740.249 274.982ZM133.42 487.173C127.199 487.173 121.574 486.023 116.545 483.722C111.517 481.378 107.533 477.99 104.592 473.558C101.695 469.126 100.246 463.693 100.246 457.259C100.246 451.719 101.311 447.159 103.442 443.58C105.572 440 108.449 437.166 112.071 435.078C115.693 432.99 119.741 431.413 124.216 430.348C128.69 429.283 133.25 428.473 137.895 427.919C143.776 427.237 148.548 426.683 152.213 426.257C155.878 425.788 158.541 425.043 160.203 424.02C161.865 422.997 162.696 421.335 162.696 419.034V418.587C162.696 413.004 161.119 408.679 157.966 405.611C154.855 402.543 150.21 401.009 144.031 401.009C137.597 401.009 132.526 402.436 128.818 405.291C125.153 408.104 122.618 411.236 121.212 414.688L103.25 410.597C105.381 404.631 108.491 399.815 112.582 396.151C116.716 392.443 121.467 389.759 126.837 388.097C132.206 386.392 137.852 385.54 143.776 385.54C147.696 385.54 151.851 386.009 156.24 386.946C160.672 387.841 164.805 389.503 168.641 391.932C172.518 394.361 175.693 397.834 178.165 402.351C180.636 406.825 181.872 412.642 181.872 419.801V485H163.207V471.577H162.44C161.205 474.048 159.351 476.477 156.879 478.864C154.408 481.25 151.233 483.232 147.355 484.808C143.477 486.385 138.832 487.173 133.42 487.173ZM137.575 471.832C142.859 471.832 147.376 470.788 151.126 468.7C154.919 466.612 157.795 463.885 159.756 460.518C161.759 457.109 162.76 453.466 162.76 449.588V436.932C162.078 437.614 160.757 438.253 158.797 438.849C156.879 439.403 154.685 439.893 152.213 440.32C149.741 440.703 147.334 441.065 144.99 441.406C142.646 441.705 140.686 441.96 139.109 442.173C135.402 442.642 132.014 443.43 128.946 444.538C125.92 445.646 123.491 447.244 121.659 449.332C119.869 451.378 118.974 454.105 118.974 457.514C118.974 462.244 120.722 465.824 124.216 468.253C127.71 470.639 132.163 471.832 137.575 471.832ZM254.965 485V386.818H273.31V402.798H274.525C276.57 397.386 279.915 393.168 284.56 390.142C289.205 387.074 294.766 385.54 301.244 385.54C307.806 385.54 313.303 387.074 317.735 390.142C322.21 393.21 325.512 397.429 327.643 402.798H328.665C331.009 397.557 334.738 393.381 339.852 390.27C344.965 387.116 351.059 385.54 358.133 385.54C367.039 385.54 374.305 388.331 379.93 393.913C385.597 399.496 388.431 407.912 388.431 419.162V485H369.319V420.952C369.319 414.304 367.508 409.489 363.886 406.506C360.263 403.523 355.938 402.031 350.91 402.031C344.688 402.031 339.852 403.949 336.4 407.784C332.948 411.577 331.222 416.456 331.222 422.422V485H312.174V419.737C312.174 414.411 310.512 410.128 307.188 406.889C303.864 403.651 299.539 402.031 294.212 402.031C290.59 402.031 287.245 402.99 284.177 404.908C281.151 406.783 278.701 409.403 276.826 412.77C274.994 416.136 274.077 420.036 274.077 424.467V485H254.965ZM456.363 486.982C446.689 486.982 438.358 484.915 431.37 480.781C424.424 476.605 419.054 470.746 415.262 463.203C411.512 455.618 409.637 446.733 409.637 436.548C409.637 426.491 411.512 417.628 415.262 409.957C419.054 402.287 424.338 396.3 431.114 391.996C437.932 387.692 445.901 385.54 455.02 385.54C460.56 385.54 465.929 386.456 471.128 388.288C476.327 390.121 480.993 392.997 485.127 396.918C489.26 400.838 492.52 405.93 494.907 412.195C497.293 418.416 498.486 425.98 498.486 434.886V441.662H420.439V427.344H479.757C479.757 422.315 478.735 417.862 476.689 413.984C474.644 410.064 471.767 406.974 468.06 404.716C464.395 402.457 460.091 401.328 455.148 401.328C449.779 401.328 445.091 402.649 441.086 405.291C437.123 407.891 434.054 411.3 431.881 415.518C429.75 419.695 428.685 424.233 428.685 429.134V440.32C428.685 446.882 429.836 452.464 432.137 457.067C434.48 461.669 437.74 465.185 441.917 467.614C446.093 470 450.972 471.193 456.554 471.193C460.176 471.193 463.479 470.682 466.462 469.659C469.445 468.594 472.023 467.017 474.196 464.929C476.37 462.841 478.032 460.263 479.182 457.195L497.272 460.455C495.823 465.781 493.223 470.447 489.473 474.453C485.766 478.416 481.1 481.506 475.475 483.722C469.892 485.895 463.522 486.982 456.363 486.982ZM519.692 485V386.818H538.037V402.798H539.251C541.297 397.386 544.642 393.168 549.287 390.142C553.932 387.074 559.493 385.54 565.97 385.54C572.533 385.54 578.03 387.074 582.462 390.142C586.936 393.21 590.239 397.429 592.369 402.798H593.392C595.736 397.557 599.464 393.381 604.578 390.27C609.692 387.116 615.786 385.54 622.859 385.54C631.766 385.54 639.031 388.331 644.656 393.913C650.324 399.496 653.158 407.912 653.158 419.162V485H634.045V420.952C634.045 414.304 632.234 409.489 628.612 406.506C624.99 403.523 620.665 402.031 615.636 402.031C609.415 402.031 604.578 403.949 601.126 407.784C597.675 411.577 595.949 416.456 595.949 422.422V485H576.901V419.737C576.901 414.411 575.239 410.128 571.915 406.889C568.591 403.651 564.266 402.031 558.939 402.031C555.317 402.031 551.972 402.99 548.903 404.908C545.878 406.783 543.428 409.403 541.553 412.77C539.72 416.136 538.804 420.036 538.804 424.467V485H519.692ZM680.308 485V354.091H699.42V402.734H700.571C701.679 400.689 703.277 398.324 705.365 395.639C707.453 392.955 710.35 390.611 714.058 388.608C717.765 386.562 722.666 385.54 728.76 385.54C736.686 385.54 743.76 387.543 749.981 391.548C756.203 395.554 761.082 401.328 764.619 408.871C768.199 416.413 769.988 425.49 769.988 436.101C769.988 446.712 768.22 455.81 764.683 463.395C761.146 470.937 756.288 476.754 750.109 480.845C743.93 484.893 736.877 486.918 728.951 486.918C722.985 486.918 718.106 485.916 714.314 483.913C710.564 481.911 707.623 479.567 705.493 476.882C703.362 474.197 701.721 471.811 700.571 469.723H698.973V485H680.308ZM699.037 435.909C699.037 442.812 700.038 448.864 702.041 454.062C704.044 459.261 706.941 463.331 710.734 466.271C714.527 469.169 719.172 470.618 724.669 470.618C730.379 470.618 735.152 469.105 738.987 466.08C742.822 463.011 745.72 458.857 747.68 453.615C749.683 448.374 750.684 442.472 750.684 435.909C750.684 429.432 749.704 423.615 747.744 418.459C745.826 413.303 742.929 409.233 739.051 406.25C735.216 403.267 730.422 401.776 724.669 401.776C719.129 401.776 714.441 403.203 710.606 406.058C706.814 408.913 703.937 412.898 701.977 418.011C700.017 423.125 699.037 429.091 699.037 435.909ZM833.765 486.982C824.092 486.982 815.761 484.915 808.772 480.781C801.826 476.605 796.457 470.746 792.664 463.203C788.914 455.618 787.039 446.733 787.039 436.548C787.039 426.491 788.914 417.628 792.664 409.957C796.457 402.287 801.741 396.3 808.516 391.996C815.335 387.692 823.303 385.54 832.423 385.54C837.962 385.54 843.332 386.456 848.531 388.288C853.729 390.121 858.396 392.997 862.529 396.918C866.663 400.838 869.923 405.93 872.309 412.195C874.695 418.416 875.889 425.98 875.889 434.886V441.662H797.842V427.344H857.16C857.16 422.315 856.137 417.862 854.092 413.984C852.046 410.064 849.17 406.974 845.462 404.716C841.798 402.457 837.494 401.328 832.55 401.328C827.181 401.328 822.494 402.649 818.488 405.291C814.525 407.891 811.457 411.3 809.283 415.518C807.153 419.695 806.087 424.233 806.087 429.134V440.32C806.087 446.882 807.238 452.464 809.539 457.067C811.883 461.669 815.143 465.185 819.319 467.614C823.495 470 828.374 471.193 833.957 471.193C837.579 471.193 840.881 470.682 843.864 469.659C846.847 468.594 849.425 467.017 851.599 464.929C853.772 462.841 855.434 460.263 856.585 457.195L874.674 460.455C873.225 465.781 870.626 470.447 866.876 474.453C863.168 478.416 858.502 481.506 852.877 483.722C847.295 485.895 840.924 486.982 833.765 486.982ZM897.094 485V386.818H915.567V402.415H916.59C918.38 397.131 921.533 392.976 926.05 389.95C930.61 386.882 935.766 385.348 941.519 385.348C942.712 385.348 944.118 385.391 945.738 385.476C947.4 385.561 948.699 385.668 949.637 385.795V404.077C948.87 403.864 947.506 403.629 945.546 403.374C943.586 403.075 941.625 402.926 939.665 402.926C935.148 402.926 931.121 403.885 927.584 405.803C924.09 407.678 921.32 410.298 919.275 413.665C917.229 416.989 916.206 420.781 916.206 425.043V485H897.094ZM967.518 486.214C964.024 486.214 961.02 484.979 958.506 482.507C955.991 479.993 954.734 476.967 954.734 473.43C954.734 469.936 955.991 466.953 958.506 464.482C961.02 461.967 964.024 460.71 967.518 460.71C971.013 460.71 974.017 461.967 976.531 464.482C979.045 466.953 980.303 469.936 980.303 473.43C980.303 475.774 979.706 477.926 978.513 479.886C977.362 481.804 975.828 483.338 973.911 484.489C971.993 485.639 969.862 486.214 967.518 486.214Z"></path>
</mask>
<path fill="#FAF6EF" d="M106.382 273V142.091H154.322C163.612 142.091 171.304 143.625 177.398 146.693C183.491 149.719 188.051 153.831 191.077 159.03C194.102 164.186 195.615 170.003 195.615 176.48C195.615 181.935 194.614 186.537 192.611 190.287C190.608 193.994 187.923 196.977 184.557 199.236C181.233 201.452 177.568 203.071 173.562 204.094V205.372C177.909 205.585 182.149 206.991 186.283 209.591C190.459 212.148 193.911 215.791 196.638 220.521C199.365 225.251 200.729 231.004 200.729 237.78C200.729 244.47 199.152 250.479 195.999 255.805C192.888 261.089 188.072 265.287 181.553 268.398C175.033 271.466 166.702 273 156.56 273H106.382ZM126.134 256.061H154.642C164.102 256.061 170.878 254.229 174.969 250.564C179.06 246.899 181.105 242.318 181.105 236.821C181.105 232.687 180.061 228.895 177.973 225.443C175.885 221.991 172.902 219.243 169.024 217.197C165.189 215.152 160.629 214.129 155.345 214.129H126.134V256.061ZM126.134 198.724H152.597C157.028 198.724 161.013 197.872 164.55 196.168C168.129 194.463 170.963 192.077 173.051 189.009C175.182 185.898 176.247 182.233 176.247 178.014C176.247 172.602 174.351 168.064 170.558 164.399C166.766 160.734 160.949 158.902 153.108 158.902H126.134V198.724ZM264.937 274.982C255.263 274.982 246.933 272.915 239.944 268.781C232.998 264.605 227.629 258.746 223.836 251.203C220.086 243.618 218.211 234.733 218.211 224.548C218.211 214.491 220.086 205.628 223.836 197.957C227.629 190.287 232.913 184.3 239.688 179.996C246.506 175.692 254.475 173.54 263.594 173.54C269.134 173.54 274.504 174.456 279.702 176.288C284.901 178.121 289.567 180.997 293.701 184.918C297.835 188.838 301.094 193.93 303.481 200.195C305.867 206.416 307.06 213.98 307.06 222.886V229.662H229.013V215.344H288.332C288.332 210.315 287.309 205.862 285.263 201.984C283.218 198.064 280.342 194.974 276.634 192.716C272.969 190.457 268.665 189.328 263.722 189.328C258.353 189.328 253.665 190.649 249.66 193.291C245.697 195.891 242.629 199.3 240.455 203.518C238.325 207.695 237.259 212.233 237.259 217.134V228.32C237.259 234.882 238.41 240.464 240.711 245.067C243.055 249.669 246.315 253.185 250.491 255.614C254.667 258 259.546 259.193 265.129 259.193C268.751 259.193 272.053 258.682 275.036 257.659C278.019 256.594 280.597 255.017 282.771 252.929C284.944 250.841 286.606 248.263 287.756 245.195L305.846 248.455C304.397 253.781 301.798 258.447 298.048 262.453C294.34 266.416 289.674 269.506 284.049 271.722C278.467 273.895 272.096 274.982 264.937 274.982ZM369.623 274.982C360.12 274.982 351.938 272.83 345.077 268.526C338.259 264.179 333.017 258.192 329.353 250.564C325.688 242.936 323.855 234.2 323.855 224.357C323.855 214.385 325.73 205.585 329.48 197.957C333.23 190.287 338.515 184.3 345.333 179.996C352.151 175.692 360.184 173.54 369.431 173.54C376.888 173.54 383.536 174.925 389.374 177.695C395.212 180.422 399.921 184.257 403.5 189.2C407.123 194.143 409.275 199.918 409.956 206.523H391.355C390.333 201.92 387.989 197.957 384.324 194.634C380.702 191.31 375.844 189.648 369.75 189.648C364.424 189.648 359.757 191.054 355.752 193.866C351.789 196.636 348.699 200.599 346.483 205.756C344.267 210.869 343.159 216.92 343.159 223.909C343.159 231.068 344.246 237.247 346.419 242.446C348.593 247.645 351.661 251.672 355.624 254.527C359.63 257.382 364.338 258.81 369.75 258.81C373.373 258.81 376.654 258.149 379.594 256.828C382.577 255.464 385.07 253.526 387.073 251.011C389.118 248.497 390.546 245.472 391.355 241.935H409.956C409.275 248.284 407.208 253.952 403.756 258.938C400.304 263.923 395.681 267.844 389.885 270.699C384.132 273.554 377.378 274.982 369.623 274.982ZM471.751 274.982C462.547 274.982 454.514 272.872 447.653 268.653C440.793 264.435 435.466 258.533 431.673 250.947C427.881 243.362 425.984 234.499 425.984 224.357C425.984 214.172 427.881 205.266 431.673 197.638C435.466 190.01 440.793 184.087 447.653 179.868C454.514 175.649 462.547 173.54 471.751 173.54C480.956 173.54 488.989 175.649 495.849 179.868C502.71 184.087 508.037 190.01 511.83 197.638C515.622 205.266 517.518 214.172 517.518 224.357C517.518 234.499 515.622 243.362 511.83 250.947C508.037 258.533 502.71 264.435 495.849 268.653C488.989 272.872 480.956 274.982 471.751 274.982ZM471.815 258.938C477.781 258.938 482.724 257.361 486.645 254.207C490.565 251.054 493.463 246.857 495.338 241.615C497.256 236.374 498.214 230.599 498.214 224.293C498.214 218.028 497.256 212.276 495.338 207.034C493.463 201.75 490.565 197.51 486.645 194.314C482.724 191.118 477.781 189.52 471.815 189.52C465.807 189.52 460.821 191.118 456.858 194.314C452.938 197.51 450.018 201.75 448.101 207.034C446.226 212.276 445.288 218.028 445.288 224.293C445.288 230.599 446.226 236.374 448.101 241.615C450.018 246.857 452.938 251.054 456.858 254.207C460.821 257.361 465.807 258.938 471.815 258.938ZM538.852 273V174.818H557.197V190.798H558.412C560.457 185.386 563.802 181.168 568.447 178.142C573.092 175.074 578.653 173.54 585.13 173.54C591.693 173.54 597.19 175.074 601.622 178.142C606.096 181.21 609.399 185.429 611.529 190.798H612.552C614.896 185.557 618.625 181.381 623.738 178.27C628.852 175.116 634.946 173.54 642.02 173.54C650.926 173.54 658.191 176.331 663.816 181.913C669.484 187.496 672.318 195.912 672.318 207.162V273H653.206V208.952C653.206 202.304 651.395 197.489 647.772 194.506C644.15 191.523 639.825 190.031 634.797 190.031C628.575 190.031 623.738 191.949 620.287 195.784C616.835 199.577 615.109 204.456 615.109 210.422V273H596.061V207.737C596.061 202.411 594.399 198.128 591.075 194.889C587.751 191.651 583.426 190.031 578.099 190.031C574.477 190.031 571.132 190.99 568.064 192.908C565.038 194.783 562.588 197.403 560.713 200.77C558.88 204.136 557.964 208.036 557.964 212.467V273H538.852ZM740.249 274.982C730.576 274.982 722.245 272.915 715.256 268.781C708.31 264.605 702.941 258.746 699.148 251.203C695.398 243.618 693.523 234.733 693.523 224.548C693.523 214.491 695.398 205.628 699.148 197.957C702.941 190.287 708.225 184.3 715.001 179.996C721.819 175.692 729.788 173.54 738.907 173.54C744.447 173.54 749.816 174.456 755.015 176.288C760.214 178.121 764.88 180.997 769.013 184.918C773.147 188.838 776.407 193.93 778.793 200.195C781.18 206.416 782.373 213.98 782.373 222.886V229.662H704.326V215.344H763.644C763.644 210.315 762.621 205.862 760.576 201.984C758.531 198.064 755.654 194.974 751.947 192.716C748.282 190.457 743.978 189.328 739.035 189.328C733.665 189.328 728.978 190.649 724.972 193.291C721.009 195.891 717.941 199.3 715.768 203.518C713.637 207.695 712.572 212.233 712.572 217.134V228.32C712.572 234.882 713.722 240.464 716.023 245.067C718.367 249.669 721.627 253.185 725.803 255.614C729.979 258 734.859 259.193 740.441 259.193C744.063 259.193 747.366 258.682 750.349 257.659C753.332 256.594 755.91 255.017 758.083 252.929C760.256 250.841 761.918 248.263 763.069 245.195L781.158 248.455C779.71 253.781 777.11 258.447 773.36 262.453C769.653 266.416 764.987 269.506 759.362 271.722C753.779 273.895 747.408 274.982 740.249 274.982ZM133.42 487.173C127.199 487.173 121.574 486.023 116.545 483.722C111.517 481.378 107.533 477.99 104.592 473.558C101.695 469.126 100.246 463.693 100.246 457.259C100.246 451.719 101.311 447.159 103.442 443.58C105.572 440 108.449 437.166 112.071 435.078C115.693 432.99 119.741 431.413 124.216 430.348C128.69 429.283 133.25 428.473 137.895 427.919C143.776 427.237 148.548 426.683 152.213 426.257C155.878 425.788 158.541 425.043 160.203 424.02C161.865 422.997 162.696 421.335 162.696 419.034V418.587C162.696 413.004 161.119 408.679 157.966 405.611C154.855 402.543 150.21 401.009 144.031 401.009C137.597 401.009 132.526 402.436 128.818 405.291C125.153 408.104 122.618 411.236 121.212 414.688L103.25 410.597C105.381 404.631 108.491 399.815 112.582 396.151C116.716 392.443 121.467 389.759 126.837 388.097C132.206 386.392 137.852 385.54 143.776 385.54C147.696 385.54 151.851 386.009 156.24 386.946C160.672 387.841 164.805 389.503 168.641 391.932C172.518 394.361 175.693 397.834 178.165 402.351C180.636 406.825 181.872 412.642 181.872 419.801V485H163.207V471.577H162.44C161.205 474.048 159.351 476.477 156.879 478.864C154.408 481.25 151.233 483.232 147.355 484.808C143.477 486.385 138.832 487.173 133.42 487.173ZM137.575 471.832C142.859 471.832 147.376 470.788 151.126 468.7C154.919 466.612 157.795 463.885 159.756 460.518C161.759 457.109 162.76 453.466 162.76 449.588V436.932C162.078 437.614 160.757 438.253 158.797 438.849C156.879 439.403 154.685 439.893 152.213 440.32C149.741 440.703 147.334 441.065 144.99 441.406C142.646 441.705 140.686 441.96 139.109 442.173C135.402 442.642 132.014 443.43 128.946 444.538C125.92 445.646 123.491 447.244 121.659 449.332C119.869 451.378 118.974 454.105 118.974 457.514C118.974 462.244 120.722 465.824 124.216 468.253C127.71 470.639 132.163 471.832 137.575 471.832ZM254.965 485V386.818H273.31V402.798H274.525C276.57 397.386 279.915 393.168 284.56 390.142C289.205 387.074 294.766 385.54 301.244 385.54C307.806 385.54 313.303 387.074 317.735 390.142C322.21 393.21 325.512 397.429 327.643 402.798H328.665C331.009 397.557 334.738 393.381 339.852 390.27C344.965 387.116 351.059 385.54 358.133 385.54C367.039 385.54 374.305 388.331 379.93 393.913C385.597 399.496 388.431 407.912 388.431 419.162V485H369.319V420.952C369.319 414.304 367.508 409.489 363.886 406.506C360.263 403.523 355.938 402.031 350.91 402.031C344.688 402.031 339.852 403.949 336.4 407.784C332.948 411.577 331.222 416.456 331.222 422.422V485H312.174V419.737C312.174 414.411 310.512 410.128 307.188 406.889C303.864 403.651 299.539 402.031 294.212 402.031C290.59 402.031 287.245 402.99 284.177 404.908C281.151 406.783 278.701 409.403 276.826 412.77C274.994 416.136 274.077 420.036 274.077 424.467V485H254.965ZM456.363 486.982C446.689 486.982 438.358 484.915 431.37 480.781C424.424 476.605 419.054 470.746 415.262 463.203C411.512 455.618 409.637 446.733 409.637 436.548C409.637 426.491 411.512 417.628 415.262 409.957C419.054 402.287 424.338 396.3 431.114 391.996C437.932 387.692 445.901 385.54 455.02 385.54C460.56 385.54 465.929 386.456 471.128 388.288C476.327 390.121 480.993 392.997 485.127 396.918C489.26 400.838 492.52 405.93 494.907 412.195C497.293 418.416 498.486 425.98 498.486 434.886V441.662H420.439V427.344H479.757C479.757 422.315 478.735 417.862 476.689 413.984C474.644 410.064 471.767 406.974 468.06 404.716C464.395 402.457 460.091 401.328 455.148 401.328C449.779 401.328 445.091 402.649 441.086 405.291C437.123 407.891 434.054 411.3 431.881 415.518C429.75 419.695 428.685 424.233 428.685 429.134V440.32C428.685 446.882 429.836 452.464 432.137 457.067C434.48 461.669 437.74 465.185 441.917 467.614C446.093 470 450.972 471.193 456.554 471.193C460.176 471.193 463.479 470.682 466.462 469.659C469.445 468.594 472.023 467.017 474.196 464.929C476.37 462.841 478.032 460.263 479.182 457.195L497.272 460.455C495.823 465.781 493.223 470.447 489.473 474.453C485.766 478.416 481.1 481.506 475.475 483.722C469.892 485.895 463.522 486.982 456.363 486.982ZM519.692 485V386.818H538.037V402.798H539.251C541.297 397.386 544.642 393.168 549.287 390.142C553.932 387.074 559.493 385.54 565.97 385.54C572.533 385.54 578.03 387.074 582.462 390.142C586.936 393.21 590.239 397.429 592.369 402.798H593.392C595.736 397.557 599.464 393.381 604.578 390.27C609.692 387.116 615.786 385.54 622.859 385.54C631.766 385.54 639.031 388.331 644.656 393.913C650.324 399.496 653.158 407.912 653.158 419.162V485H634.045V420.952C634.045 414.304 632.234 409.489 628.612 406.506C624.99 403.523 620.665 402.031 615.636 402.031C609.415 402.031 604.578 403.949 601.126 407.784C597.675 411.577 595.949 416.456 595.949 422.422V485H576.901V419.737C576.901 414.411 575.239 410.128 571.915 406.889C568.591 403.651 564.266 402.031 558.939 402.031C555.317 402.031 551.972 402.99 548.903 404.908C545.878 406.783 543.428 409.403 541.553 412.77C539.72 416.136 538.804 420.036 538.804 424.467V485H519.692ZM680.308 485V354.091H699.42V402.734H700.571C701.679 400.689 703.277 398.324 705.365 395.639C707.453 392.955 710.35 390.611 714.058 388.608C717.765 386.562 722.666 385.54 728.76 385.54C736.686 385.54 743.76 387.543 749.981 391.548C756.203 395.554 761.082 401.328 764.619 408.871C768.199 416.413 769.988 425.49 769.988 436.101C769.988 446.712 768.22 455.81 764.683 463.395C761.146 470.937 756.288 476.754 750.109 480.845C743.93 484.893 736.877 486.918 728.951 486.918C722.985 486.918 718.106 485.916 714.314 483.913C710.564 481.911 707.623 479.567 705.493 476.882C703.362 474.197 701.721 471.811 700.571 469.723H698.973V485H680.308ZM699.037 435.909C699.037 442.812 700.038 448.864 702.041 454.062C704.044 459.261 706.941 463.331 710.734 466.271C714.527 469.169 719.172 470.618 724.669 470.618C730.379 470.618 735.152 469.105 738.987 466.08C742.822 463.011 745.72 458.857 747.68 453.615C749.683 448.374 750.684 442.472 750.684 435.909C750.684 429.432 749.704 423.615 747.744 418.459C745.826 413.303 742.929 409.233 739.051 406.25C735.216 403.267 730.422 401.776 724.669 401.776C719.129 401.776 714.441 403.203 710.606 406.058C706.814 408.913 703.937 412.898 701.977 418.011C700.017 423.125 699.037 429.091 699.037 435.909ZM833.765 486.982C824.092 486.982 815.761 484.915 808.772 480.781C801.826 476.605 796.457 470.746 792.664 463.203C788.914 455.618 787.039 446.733 787.039 436.548C787.039 426.491 788.914 417.628 792.664 409.957C796.457 402.287 801.741 396.3 808.516 391.996C815.335 387.692 823.303 385.54 832.423 385.54C837.962 385.54 843.332 386.456 848.531 388.288C853.729 390.121 858.396 392.997 862.529 396.918C866.663 400.838 869.923 405.93 872.309 412.195C874.695 418.416 875.889 425.98 875.889 434.886V441.662H797.842V427.344H857.16C857.16 422.315 856.137 417.862 854.092 413.984C852.046 410.064 849.17 406.974 845.462 404.716C841.798 402.457 837.494 401.328 832.55 401.328C827.181 401.328 822.494 402.649 818.488 405.291C814.525 407.891 811.457 411.3 809.283 415.518C807.153 419.695 806.087 424.233 806.087 429.134V440.32C806.087 446.882 807.238 452.464 809.539 457.067C811.883 461.669 815.143 465.185 819.319 467.614C823.495 470 828.374 471.193 833.957 471.193C837.579 471.193 840.881 470.682 843.864 469.659C846.847 468.594 849.425 467.017 851.599 464.929C853.772 462.841 855.434 460.263 856.585 457.195L874.674 460.455C873.225 465.781 870.626 470.447 866.876 474.453C863.168 478.416 858.502 481.506 852.877 483.722C847.295 485.895 840.924 486.982 833.765 486.982ZM897.094 485V386.818H915.567V402.415H916.59C918.38 397.131 921.533 392.976 926.05 389.95C930.61 386.882 935.766 385.348 941.519 385.348C942.712 385.348 944.118 385.391 945.738 385.476C947.4 385.561 948.699 385.668 949.637 385.795V404.077C948.87 403.864 947.506 403.629 945.546 403.374C943.586 403.075 941.625 402.926 939.665 402.926C935.148 402.926 931.121 403.885 927.584 405.803C924.09 407.678 921.32 410.298 919.275 413.665C917.229 416.989 916.206 420.781 916.206 425.043V485H897.094ZM967.518 486.214C964.024 486.214 961.02 484.979 958.506 482.507C955.991 479.993 954.734 476.967 954.734 473.43C954.734 469.936 955.991 466.953 958.506 464.482C961.02 461.967 964.024 460.71 967.518 460.71C971.013 460.71 974.017 461.967 976.531 464.482C979.045 466.953 980.303 469.936 980.303 473.43C980.303 475.774 979.706 477.926 978.513 479.886C977.362 481.804 975.828 483.338 973.911 484.489C971.993 485.639 969.862 486.214 967.518 486.214Z"></path>
<path mask="url(#path-2-inside-1_396_80)" fill="#FAF6EF" d="M106.382 273H105.234V274.148H106.382V273ZM106.382 142.091V140.943H105.234V142.091H106.382ZM177.398 146.693L176.881 147.719L176.887 147.722L177.398 146.693ZM191.077 159.03L190.084 159.607L190.086 159.611L191.077 159.03ZM192.611 190.287L193.621 190.833L193.624 190.828L192.611 190.287ZM184.557 199.236L185.194 200.191L185.197 200.189L184.557 199.236ZM173.562 204.094L173.278 202.981L172.414 203.202V204.094H173.562ZM173.562 205.372H172.414V206.466L173.506 206.519L173.562 205.372ZM186.283 209.591L185.671 210.563L185.683 210.57L186.283 209.591ZM196.638 220.521L197.633 219.948L197.633 219.948L196.638 220.521ZM195.999 255.805L195.01 255.22L195.009 255.223L195.999 255.805ZM181.553 268.398L182.042 269.437L182.047 269.434L181.553 268.398ZM126.134 256.061H124.985V257.209H126.134V256.061ZM174.969 250.564L174.202 249.709L174.202 249.709L174.969 250.564ZM177.973 225.443L176.99 226.038L176.99 226.038L177.973 225.443ZM169.024 217.197L168.484 218.211L168.488 218.213L169.024 217.197ZM126.134 214.129V212.981H124.985V214.129H126.134ZM126.134 198.724H124.985V199.873H126.134V198.724ZM164.55 196.168L164.056 195.131L164.051 195.133L164.55 196.168ZM173.051 189.009L172.104 188.36L172.102 188.362L173.051 189.009ZM170.558 164.399L169.76 165.225L169.76 165.225L170.558 164.399ZM126.134 158.902V157.754H124.985V158.902H126.134ZM107.53 273V142.091H105.234V273H107.53ZM106.382 143.239H154.322V140.943H106.382V143.239ZM154.322 143.239C163.494 143.239 170.995 144.755 176.881 147.719L177.914 145.667C171.613 142.495 163.73 140.943 154.322 140.943V143.239ZM176.887 147.722C182.807 150.661 187.186 154.628 190.084 159.607L192.069 158.452C188.916 153.034 184.176 148.777 177.908 145.665L176.887 147.722ZM190.086 159.611C193 164.576 194.467 170.19 194.467 176.48H196.763C196.763 169.816 195.205 163.796 192.067 158.449L190.086 159.611ZM194.467 176.48C194.467 181.798 193.49 186.203 191.598 189.746L193.624 190.828C195.737 186.871 196.763 182.071 196.763 176.48H194.467ZM191.6 189.741C189.683 193.291 187.123 196.132 183.917 198.282L185.197 200.189C188.724 197.823 191.533 194.697 193.621 190.833L191.6 189.741ZM183.92 198.28C180.708 200.422 177.163 201.989 173.278 202.981L173.847 205.206C177.974 204.153 181.758 202.482 185.194 200.191L183.92 198.28ZM172.414 204.094V205.372H174.711V204.094H172.414ZM173.506 206.519C177.633 206.721 181.684 208.056 185.671 210.563L186.894 208.619C182.614 205.927 178.185 204.449 173.619 204.225L173.506 206.519ZM185.683 210.57C189.677 213.016 193 216.511 195.643 221.095L197.633 219.948C194.821 215.071 191.24 211.28 186.882 208.612L185.683 210.57ZM195.643 221.095C198.248 225.613 199.58 231.158 199.58 237.78H201.877C201.877 230.851 200.482 224.89 197.633 219.948L195.643 221.095ZM199.58 237.78C199.58 244.282 198.051 250.085 195.01 255.22L196.987 256.39C200.253 250.872 201.877 244.659 201.877 237.78H199.58ZM195.009 255.223C192.034 260.277 187.409 264.331 181.058 267.361L182.047 269.434C188.736 266.243 193.742 261.902 196.988 256.388L195.009 255.223ZM181.064 267.359C174.746 270.332 166.597 271.852 156.56 271.852V274.148C166.806 274.148 175.32 272.6 182.042 269.437L181.064 267.359ZM156.56 271.852H106.382V274.148H156.56V271.852ZM126.134 257.209H154.642V254.913H126.134V257.209ZM154.642 257.209C164.198 257.209 171.327 255.369 175.735 251.419L174.202 249.709C170.429 253.089 164.007 254.913 154.642 254.913V257.209ZM175.735 251.419C180.069 247.536 182.253 242.644 182.253 236.821H179.957C179.957 241.992 178.05 246.262 174.202 249.709L175.735 251.419ZM182.253 236.821C182.253 232.483 181.155 228.484 178.956 224.849L176.99 226.038C178.967 229.305 179.957 232.892 179.957 236.821H182.253ZM178.956 224.849C176.75 221.203 173.606 218.316 169.56 216.182L168.488 218.213C172.198 220.17 175.02 222.78 176.99 226.038L178.956 224.849ZM169.565 216.184C165.531 214.033 160.777 212.981 155.345 212.981V215.278C160.481 215.278 164.847 216.271 168.484 218.211L169.565 216.184ZM155.345 212.981H126.134V215.278H155.345V212.981ZM124.985 214.129V256.061H127.282V214.129H124.985ZM126.134 199.873H152.597V197.576H126.134V199.873ZM152.597 199.873C157.179 199.873 161.337 198.991 165.048 197.202L164.051 195.133C160.689 196.754 156.878 197.576 152.597 197.576V199.873ZM165.043 197.204C168.794 195.419 171.79 192.903 174.001 189.655L172.102 188.362C170.136 191.251 167.465 193.508 164.056 195.131L165.043 197.204ZM173.999 189.657C176.275 186.333 177.396 182.436 177.396 178.014H175.099C175.099 182.03 174.088 185.462 172.104 188.36L173.999 189.657ZM177.396 178.014C177.396 172.3 175.379 167.461 171.356 163.573L169.76 165.225C173.322 168.667 175.099 172.904 175.099 178.014H177.396ZM171.356 163.573C167.265 159.62 161.104 157.754 153.108 157.754V160.05C160.794 160.05 166.266 161.849 169.76 165.225L171.356 163.573ZM153.108 157.754H126.134V160.05H153.108V157.754ZM124.985 158.902V198.724H127.282V158.902H124.985ZM239.944 268.781L239.352 269.765L239.359 269.77L239.944 268.781ZM223.836 251.203L222.806 251.712L222.81 251.719L223.836 251.203ZM223.836 197.957L222.807 197.448L222.804 197.453L223.836 197.957ZM239.688 179.996L239.075 179.025L239.072 179.026L239.688 179.996ZM279.702 176.288L280.084 175.205L280.084 175.205L279.702 176.288ZM293.701 184.918L292.911 185.751L292.911 185.751L293.701 184.918ZM303.481 200.195L302.408 200.603L302.409 200.606L303.481 200.195ZM307.06 229.662V230.81H308.209V229.662H307.06ZM229.013 229.662H227.865V230.81H229.013V229.662ZM229.013 215.344V214.195H227.865V215.344H229.013ZM288.332 215.344V216.492H289.48V215.344H288.332ZM285.263 201.984L284.245 202.516L284.248 202.52L285.263 201.984ZM276.634 192.716L276.032 193.694L276.037 193.697L276.634 192.716ZM249.66 193.291L250.29 194.251L250.292 194.25L249.66 193.291ZM240.455 203.518L239.434 202.993L239.432 202.997L240.455 203.518ZM240.711 245.067L239.684 245.58L239.688 245.588L240.711 245.067ZM250.491 255.614L249.913 256.606L249.921 256.611L250.491 255.614ZM275.036 257.659L275.409 258.745L275.416 258.743L275.422 258.741L275.036 257.659ZM282.771 252.929L281.975 252.101L281.975 252.101L282.771 252.929ZM287.756 245.195L287.96 244.064L287.017 243.895L286.681 244.791L287.756 245.195ZM305.846 248.455L306.954 248.756L307.283 247.547L306.05 247.324L305.846 248.455ZM298.048 262.453L297.209 261.668L297.209 261.669L298.048 262.453ZM284.049 271.722L284.466 272.792L284.47 272.79L284.049 271.722ZM264.937 273.833C255.43 273.833 247.309 271.803 240.529 267.793L239.359 269.77C246.556 274.026 255.097 276.13 264.937 276.13V273.833ZM240.536 267.797C233.784 263.738 228.561 258.044 224.862 250.687L222.81 251.719C226.696 259.447 232.212 265.473 239.352 269.765L240.536 267.797ZM224.865 250.694C221.208 243.296 219.359 234.592 219.359 224.548H217.063C217.063 234.874 218.964 243.94 222.806 251.712L224.865 250.694ZM219.359 224.548C219.359 214.635 221.207 205.95 224.868 198.462L222.804 197.453C218.965 205.306 217.063 214.348 217.063 224.548H219.359ZM224.865 198.466C228.571 190.971 233.718 185.149 240.304 180.965L239.072 179.026C232.108 183.451 226.686 189.602 222.807 197.448L224.865 198.466ZM240.301 180.967C246.913 176.793 254.663 174.688 263.594 174.688V172.391C254.287 172.391 246.1 174.59 239.075 179.025L240.301 180.967ZM263.594 174.688C269.005 174.688 274.245 175.582 279.321 177.371L280.084 175.205C274.762 173.329 269.264 172.391 263.594 172.391V174.688ZM279.321 177.371C284.362 179.148 288.89 181.938 292.911 185.751L294.491 184.084C290.245 180.057 285.44 177.093 280.084 175.205L279.321 177.371ZM292.911 185.751C296.899 189.534 300.072 194.472 302.408 200.603L304.554 199.786C302.117 193.389 298.77 188.142 294.491 184.084L292.911 185.751ZM302.409 200.606C304.731 206.66 305.912 214.076 305.912 222.886H308.209C308.209 213.884 307.004 206.172 304.553 199.783L302.409 200.606ZM305.912 222.886V229.662H308.209V222.886H305.912ZM307.06 228.514H229.013V230.81H307.06V228.514ZM230.162 229.662V215.344H227.865V229.662H230.162ZM229.013 216.492H288.332V214.195H229.013V216.492ZM289.48 215.344C289.48 210.156 288.424 205.514 286.279 201.449L284.248 202.52C286.194 206.21 287.183 210.474 287.183 215.344H289.48ZM286.282 201.453C284.141 197.351 281.121 194.105 277.232 191.735L276.037 193.697C279.562 195.844 282.295 198.777 284.245 202.516L286.282 201.453ZM277.237 191.738C273.365 189.352 268.846 188.18 263.722 188.18V190.477C268.485 190.477 272.574 191.562 276.032 193.694L277.237 191.738ZM263.722 188.18C258.156 188.18 253.243 189.552 249.028 192.333L250.292 194.25C254.088 191.746 258.55 190.477 263.722 190.477V188.18ZM249.03 192.331C244.901 195.039 241.698 198.598 239.434 202.993L241.476 204.044C243.559 200.001 246.492 196.742 250.29 194.251L249.03 192.331ZM239.432 202.997C237.215 207.342 236.111 212.06 236.111 217.134H238.408C238.408 212.406 239.434 208.048 241.478 204.04L239.432 202.997ZM236.111 217.134V228.32H238.408V217.134H236.111ZM236.111 228.32C236.111 235.013 237.284 240.781 239.684 245.58L241.738 244.553C239.536 240.148 238.408 234.751 238.408 228.32H236.111ZM239.688 245.588C242.124 250.373 245.533 254.059 249.913 256.606L251.068 254.621C247.096 252.311 243.985 248.965 241.734 244.546L239.688 245.588ZM249.921 256.611C254.297 259.111 259.379 260.342 265.129 260.342V258.045C259.714 258.045 255.037 256.889 251.061 254.617L249.921 256.611ZM265.129 260.342C268.859 260.342 272.289 259.815 275.409 258.745L274.664 256.573C271.817 257.549 268.643 258.045 265.129 258.045V260.342ZM275.422 258.741C278.55 257.623 281.27 255.963 283.566 253.757L281.975 252.101C279.925 254.071 277.488 255.564 274.65 256.578L275.422 258.741ZM283.566 253.757C285.874 251.54 287.626 248.813 288.832 245.598L286.681 244.791C285.586 247.713 284.014 250.142 281.975 252.101L283.566 253.757ZM287.553 246.325L305.642 249.585L306.05 247.324L287.96 244.064L287.553 246.325ZM304.738 248.153C303.338 253.3 300.83 257.8 297.209 261.668L298.886 263.238C302.765 259.095 305.456 254.262 306.954 248.756L304.738 248.153ZM297.209 261.669C293.631 265.494 289.113 268.493 283.628 270.653L284.47 272.79C290.235 270.519 295.05 267.339 298.886 263.238L297.209 261.669ZM283.632 270.651C278.206 272.764 271.981 273.833 264.937 273.833V276.13C272.211 276.13 278.727 275.026 284.466 272.792L283.632 270.651ZM345.077 268.526L344.46 269.494L344.467 269.498L345.077 268.526ZM329.48 197.957L330.511 198.464L330.512 198.462L329.48 197.957ZM345.333 179.996L344.72 179.025L344.72 179.025L345.333 179.996ZM389.374 177.695L388.882 178.732L388.888 178.735L389.374 177.695ZM403.5 189.2L402.57 189.874L402.574 189.879L403.5 189.2ZM409.956 206.523V207.671H411.229L411.099 206.405L409.956 206.523ZM391.355 206.523L390.234 206.772L390.434 207.671H391.355V206.523ZM384.324 194.634L383.548 195.48L383.553 195.484L384.324 194.634ZM355.752 193.866L356.41 194.808L356.412 194.806L355.752 193.866ZM346.483 205.756L347.537 206.212L347.538 206.209L346.483 205.756ZM346.419 242.446L347.479 242.003L347.479 242.003L346.419 242.446ZM355.624 254.527L354.953 255.459L354.957 255.462L355.624 254.527ZM379.594 256.828L380.065 257.876L380.072 257.873L379.594 256.828ZM387.073 251.011L386.182 250.287L386.175 250.296L387.073 251.011ZM391.355 241.935V240.786H390.44L390.236 241.678L391.355 241.935ZM409.956 241.935L411.098 242.057L411.235 240.786H409.956V241.935ZM403.756 258.938L404.7 259.591L404.7 259.591L403.756 258.938ZM389.885 270.699L389.378 269.669L389.375 269.67L389.885 270.699ZM369.623 273.833C360.298 273.833 352.336 271.723 345.687 267.553L344.467 269.498C351.54 273.936 359.942 276.13 369.623 276.13V273.833ZM345.694 267.557C339.065 263.331 333.964 257.511 330.388 250.067L328.318 251.061C332.07 258.873 337.453 265.027 344.46 269.494L345.694 267.557ZM330.388 250.067C326.809 242.617 325.004 234.056 325.004 224.357H322.707C322.707 234.344 324.567 243.255 328.318 251.061L330.388 250.067ZM325.004 224.357C325.004 214.53 326.851 205.909 330.511 198.464L328.45 197.451C324.61 205.261 322.707 214.24 322.707 224.357H325.004ZM330.512 198.462C334.174 190.971 339.318 185.15 345.946 180.967L344.72 179.025C337.711 183.449 332.287 189.603 328.449 197.453L330.512 198.462ZM345.946 180.967C352.555 176.795 360.368 174.688 369.431 174.688V172.391C359.999 172.391 351.747 174.589 344.72 179.025L345.946 180.967ZM369.431 174.688C376.744 174.688 383.219 176.046 388.882 178.732L389.866 176.657C383.852 173.804 377.032 172.391 369.431 172.391V174.688ZM388.888 178.735C394.559 181.384 399.112 185.098 402.57 189.874L404.43 188.527C400.73 183.417 395.865 179.459 389.86 176.654L388.888 178.735ZM402.574 189.879C406.066 194.644 408.151 200.221 408.814 206.641L411.099 206.405C410.398 199.614 408.179 193.643 404.427 188.522L402.574 189.879ZM409.956 205.374H391.355V207.671H409.956V205.374ZM392.476 206.274C391.4 201.428 388.927 197.258 385.096 193.783L383.553 195.484C387.051 198.657 389.266 202.413 390.234 206.772L392.476 206.274ZM385.101 193.787C381.219 190.225 376.06 188.499 369.75 188.499V190.796C375.629 190.796 380.185 192.394 383.548 195.48L385.101 193.787ZM369.75 188.499C364.209 188.499 359.308 189.966 355.092 192.927L356.412 194.806C360.207 192.142 364.638 190.796 369.75 190.796V188.499ZM355.094 192.925C350.929 195.836 347.715 199.982 345.428 205.302L347.538 206.209C349.684 201.217 352.648 197.437 356.41 194.808L355.094 192.925ZM345.43 205.299C343.138 210.588 342.011 216.802 342.011 223.909H344.308C344.308 217.039 345.397 211.15 347.537 206.212L345.43 205.299ZM342.011 223.909C342.011 231.181 343.114 237.517 345.36 242.889L347.479 242.003C345.378 236.977 344.308 230.956 344.308 223.909H342.011ZM345.36 242.889C347.602 248.253 350.792 252.462 354.953 255.459L356.295 253.595C352.529 250.882 349.583 247.037 347.479 242.003L345.36 242.889ZM354.957 255.462C359.177 258.47 364.125 259.958 369.75 259.958V257.661C364.552 257.661 360.082 256.294 356.29 253.592L354.957 255.462ZM369.75 259.958C373.515 259.958 376.959 259.271 380.065 257.876L379.123 255.781C376.348 257.027 373.23 257.661 369.75 257.661V259.958ZM380.072 257.873C383.215 256.435 385.853 254.385 387.971 251.727L386.175 250.296C384.287 252.666 381.939 254.494 379.117 255.784L380.072 257.873ZM387.964 251.736C390.133 249.07 391.631 245.879 392.475 242.191L390.236 241.678C389.461 245.064 388.104 247.925 386.182 250.287L387.964 251.736ZM391.355 243.083H409.956V240.786H391.355V243.083ZM408.815 241.812C408.152 247.981 406.149 253.464 402.812 258.284L404.7 259.591C408.267 254.439 410.397 248.587 411.098 242.057L408.815 241.812ZM402.812 258.284C399.479 263.099 395.01 266.894 389.378 269.669L390.393 271.729C396.352 268.793 401.13 264.748 404.7 259.591L402.812 258.284ZM389.375 269.67C383.81 272.432 377.237 273.833 369.623 273.833V276.13C377.519 276.13 384.455 274.676 390.396 271.728L389.375 269.67ZM431.673 250.947L432.7 250.434L431.673 250.947ZM447.653 179.868L448.255 180.846L448.255 180.846L447.653 179.868ZM495.849 179.868L495.248 180.846L495.248 180.846L495.849 179.868ZM511.83 250.947L510.802 250.434L511.83 250.947ZM495.849 268.653L496.451 269.632L496.451 269.632L495.849 268.653ZM486.645 254.207L485.925 253.313L485.925 253.313L486.645 254.207ZM495.338 241.615L494.26 241.22L494.257 241.228L495.338 241.615ZM495.338 207.034L494.256 207.418L494.26 207.429L495.338 207.034ZM486.645 194.314L485.919 195.204L485.919 195.204L486.645 194.314ZM456.858 194.314L456.137 193.42L456.132 193.424L456.858 194.314ZM448.101 207.034L447.021 206.642L447.02 206.647L448.101 207.034ZM448.101 241.615L447.02 242.002L447.022 242.01L448.101 241.615ZM456.858 254.207L456.138 255.102L456.143 255.106L456.858 254.207ZM471.751 273.833C462.728 273.833 454.91 271.767 448.255 267.675L447.052 269.632C454.118 273.977 462.365 276.13 471.751 276.13V273.833ZM448.255 267.675C441.586 263.575 436.403 257.838 432.7 250.434L430.646 251.461C434.529 259.227 439.999 265.295 447.052 269.632L448.255 267.675ZM432.7 250.434C429.002 243.036 427.133 234.355 427.133 224.357H424.836C424.836 234.642 426.76 243.688 430.646 251.461L432.7 250.434ZM427.133 224.357C427.133 214.315 429.002 205.59 432.702 198.149L430.645 197.127C426.759 204.941 424.836 214.029 424.836 224.357H427.133ZM432.702 198.149C436.404 190.702 441.588 184.946 448.255 180.846L447.052 178.89C439.997 183.228 434.528 189.318 430.645 197.127L432.702 198.149ZM448.255 180.846C454.91 176.754 462.728 174.688 471.751 174.688V172.391C462.365 172.391 454.118 174.544 447.052 178.89L448.255 180.846ZM471.751 174.688C480.775 174.688 488.593 176.754 495.248 180.846L496.451 178.89C489.385 174.544 481.137 172.391 471.751 172.391V174.688ZM495.248 180.846C501.915 184.946 507.099 190.702 510.801 198.149L512.858 197.127C508.975 189.318 503.506 183.228 496.451 178.89L495.248 180.846ZM510.801 198.149C514.501 205.59 516.37 214.315 516.37 224.357H518.667C518.667 214.029 516.743 204.941 512.858 197.127L510.801 198.149ZM516.37 224.357C516.37 234.355 514.501 243.036 510.802 250.434L512.857 251.461C516.743 243.688 518.667 234.642 518.667 224.357H516.37ZM510.802 250.434C507.1 257.838 501.916 263.575 495.248 267.675L496.451 269.632C503.504 265.295 508.974 259.227 512.857 251.461L510.802 250.434ZM495.248 267.675C488.593 271.767 480.775 273.833 471.751 273.833V276.13C481.137 276.13 489.385 273.977 496.451 269.632L495.248 267.675ZM471.815 260.086C477.992 260.086 483.204 258.449 487.365 255.102L485.925 253.313C482.245 256.273 477.57 257.789 471.815 257.789V260.086ZM487.365 255.102C491.467 251.802 494.481 247.421 496.419 242.002L494.257 241.228C492.445 246.292 489.663 250.306 485.925 253.313L487.365 255.102ZM496.417 242.01C498.386 236.626 499.363 230.717 499.363 224.293H497.066C497.066 230.482 496.125 236.121 494.26 241.22L496.417 242.01ZM499.363 224.293C499.363 217.91 498.386 212.022 496.417 206.64L494.26 207.429C496.126 212.529 497.066 218.147 497.066 224.293H499.363ZM496.42 206.65C494.483 201.19 491.471 196.767 487.371 193.424L485.919 195.204C489.659 198.253 492.443 202.31 494.256 207.418L496.42 206.65ZM487.371 193.424C483.21 190.032 477.996 188.372 471.815 188.372V190.668C477.566 190.668 482.239 192.204 485.919 195.204L487.371 193.424ZM471.815 188.372C465.594 188.372 460.34 190.031 456.137 193.42L457.579 195.208C461.302 192.205 466.02 190.668 471.815 190.668V188.372ZM456.132 193.424C452.034 196.765 449.002 201.186 447.021 206.642L449.18 207.426C451.035 202.314 453.841 198.255 457.584 195.204L456.132 193.424ZM447.02 206.647C445.095 212.027 444.14 217.913 444.14 224.293H446.437C446.437 218.144 447.357 212.524 449.182 207.421L447.02 206.647ZM444.14 224.293C444.14 230.714 445.095 236.621 447.02 242.002L449.182 241.228C447.357 236.126 446.437 230.485 446.437 224.293H444.14ZM447.022 242.01C449.004 247.425 452.037 251.804 456.138 255.102L457.578 253.313C453.838 250.304 451.033 246.288 449.179 241.22L447.022 242.01ZM456.143 255.106C460.345 258.45 465.597 260.086 471.815 260.086V257.789C466.016 257.789 461.297 256.272 457.573 253.309L456.143 255.106ZM538.852 273H537.704V274.148H538.852V273ZM538.852 174.818V173.67H537.704V174.818H538.852ZM557.197 174.818H558.345V173.67H557.197V174.818ZM557.197 190.798H556.049V191.947H557.197V190.798ZM558.412 190.798V191.947H559.205L559.486 191.204L558.412 190.798ZM568.447 178.142L569.074 179.104L569.08 179.1L568.447 178.142ZM601.622 178.142L600.968 179.086L600.972 179.089L601.622 178.142ZM611.529 190.798L610.462 191.222L610.75 191.947H611.529V190.798ZM612.552 190.798V191.947H613.297L613.601 191.267L612.552 190.798ZM623.738 178.27L624.335 179.251L624.341 179.247L623.738 178.27ZM663.816 181.913L663.007 182.728L663.011 182.732L663.816 181.913ZM672.318 273V274.148H673.466V273H672.318ZM653.206 273H652.057V274.148H653.206V273ZM647.772 194.506L648.502 193.619L648.502 193.619L647.772 194.506ZM620.287 195.784L621.136 196.557L621.14 196.552L620.287 195.784ZM615.109 273V274.148H616.257V273H615.109ZM596.061 273H594.912V274.148H596.061V273ZM591.075 194.889L590.274 195.712L590.274 195.712L591.075 194.889ZM568.064 192.908L568.668 193.884L568.672 193.881L568.064 192.908ZM560.713 200.77L559.709 200.211L559.704 200.221L560.713 200.77ZM557.964 273V274.148H559.113V273H557.964ZM540 273V174.818H537.704V273H540ZM538.852 175.967H557.197V173.67H538.852V175.967ZM556.049 174.818V190.798H558.345V174.818H556.049ZM557.197 191.947H558.412V189.65H557.197V191.947ZM559.486 191.204C561.449 186.01 564.643 181.991 569.074 179.104L567.82 177.18C562.962 180.345 559.465 184.763 557.337 190.392L559.486 191.204ZM569.08 179.1C573.508 176.175 578.84 174.688 585.13 174.688V172.391C578.466 172.391 572.676 173.972 567.814 177.184L569.08 179.1ZM585.13 174.688C591.511 174.688 596.767 176.178 600.968 179.086L602.275 177.198C597.613 173.97 591.875 172.391 585.13 172.391V174.688ZM600.972 179.089C605.246 182.02 608.41 186.05 610.462 191.222L612.597 190.375C610.388 184.808 606.946 180.401 602.271 177.195L600.972 179.089ZM611.529 191.947H612.552V189.65H611.529V191.947ZM613.601 191.267C615.845 186.248 619.411 182.246 624.335 179.251L623.141 177.289C617.838 180.515 613.947 184.866 611.504 190.33L613.601 191.267ZM624.341 179.247C629.243 176.224 635.12 174.688 642.02 174.688V172.391C634.771 172.391 628.46 174.009 623.136 177.292L624.341 179.247ZM642.02 174.688C650.664 174.688 657.625 177.387 663.007 182.728L664.625 181.098C658.758 175.275 651.188 172.391 642.02 172.391V174.688ZM663.011 182.732C668.382 188.022 671.169 196.09 671.169 207.162H673.466C673.466 195.733 670.586 186.97 664.622 181.095L663.011 182.732ZM671.169 207.162V273H673.466V207.162H671.169ZM672.318 271.852H653.206V274.148H672.318V271.852ZM654.354 273V208.952H652.057V273H654.354ZM654.354 208.952C654.354 202.11 652.486 196.9 648.502 193.619L647.042 195.392C650.303 198.077 652.057 202.498 652.057 208.952H654.354ZM648.502 193.619C644.659 190.454 640.071 188.883 634.797 188.883V191.18C639.579 191.18 643.641 192.591 647.042 195.392L648.502 193.619ZM634.797 188.883C628.322 188.883 623.147 190.889 619.433 195.016L621.14 196.552C624.33 193.008 628.828 191.18 634.797 191.18V188.883ZM619.437 195.011C615.762 199.049 613.961 204.22 613.961 210.422H616.257C616.257 204.692 617.908 200.104 621.136 196.557L619.437 195.011ZM613.961 210.422V273H616.257V210.422H613.961ZM615.109 271.852H596.061V274.148H615.109V271.852ZM597.209 273V207.737H594.912V273H597.209ZM597.209 207.737C597.209 202.151 595.455 197.554 591.876 194.067L590.274 195.712C593.342 198.702 594.912 202.67 594.912 207.737H597.209ZM591.876 194.067C588.306 190.588 583.677 188.883 578.099 188.883V191.18C583.174 191.18 587.196 192.713 590.274 195.712L591.876 194.067ZM578.099 188.883C574.262 188.883 570.706 189.902 567.455 191.934L568.672 193.881C571.558 192.078 574.692 191.18 578.099 191.18V188.883ZM567.459 191.932C564.253 193.918 561.671 196.688 559.709 200.211L561.716 201.329C563.504 198.118 565.823 195.647 568.668 193.884L567.459 191.932ZM559.704 200.221C557.767 203.78 556.816 207.874 556.816 212.467H559.113C559.113 208.197 559.994 204.492 561.721 201.319L559.704 200.221ZM556.816 212.467V273H559.113V212.467H556.816ZM557.964 271.852H538.852V274.148H557.964V271.852ZM715.256 268.781L714.665 269.765L714.672 269.77L715.256 268.781ZM699.148 251.203L698.119 251.712L698.122 251.719L699.148 251.203ZM699.148 197.957L698.119 197.448L698.117 197.453L699.148 197.957ZM715.001 179.996L714.388 179.025L714.385 179.026L715.001 179.996ZM755.015 176.288L755.397 175.205L755.397 175.205L755.015 176.288ZM769.013 184.918L768.223 185.751L768.223 185.751L769.013 184.918ZM778.793 200.195L777.72 200.603L777.721 200.606L778.793 200.195ZM782.373 229.662V230.81H783.521V229.662H782.373ZM704.326 229.662H703.178V230.81H704.326V229.662ZM704.326 215.344V214.195H703.178V215.344H704.326ZM763.644 215.344V216.492H764.793V215.344H763.644ZM760.576 201.984L759.558 202.516L759.56 202.52L760.576 201.984ZM751.947 192.716L751.344 193.694L751.349 193.697L751.947 192.716ZM724.972 193.291L725.602 194.251L725.605 194.25L724.972 193.291ZM715.768 203.518L714.747 202.993L714.745 202.997L715.768 203.518ZM716.023 245.067L714.996 245.58L715 245.588L716.023 245.067ZM725.803 255.614L725.226 256.606L725.234 256.611L725.803 255.614ZM750.349 257.659L750.721 258.745L750.728 258.743L750.735 258.741L750.349 257.659ZM758.083 252.929L757.287 252.101L757.287 252.101L758.083 252.929ZM763.069 245.195L763.273 244.064L762.33 243.895L761.994 244.791L763.069 245.195ZM781.158 248.455L782.267 248.756L782.595 247.547L781.362 247.324L781.158 248.455ZM773.36 262.453L772.522 261.668L772.521 261.669L773.36 262.453ZM759.362 271.722L759.778 272.792L759.782 272.79L759.362 271.722ZM740.249 273.833C730.742 273.833 722.621 271.803 715.841 267.793L714.672 269.77C721.869 274.026 730.41 276.13 740.249 276.13V273.833ZM715.848 267.797C709.096 263.738 703.874 258.044 700.174 250.687L698.122 251.719C702.008 259.447 707.525 265.473 714.665 269.765L715.848 267.797ZM700.178 250.694C696.52 243.296 694.672 234.592 694.672 224.548H692.375C692.375 234.874 694.276 243.94 698.119 251.712L700.178 250.694ZM694.672 224.548C694.672 214.635 696.519 205.95 700.18 198.462L698.117 197.453C694.277 205.306 692.375 214.348 692.375 224.548H694.672ZM700.178 198.466C703.884 190.971 709.03 185.149 715.616 180.965L714.385 179.026C707.42 183.451 701.998 189.602 698.119 197.448L700.178 198.466ZM715.614 180.967C722.225 176.793 729.975 174.688 738.907 174.688V172.391C729.6 172.391 721.413 174.59 714.388 179.025L715.614 180.967ZM738.907 174.688C744.317 174.688 749.558 175.582 754.633 177.371L755.397 175.205C750.075 173.329 744.576 172.391 738.907 172.391V174.688ZM754.633 177.371C759.675 179.148 764.203 181.938 768.223 185.751L769.804 184.084C765.557 180.057 760.753 177.093 755.397 175.205L754.633 177.371ZM768.223 185.751C772.212 189.534 775.384 194.472 777.72 200.603L779.866 199.786C777.43 193.389 774.082 188.142 769.804 184.084L768.223 185.751ZM777.721 200.606C780.043 206.66 781.225 214.076 781.225 222.886H783.521C783.521 213.884 782.316 206.172 779.866 199.783L777.721 200.606ZM781.225 222.886V229.662H783.521V222.886H781.225ZM782.373 228.514H704.326V230.81H782.373V228.514ZM705.474 229.662V215.344H703.178V229.662H705.474ZM704.326 216.492H763.644V214.195H704.326V216.492ZM764.793 215.344C764.793 210.156 763.736 205.514 761.592 201.449L759.56 202.52C761.507 206.21 762.496 210.474 762.496 215.344H764.793ZM761.594 201.453C759.454 197.351 756.434 194.105 752.544 191.735L751.349 193.697C754.875 195.844 757.607 198.777 759.558 202.516L761.594 201.453ZM752.549 191.738C748.678 189.352 744.159 188.18 739.035 188.18V190.477C743.797 190.477 747.886 191.562 751.344 193.694L752.549 191.738ZM739.035 188.18C733.468 188.18 728.555 189.552 724.34 192.333L725.605 194.25C729.401 191.746 733.863 190.477 739.035 190.477V188.18ZM724.342 192.331C720.214 195.039 717.011 198.598 714.747 202.993L716.789 204.044C718.871 200.001 721.805 196.742 725.602 194.251L724.342 192.331ZM714.745 202.997C712.528 207.342 711.423 212.06 711.423 217.134H713.72C713.72 212.406 714.746 208.048 716.791 204.04L714.745 202.997ZM711.423 217.134V228.32H713.72V217.134H711.423ZM711.423 228.32C711.423 235.013 712.597 240.781 714.996 245.58L717.051 244.553C714.848 240.148 713.72 234.751 713.72 228.32H711.423ZM715 245.588C717.437 250.373 720.846 254.059 725.226 256.606L726.381 254.621C722.409 252.311 719.298 248.965 717.047 244.546L715 245.588ZM725.234 256.611C729.609 259.111 734.691 260.342 740.441 260.342V258.045C735.026 258.045 730.35 256.889 726.373 254.617L725.234 256.611ZM740.441 260.342C744.171 260.342 747.602 259.815 750.721 258.745L749.976 256.573C747.13 257.549 743.955 258.045 740.441 258.045V260.342ZM750.735 258.741C753.863 257.623 756.582 255.963 758.879 253.757L757.287 252.101C755.237 254.071 752.801 255.564 749.962 256.578L750.735 258.741ZM758.879 253.757C761.186 251.54 762.939 248.813 764.144 245.598L761.994 244.791C760.898 247.713 759.326 250.142 757.287 252.101L758.879 253.757ZM762.865 246.325L780.955 249.585L781.362 247.324L763.273 244.064L762.865 246.325ZM780.05 248.153C778.65 253.3 776.143 257.8 772.522 261.668L774.198 263.238C778.077 259.095 780.769 254.262 782.267 248.756L780.05 248.153ZM772.521 261.669C768.943 265.494 764.425 268.493 758.941 270.653L759.782 272.79C765.548 270.519 770.362 267.339 774.199 263.238L772.521 261.669ZM758.945 270.651C753.518 272.764 747.293 273.833 740.249 273.833V276.13C747.524 276.13 754.04 275.026 759.778 272.792L758.945 270.651ZM116.545 483.722L116.06 484.762L116.068 484.766L116.545 483.722ZM104.592 473.558L103.631 474.187L103.635 474.193L104.592 473.558ZM103.442 443.58L104.429 444.167L104.429 444.167L103.442 443.58ZM112.071 435.078L112.645 436.073L112.645 436.073L112.071 435.078ZM137.895 427.919L137.763 426.778L137.759 426.779L137.895 427.919ZM152.213 426.257L152.346 427.398L152.359 427.396L152.213 426.257ZM160.203 424.02L160.805 424.998L160.805 424.998L160.203 424.02ZM157.966 405.611L157.159 406.428L157.165 406.434L157.966 405.611ZM128.818 405.291L129.517 406.202L129.519 406.201L128.818 405.291ZM121.212 414.688L120.957 415.807L121.907 416.024L122.275 415.121L121.212 414.688ZM103.25 410.597L102.169 410.21L101.733 411.429L102.995 411.716L103.25 410.597ZM112.582 396.151L113.349 397.006L113.349 397.005L112.582 396.151ZM126.837 388.097L127.176 389.194L127.184 389.191L126.837 388.097ZM156.24 386.946L156 388.069L156.013 388.072L156.24 386.946ZM168.641 391.932L168.026 392.902L168.031 392.905L168.641 391.932ZM178.165 402.351L177.157 402.902L177.16 402.906L178.165 402.351ZM181.872 485V486.148H183.021V485H181.872ZM163.207 485H162.059V486.148H163.207V485ZM163.207 471.577H164.356V470.428H163.207V471.577ZM162.44 471.577V470.428H161.731L161.413 471.063L162.44 471.577ZM156.879 478.864L156.082 478.037L156.082 478.037L156.879 478.864ZM147.355 484.808L146.923 483.744L147.355 484.808ZM151.126 468.7L150.573 467.694L150.568 467.697L151.126 468.7ZM159.756 460.518L158.766 459.937L158.763 459.941L159.756 460.518ZM162.76 436.932H163.908V434.159L161.948 436.12L162.76 436.932ZM158.797 438.849L159.116 439.953L159.123 439.95L159.131 439.948L158.797 438.849ZM152.213 440.32L152.389 441.454L152.399 441.453L152.408 441.451L152.213 440.32ZM144.99 441.406L145.135 442.545L145.145 442.544L145.155 442.543L144.99 441.406ZM139.109 442.173L139.253 443.313L139.263 443.311L139.109 442.173ZM128.946 444.538L128.556 443.458L128.551 443.46L128.946 444.538ZM121.659 449.332L120.796 448.575L120.795 448.576L121.659 449.332ZM124.216 468.253L123.56 469.196L123.568 469.201L124.216 468.253ZM133.42 486.025C127.343 486.025 121.884 484.902 117.023 482.677L116.068 484.766C121.264 487.144 127.055 488.322 133.42 488.322V486.025ZM117.031 482.681C112.185 480.422 108.368 477.171 105.549 472.923L103.635 474.193C106.698 478.809 110.849 482.333 116.06 484.762L117.031 482.681ZM105.553 472.93C102.802 468.722 101.394 463.518 101.394 457.259H99.0974C99.0974 463.868 100.587 469.531 103.631 474.187L105.553 472.93ZM101.394 457.259C101.394 451.859 102.433 447.519 104.429 444.167L102.455 442.992C100.189 446.799 99.0974 451.578 99.0974 457.259H101.394ZM104.429 444.167C106.458 440.757 109.192 438.063 112.645 436.073L111.497 434.083C107.706 436.269 104.687 439.243 102.455 442.992L104.429 444.167ZM112.645 436.073C116.162 434.046 120.105 432.507 124.482 431.465L123.95 429.231C119.378 430.319 115.225 431.935 111.497 434.083L112.645 436.073ZM124.482 431.465C128.913 430.41 133.429 429.608 138.031 429.059L137.759 426.779C133.071 427.338 128.468 428.155 123.95 429.231L124.482 431.465ZM138.027 429.06C143.908 428.378 148.681 427.824 152.346 427.398L152.08 425.116C148.416 425.543 143.643 426.096 137.763 426.778L138.027 429.06ZM152.359 427.396C156.066 426.922 158.929 426.152 160.805 424.998L159.601 423.042C158.153 423.933 155.689 424.655 152.067 425.118L152.359 427.396ZM160.805 424.998C162.872 423.726 163.844 421.65 163.844 419.034H161.548C161.548 421.02 160.858 422.269 159.601 423.042L160.805 424.998ZM163.844 419.034V418.587H161.548V419.034H163.844ZM163.844 418.587C163.844 412.782 162.198 408.127 158.767 404.788L157.165 406.434C160.04 409.231 161.548 413.226 161.548 418.587H163.844ZM158.772 404.793C155.371 401.438 150.386 399.86 144.031 399.86V402.157C150.035 402.157 154.339 403.647 157.16 406.428L158.772 404.793ZM144.031 399.86C137.437 399.86 132.089 401.323 128.118 404.381L129.519 406.201C132.962 403.549 137.756 402.157 144.031 402.157V399.86ZM128.119 404.38C124.331 407.287 121.648 410.573 120.148 414.254L122.275 415.121C123.588 411.898 125.976 408.92 129.517 406.202L128.119 404.38ZM121.467 413.568L103.505 409.477L102.995 411.716L120.957 415.807L121.467 413.568ZM104.331 410.983C106.408 405.169 109.421 400.525 113.349 397.006L111.816 395.295C107.562 399.106 104.354 404.092 102.169 410.21L104.331 410.983ZM113.349 397.005C117.358 393.41 121.963 390.807 127.176 389.194L126.497 387C120.972 388.71 116.074 391.476 111.816 395.296L113.349 397.005ZM127.184 389.191C132.435 387.524 137.964 386.688 143.776 386.688V384.391C137.74 384.391 131.977 385.26 126.489 387.002L127.184 389.191ZM143.776 386.688C147.605 386.688 151.679 387.146 156 388.069L156.48 385.823C152.023 384.871 147.787 384.391 143.776 384.391V386.688ZM156.013 388.072C160.307 388.939 164.309 390.548 168.026 392.902L169.255 390.962C165.302 388.458 161.037 386.743 156.467 385.82L156.013 388.072ZM168.031 392.905C171.722 395.217 174.768 398.535 177.157 402.902L179.172 401.8C176.618 397.132 173.315 393.504 169.25 390.959L168.031 392.905ZM177.16 402.906C179.507 407.156 180.724 412.763 180.724 419.801H183.021C183.021 412.521 181.766 406.495 179.17 401.796L177.16 402.906ZM180.724 419.801V485H183.021V419.801H180.724ZM181.872 483.852H163.207V486.148H181.872V483.852ZM164.356 485V471.577H162.059V485H164.356ZM163.207 470.428H162.44V472.725H163.207V470.428ZM161.413 471.063C160.248 473.394 158.481 475.72 156.082 478.037L157.677 479.69C160.22 477.234 162.161 474.703 163.467 472.09L161.413 471.063ZM156.082 478.037C153.736 480.302 150.693 482.211 146.923 483.744L147.788 485.872C151.772 484.252 155.08 482.198 157.677 479.69L156.082 478.037ZM146.923 483.744C143.216 485.252 138.726 486.025 133.42 486.025V488.322C138.939 488.322 143.739 487.518 147.788 485.872L146.923 483.744ZM137.575 472.981C143.01 472.981 147.729 471.906 151.685 469.704L150.568 467.697C147.024 469.67 142.709 470.684 137.575 470.684V472.981ZM151.68 469.706C155.634 467.529 158.672 464.662 160.748 461.096L158.763 459.941C156.919 463.108 154.204 465.695 150.573 467.694L151.68 469.706ZM160.746 461.1C162.85 457.518 163.908 453.675 163.908 449.588H161.612C161.612 453.257 160.667 456.7 158.766 459.937L160.746 461.1ZM163.908 449.588V436.932H161.612V449.588H163.908ZM161.948 436.12C161.481 436.586 160.402 437.161 158.463 437.751L159.131 439.948C161.112 439.345 162.675 438.641 163.572 437.744L161.948 436.12ZM158.478 437.746C156.61 438.286 154.458 438.767 152.018 439.188L152.408 441.451C154.911 441.02 157.149 440.521 159.116 439.953L158.478 437.746ZM152.037 439.185C149.569 439.568 147.165 439.929 144.825 440.27L145.155 442.543C147.503 442.201 149.914 441.838 152.389 441.454L152.037 439.185ZM144.845 440.267C142.5 440.566 140.536 440.822 138.956 441.035L139.263 443.311C140.836 443.099 142.793 442.844 145.135 442.545L144.845 440.267ZM138.965 441.034C135.186 441.512 131.714 442.318 128.556 443.458L129.336 445.618C132.314 444.543 135.618 443.772 139.253 443.313L138.965 441.034ZM128.551 443.46C125.374 444.623 122.774 446.321 120.796 448.575L122.522 450.09C124.209 448.168 126.467 446.669 129.341 445.617L128.551 443.46ZM120.795 448.576C118.779 450.88 117.826 453.9 117.826 457.514H120.123C120.123 454.31 120.96 451.876 122.523 450.089L120.795 448.576ZM117.826 457.514C117.826 462.571 119.719 466.526 123.56 469.196L124.871 467.31C121.724 465.122 120.123 461.917 120.123 457.514H117.826ZM123.568 469.201C127.3 471.75 131.997 472.981 137.575 472.981V470.684C132.33 470.684 128.12 469.528 124.864 467.305L123.568 469.201ZM254.965 485H253.817V486.148H254.965V485ZM254.965 386.818V385.67H253.817V386.818H254.965ZM273.31 386.818H274.459V385.67H273.31V386.818ZM273.31 402.798H272.162V403.947H273.31V402.798ZM274.525 402.798V403.947H275.318L275.599 403.204L274.525 402.798ZM284.56 390.142L285.187 391.104L285.193 391.1L284.56 390.142ZM317.735 390.142L317.081 391.086L317.086 391.089L317.735 390.142ZM327.643 402.798L326.575 403.222L326.863 403.947H327.643V402.798ZM328.665 402.798V403.947H329.41L329.714 403.267L328.665 402.798ZM339.852 390.27L340.448 391.251L340.454 391.247L339.852 390.27ZM379.93 393.913L379.121 394.728L379.124 394.732L379.93 393.913ZM388.431 485V486.148H389.579V485H388.431ZM369.319 485H368.171V486.148H369.319V485ZM363.886 406.506L364.616 405.619L364.616 405.619L363.886 406.506ZM336.4 407.784L337.249 408.557L337.253 408.552L336.4 407.784ZM331.222 485V486.148H332.371V485H331.222ZM312.174 485H311.026V486.148H312.174V485ZM307.188 406.889L306.387 407.712L306.387 407.712L307.188 406.889ZM284.177 404.908L284.782 405.884L284.785 405.881L284.177 404.908ZM276.826 412.77L275.823 412.211L275.817 412.221L276.826 412.77ZM274.077 485V486.148H275.226V485H274.077ZM256.114 485V386.818H253.817V485H256.114ZM254.965 387.967H273.31V385.67H254.965V387.967ZM272.162 386.818V402.798H274.459V386.818H272.162ZM273.31 403.947H274.525V401.65H273.31V403.947ZM275.599 403.204C277.562 398.01 280.756 393.991 285.187 391.104L283.934 389.18C279.075 392.345 275.578 396.763 273.451 402.392L275.599 403.204ZM285.193 391.1C289.621 388.175 294.954 386.688 301.244 386.688V384.391C294.579 384.391 288.789 385.972 283.927 389.184L285.193 391.1ZM301.244 386.688C307.624 386.688 312.88 388.178 317.081 391.086L318.389 389.198C313.726 385.97 307.988 384.391 301.244 384.391V386.688ZM317.086 391.089C321.359 394.02 324.523 398.05 326.575 403.222L328.71 402.375C326.501 396.808 323.06 392.401 318.385 389.195L317.086 391.089ZM327.643 403.947H328.665V401.65H327.643V403.947ZM329.714 403.267C331.958 398.248 335.525 394.246 340.448 391.251L339.255 389.289C333.951 392.515 330.06 396.866 327.617 402.33L329.714 403.267ZM340.454 391.247C345.357 388.224 351.234 386.688 358.133 386.688V384.391C350.884 384.391 344.574 386.009 339.249 389.292L340.454 391.247ZM358.133 386.688C366.777 386.688 373.738 389.387 379.121 394.728L380.739 393.098C374.871 387.275 367.301 384.391 358.133 384.391V386.688ZM379.124 394.732C384.495 400.022 387.283 408.09 387.283 419.162H389.579C389.579 407.733 386.7 398.97 380.736 393.095L379.124 394.732ZM387.283 419.162V485H389.579V419.162H387.283ZM388.431 483.852H369.319V486.148H388.431V483.852ZM370.467 485V420.952H368.171V485H370.467ZM370.467 420.952C370.467 414.11 368.6 408.9 364.616 405.619L363.156 407.392C366.416 410.077 368.171 414.498 368.171 420.952H370.467ZM364.616 405.619C360.773 402.454 356.184 400.883 350.91 400.883V403.18C355.692 403.18 359.754 404.591 363.156 407.392L364.616 405.619ZM350.91 400.883C344.435 400.883 339.26 402.889 335.546 407.016L337.253 408.552C340.443 405.008 344.941 403.18 350.91 403.18V400.883ZM335.551 407.011C331.875 411.049 330.074 416.22 330.074 422.422H332.371C332.371 416.692 334.021 412.104 337.249 408.557L335.551 407.011ZM330.074 422.422V485H332.371V422.422H330.074ZM331.222 483.852H312.174V486.148H331.222V483.852ZM313.322 485V419.737H311.026V485H313.322ZM313.322 419.737C313.322 414.151 311.569 409.554 307.99 406.067L306.387 407.712C309.455 410.702 311.026 414.67 311.026 419.737H313.322ZM307.99 406.067C304.419 402.588 299.791 400.883 294.212 400.883V403.18C299.287 403.18 303.309 404.713 306.387 407.712L307.99 406.067ZM294.212 400.883C290.375 400.883 286.819 401.902 283.568 403.934L284.785 405.881C287.671 404.078 290.805 403.18 294.212 403.18V400.883ZM283.572 403.932C280.367 405.918 277.785 408.688 275.823 412.211L277.829 413.329C279.617 410.118 281.936 407.647 284.782 405.884L283.572 403.932ZM275.817 412.221C273.88 415.78 272.929 419.874 272.929 424.467H275.226C275.226 420.197 276.107 416.492 277.835 413.319L275.817 412.221ZM272.929 424.467V485H275.226V424.467H272.929ZM274.077 483.852H254.965V486.148H274.077V483.852ZM431.37 480.781L430.778 481.765L430.785 481.77L431.37 480.781ZM415.262 463.203L414.232 463.712L414.236 463.719L415.262 463.203ZM415.262 409.957L414.232 409.448L414.23 409.453L415.262 409.957ZM431.114 391.996L430.501 391.025L430.498 391.026L431.114 391.996ZM471.128 388.288L471.51 387.205L471.51 387.205L471.128 388.288ZM485.127 396.918L484.337 397.751L484.337 397.751L485.127 396.918ZM494.907 412.195L493.833 412.603L493.834 412.606L494.907 412.195ZM498.486 441.662V442.81H499.635V441.662H498.486ZM420.439 441.662H419.291V442.81H420.439V441.662ZM420.439 427.344V426.195H419.291V427.344H420.439ZM479.757 427.344V428.492H480.906V427.344H479.757ZM476.689 413.984L475.671 414.516L475.674 414.52L476.689 413.984ZM468.06 404.716L467.458 405.694L467.463 405.697L468.06 404.716ZM441.086 405.291L441.715 406.251L441.718 406.25L441.086 405.291ZM431.881 415.518L430.86 414.993L430.858 414.997L431.881 415.518ZM432.137 457.067L431.11 457.58L431.113 457.588L432.137 457.067ZM441.917 467.614L441.339 468.606L441.347 468.611L441.917 467.614ZM466.462 469.659L466.834 470.745L466.841 470.743L466.848 470.741L466.462 469.659ZM474.196 464.929L473.401 464.101L473.401 464.101L474.196 464.929ZM479.182 457.195L479.386 456.064L478.443 455.895L478.107 456.791L479.182 457.195ZM497.272 460.455L498.38 460.756L498.709 459.547L497.475 459.324L497.272 460.455ZM489.473 474.453L488.635 473.668L488.635 473.669L489.473 474.453ZM475.475 483.722L475.891 484.792L475.896 484.79L475.475 483.722ZM456.363 485.833C446.855 485.833 438.735 483.803 431.954 479.793L430.785 481.77C437.982 486.026 446.523 488.13 456.363 488.13V485.833ZM431.961 479.797C425.209 475.738 419.987 470.044 416.288 462.687L414.236 463.719C418.122 471.447 423.638 477.473 430.778 481.765L431.961 479.797ZM416.291 462.694C412.634 455.296 410.785 446.592 410.785 436.548H408.488C408.488 446.874 410.39 455.94 414.232 463.712L416.291 462.694ZM410.785 436.548C410.785 426.635 412.633 417.95 416.293 410.462L414.23 409.453C410.391 417.306 408.488 426.348 408.488 436.548H410.785ZM416.291 410.466C419.997 402.971 425.143 397.149 431.73 392.965L430.498 391.026C423.533 395.451 418.112 401.602 414.232 409.448L416.291 410.466ZM431.727 392.967C438.338 388.793 446.089 386.688 455.02 386.688V384.391C445.713 384.391 437.526 386.59 430.501 391.025L431.727 392.967ZM455.02 386.688C460.431 386.688 465.671 387.582 470.746 389.371L471.51 387.205C466.188 385.329 460.689 384.391 455.02 384.391V386.688ZM470.746 389.371C475.788 391.148 480.316 393.938 484.337 397.751L485.917 396.084C481.67 392.057 476.866 389.093 471.51 387.205L470.746 389.371ZM484.337 397.751C488.325 401.534 491.498 406.472 493.833 412.603L495.98 411.786C493.543 405.389 490.196 400.142 485.917 396.084L484.337 397.751ZM493.834 412.606C496.157 418.66 497.338 426.076 497.338 434.886H499.635C499.635 425.884 498.429 418.172 495.979 411.783L493.834 412.606ZM497.338 434.886V441.662H499.635V434.886H497.338ZM498.486 440.514H420.439V442.81H498.486V440.514ZM421.588 441.662V427.344H419.291V441.662H421.588ZM420.439 428.492H479.757V426.195H420.439V428.492ZM480.906 427.344C480.906 422.156 479.85 417.514 477.705 413.449L475.674 414.52C477.62 418.21 478.609 422.474 478.609 427.344H480.906ZM477.707 413.453C475.567 409.351 472.547 406.105 468.657 403.735L467.463 405.697C470.988 407.844 473.72 410.777 475.671 414.516L477.707 413.453ZM468.663 403.738C464.791 401.352 460.272 400.18 455.148 400.18V402.477C459.911 402.477 463.999 403.562 467.458 405.694L468.663 403.738ZM455.148 400.18C449.582 400.18 444.668 401.552 440.453 404.333L441.718 406.25C445.514 403.746 449.976 402.477 455.148 402.477V400.18ZM440.456 404.331C436.327 407.039 433.124 410.598 430.86 414.993L432.902 416.044C434.985 412.001 437.918 408.742 441.715 406.251L440.456 404.331ZM430.858 414.997C428.641 419.342 427.537 424.06 427.537 429.134H429.833C429.833 424.406 430.86 420.048 432.904 416.04L430.858 414.997ZM427.537 429.134V440.32H429.833V429.134H427.537ZM427.537 440.32C427.537 447.013 428.71 452.781 431.11 457.58L433.164 456.553C430.961 452.148 429.833 446.751 429.833 440.32H427.537ZM431.113 457.588C433.55 462.373 436.959 466.059 441.339 468.606L442.494 466.621C438.522 464.311 435.411 460.965 433.16 456.546L431.113 457.588ZM441.347 468.611C445.723 471.111 450.805 472.342 456.554 472.342V470.045C451.139 470.045 446.463 468.889 442.486 466.617L441.347 468.611ZM456.554 472.342C460.285 472.342 463.715 471.815 466.834 470.745L466.09 468.573C463.243 469.549 460.068 470.045 456.554 470.045V472.342ZM466.848 470.741C469.976 469.623 472.696 467.963 474.992 465.757L473.401 464.101C471.35 466.071 468.914 467.564 466.076 468.578L466.848 470.741ZM474.992 465.757C477.3 463.54 479.052 460.813 480.257 457.598L478.107 456.791C477.011 459.713 475.44 462.142 473.401 464.101L474.992 465.757ZM478.979 458.325L497.068 461.585L497.475 459.324L479.386 456.064L478.979 458.325ZM496.164 460.153C494.764 465.3 492.256 469.8 488.635 473.668L490.312 475.238C494.191 471.095 496.882 466.262 498.38 460.756L496.164 460.153ZM488.635 473.669C485.056 477.494 480.539 480.493 475.054 482.653L475.896 484.79C481.661 482.519 486.475 479.339 490.312 475.238L488.635 473.669ZM475.058 482.651C469.632 484.764 463.406 485.833 456.363 485.833V488.13C463.637 488.13 470.153 487.026 475.891 484.792L475.058 482.651ZM519.692 485H518.543V486.148H519.692V485ZM519.692 386.818V385.67H518.543V386.818H519.692ZM538.037 386.818H539.185V385.67H538.037V386.818ZM538.037 402.798H536.889V403.947H538.037V402.798ZM539.251 402.798V403.947H540.045L540.326 403.204L539.251 402.798ZM549.287 390.142L549.914 391.104L549.92 391.1L549.287 390.142ZM582.462 390.142L581.808 391.086L581.812 391.089L582.462 390.142ZM592.369 402.798L591.302 403.222L591.59 403.947H592.369V402.798ZM593.392 402.798V403.947H594.137L594.44 403.267L593.392 402.798ZM604.578 390.27L605.175 391.251L605.181 391.247L604.578 390.27ZM644.656 393.913L643.847 394.728L643.85 394.732L644.656 393.913ZM653.158 485V486.148H654.306V485H653.158ZM634.045 485H632.897V486.148H634.045V485ZM628.612 406.506L629.342 405.619L629.342 405.619L628.612 406.506ZM601.126 407.784L601.976 408.557L601.98 408.552L601.126 407.784ZM595.949 485V486.148H597.097V485H595.949ZM576.901 485H575.752V486.148H576.901V485ZM571.915 406.889L571.113 407.712L571.113 407.712L571.915 406.889ZM548.903 404.908L549.508 405.884L549.512 405.881L548.903 404.908ZM541.553 412.77L540.549 412.211L540.544 412.221L541.553 412.77ZM538.804 485V486.148H539.952V485H538.804ZM520.84 485V386.818H518.543V485H520.84ZM519.692 387.967H538.037V385.67H519.692V387.967ZM536.889 386.818V402.798H539.185V386.818H536.889ZM538.037 403.947H539.251V401.65H538.037V403.947ZM540.326 403.204C542.289 398.01 545.483 393.991 549.914 391.104L548.66 389.18C543.801 392.345 540.305 396.763 538.177 402.392L540.326 403.204ZM549.92 391.1C554.348 388.175 559.68 386.688 565.97 386.688V384.391C559.306 384.391 553.516 385.972 548.654 389.184L549.92 391.1ZM565.97 386.688C572.351 386.688 577.607 388.178 581.808 391.086L583.115 389.198C578.453 385.97 572.715 384.391 565.97 384.391V386.688ZM581.812 391.089C586.086 394.02 589.25 398.05 591.302 403.222L593.437 402.375C591.228 396.808 587.786 392.401 583.111 389.195L581.812 391.089ZM592.369 403.947H593.392V401.65H592.369V403.947ZM594.44 403.267C596.685 398.248 600.251 394.246 605.175 391.251L603.981 389.289C598.678 392.515 594.787 396.866 592.344 402.33L594.44 403.267ZM605.181 391.247C610.083 388.224 615.96 386.688 622.859 386.688V384.391C615.611 384.391 609.3 386.009 603.975 389.292L605.181 391.247ZM622.859 386.688C631.503 386.688 638.465 389.387 643.847 394.728L645.465 393.098C639.598 387.275 632.028 384.391 622.859 384.391V386.688ZM643.85 394.732C649.221 400.022 652.009 408.09 652.009 419.162H654.306C654.306 407.733 651.426 398.97 645.462 393.095L643.85 394.732ZM652.009 419.162V485H654.306V419.162H652.009ZM653.158 483.852H634.045V486.148H653.158V483.852ZM635.194 485V420.952H632.897V485H635.194ZM635.194 420.952C635.194 414.11 633.326 408.9 629.342 405.619L627.882 407.392C631.143 410.077 632.897 414.498 632.897 420.952H635.194ZM629.342 405.619C625.499 402.454 620.911 400.883 615.636 400.883V403.18C620.419 403.18 624.481 404.591 627.882 407.392L629.342 405.619ZM615.636 400.883C609.162 400.883 603.987 402.889 600.273 407.016L601.98 408.552C605.17 405.008 609.667 403.18 615.636 403.18V400.883ZM600.277 407.011C596.602 411.049 594.8 416.22 594.8 422.422H597.097C597.097 416.692 598.748 412.104 601.976 408.557L600.277 407.011ZM594.8 422.422V485H597.097V422.422H594.8ZM595.949 483.852H576.901V486.148H595.949V483.852ZM578.049 485V419.737H575.752V485H578.049ZM578.049 419.737C578.049 414.151 576.295 409.554 572.716 406.067L571.113 407.712C574.182 410.702 575.752 414.67 575.752 419.737H578.049ZM572.716 406.067C569.146 402.588 564.517 400.883 558.939 400.883V403.18C564.014 403.18 568.036 404.713 571.113 407.712L572.716 406.067ZM558.939 400.883C555.102 400.883 551.546 401.902 548.295 403.934L549.512 405.881C552.398 404.078 555.532 403.18 558.939 403.18V400.883ZM548.298 403.932C545.093 405.918 542.511 408.688 540.549 412.211L542.556 413.329C544.344 410.118 546.662 407.647 549.508 405.884L548.298 403.932ZM540.544 412.221C538.606 415.78 537.656 419.874 537.656 424.467H539.952C539.952 420.197 540.834 416.492 542.561 413.319L540.544 412.221ZM537.656 424.467V485H539.952V424.467H537.656ZM538.804 483.852H519.692V486.148H538.804V483.852ZM680.308 485H679.16V486.148H680.308V485ZM680.308 354.091V352.943H679.16V354.091H680.308ZM699.42 354.091H700.568V352.943H699.42V354.091ZM699.42 402.734H698.272V403.883H699.42V402.734ZM700.571 402.734V403.883H701.255L701.58 403.281L700.571 402.734ZM705.365 395.639L706.271 396.344L706.271 396.344L705.365 395.639ZM714.058 388.608L714.604 389.618L714.613 389.613L714.058 388.608ZM749.981 391.548L749.36 392.514L749.36 392.514L749.981 391.548ZM764.619 408.871L763.579 409.358L763.581 409.363L764.619 408.871ZM764.683 463.395L765.723 463.882L765.724 463.88L764.683 463.395ZM750.109 480.845L750.738 481.806L750.743 481.803L750.109 480.845ZM714.314 483.913L713.773 484.926L713.777 484.929L714.314 483.913ZM705.493 476.882L704.593 477.596L704.593 477.596L705.493 476.882ZM700.571 469.723L701.576 469.169L701.249 468.575H700.571V469.723ZM698.973 469.723V468.575H697.824V469.723H698.973ZM698.973 485V486.148H700.121V485H698.973ZM702.041 454.062L700.969 454.475L700.969 454.475L702.041 454.062ZM710.734 466.271L710.03 467.179L710.037 467.184L710.734 466.271ZM738.987 466.08L739.698 466.981L739.704 466.976L738.987 466.08ZM747.68 453.615L746.607 453.205L746.604 453.213L747.68 453.615ZM747.744 418.459L746.668 418.859L746.671 418.867L747.744 418.459ZM739.051 406.25L738.346 407.156L738.351 407.16L739.051 406.25ZM710.606 406.058L709.92 405.137L709.916 405.141L710.606 406.058ZM701.977 418.011L700.905 417.6L700.905 417.6L701.977 418.011ZM681.456 485V354.091H679.16V485H681.456ZM680.308 355.239H699.42V352.943H680.308V355.239ZM698.272 354.091V402.734H700.568V354.091H698.272ZM699.42 403.883H700.571V401.586H699.42V403.883ZM701.58 403.281C702.648 401.31 704.206 399 706.271 396.344L704.458 394.934C702.347 397.648 700.709 400.068 699.561 402.187L701.58 403.281ZM706.271 396.344C708.241 393.811 711.004 391.563 714.604 389.618L713.512 387.598C709.697 389.659 706.664 392.098 704.458 394.934L706.271 396.344ZM714.613 389.613C718.092 387.694 722.78 386.688 728.76 386.688V384.391C722.552 384.391 717.439 385.431 713.503 387.602L714.613 389.613ZM728.76 386.688C736.482 386.688 743.337 388.636 749.36 392.514L750.603 390.583C744.183 386.449 736.89 384.391 728.76 384.391V386.688ZM749.36 392.514C755.377 396.388 760.122 401.986 763.579 409.358L765.659 408.383C762.042 400.67 757.028 394.72 750.603 390.583L749.36 392.514ZM763.581 409.363C767.071 416.716 768.84 425.616 768.84 436.101H771.137C771.137 425.364 769.326 416.111 765.656 408.378L763.581 409.363ZM768.84 436.101C768.84 446.587 767.092 455.511 763.642 462.91L765.724 463.88C769.348 456.108 771.137 446.836 771.137 436.101H768.84ZM763.643 462.907C760.184 470.283 755.457 475.927 749.475 479.888L750.743 481.803C757.119 477.581 762.108 471.592 765.723 463.882L763.643 462.907ZM749.48 479.885C743.502 483.801 736.671 485.769 728.951 485.769V488.066C737.084 488.066 744.359 485.986 750.738 481.806L749.48 479.885ZM728.951 485.769C723.103 485.769 718.425 484.786 714.85 482.898L713.777 484.929C717.787 487.046 722.868 488.066 728.951 488.066V485.769ZM714.855 482.9C711.211 480.954 708.404 478.704 706.392 476.168L704.593 477.596C706.842 480.43 709.916 482.867 713.773 484.926L714.855 482.9ZM706.392 476.168C704.286 473.514 702.686 471.182 701.576 469.169L699.565 470.277C700.757 472.44 702.438 474.881 704.593 477.596L706.392 476.168ZM700.571 468.575H698.973V470.871H700.571V468.575ZM697.824 469.723V485H700.121V469.723H697.824ZM698.973 483.852H680.308V486.148H698.973V483.852ZM697.888 435.909C697.888 442.921 698.905 449.117 700.969 454.475L703.112 453.65C701.171 448.61 700.185 442.704 700.185 435.909H697.888ZM700.969 454.475C703.035 459.838 706.047 464.091 710.03 467.179L711.438 465.364C707.836 462.571 705.052 458.685 703.112 453.65L700.969 454.475ZM710.037 467.184C714.059 470.257 718.959 471.766 724.669 471.766V469.47C719.384 469.47 714.994 468.081 711.431 465.359L710.037 467.184ZM724.669 471.766C730.592 471.766 735.627 470.193 739.698 466.981L738.276 465.178C734.676 468.018 730.166 469.47 724.669 469.47V471.766ZM739.704 466.976C743.723 463.761 746.733 459.425 748.756 454.017L746.604 453.213C744.706 458.288 741.921 462.261 738.269 465.183L739.704 466.976ZM748.753 454.025C750.813 448.632 751.833 442.588 751.833 435.909H749.536C749.536 442.355 748.552 448.115 746.607 453.205L748.753 454.025ZM751.833 435.909C751.833 429.316 750.835 423.358 748.817 418.051L746.671 418.867C748.573 423.872 749.536 429.547 749.536 435.909H751.833ZM748.82 418.059C746.837 412.726 743.82 408.47 739.751 405.34L738.351 407.16C742.037 409.996 744.815 413.879 746.668 418.859L748.82 418.059ZM739.756 405.344C735.684 402.176 730.628 400.627 724.669 400.627V402.924C730.215 402.924 734.747 404.358 738.346 407.156L739.756 405.344ZM724.669 400.627C718.923 400.627 713.984 402.112 709.92 405.137L711.292 406.979C714.899 404.294 719.335 402.924 724.669 402.924V400.627ZM709.916 405.141C705.926 408.144 702.93 412.317 700.905 417.6L703.049 418.422C704.944 413.478 707.702 409.682 711.297 406.976L709.916 405.141ZM700.905 417.6C698.883 422.873 697.888 428.984 697.888 435.909H700.185C700.185 429.198 701.15 423.377 703.049 418.422L700.905 417.6ZM808.772 480.781L808.18 481.765L808.187 481.77L808.772 480.781ZM792.664 463.203L791.635 463.712L791.638 463.719L792.664 463.203ZM792.664 409.957L791.635 409.448L791.632 409.453L792.664 409.957ZM808.516 391.996L807.903 391.025L807.901 391.026L808.516 391.996ZM848.531 388.288L848.912 387.205L848.912 387.205L848.531 388.288ZM862.529 396.918L861.739 397.751L861.739 397.751L862.529 396.918ZM872.309 412.195L871.236 412.603L871.237 412.606L872.309 412.195ZM875.889 441.662V442.81H877.037V441.662H875.889ZM797.842 441.662H796.693V442.81H797.842V441.662ZM797.842 427.344V426.195H796.693V427.344H797.842ZM857.16 427.344V428.492H858.308V427.344H857.16ZM854.092 413.984L853.073 414.516L853.076 414.52L854.092 413.984ZM845.462 404.716L844.86 405.694L844.865 405.697L845.462 404.716ZM818.488 405.291L819.118 406.251L819.12 406.25L818.488 405.291ZM809.283 415.518L808.262 414.993L808.26 414.997L809.283 415.518ZM809.539 457.067L808.512 457.58L808.516 457.588L809.539 457.067ZM819.319 467.614L818.742 468.606L818.749 468.611L819.319 467.614ZM843.864 469.659L844.237 470.745L844.244 470.743L844.251 470.741L843.864 469.659ZM851.599 464.929L850.803 464.101L850.803 464.101L851.599 464.929ZM856.585 457.195L856.788 456.064L855.846 455.895L855.509 456.791L856.585 457.195ZM874.674 460.455L875.782 460.756L876.111 459.547L874.878 459.324L874.674 460.455ZM866.876 474.453L866.037 473.668L866.037 473.669L866.876 474.453ZM852.877 483.722L853.294 484.792L853.298 484.79L852.877 483.722ZM833.765 485.833C824.258 485.833 816.137 483.803 809.357 479.793L808.187 481.77C815.384 486.026 823.926 488.13 833.765 488.13V485.833ZM809.364 479.797C802.612 475.738 797.389 470.044 793.69 462.687L791.638 463.719C795.524 471.447 801.04 477.473 808.18 481.765L809.364 479.797ZM793.694 462.694C790.036 455.296 788.187 446.592 788.187 436.548H785.891C785.891 446.874 787.792 455.94 791.635 463.712L793.694 462.694ZM788.187 436.548C788.187 426.635 790.035 417.95 793.696 410.462L791.632 409.453C787.793 417.306 785.891 426.348 785.891 436.548H788.187ZM793.693 410.466C797.399 402.971 802.546 397.149 809.132 392.965L807.901 391.026C800.936 395.451 795.514 401.602 791.635 409.448L793.693 410.466ZM809.129 392.967C815.741 388.793 823.491 386.688 832.423 386.688V384.391C823.115 384.391 814.928 386.59 807.903 391.025L809.129 392.967ZM832.423 386.688C837.833 386.688 843.073 387.582 848.149 389.371L848.912 387.205C843.59 385.329 838.092 384.391 832.423 384.391V386.688ZM848.149 389.371C853.19 391.148 857.718 393.938 861.739 397.751L863.319 396.084C859.073 392.057 854.269 389.093 848.912 387.205L848.149 389.371ZM861.739 397.751C865.727 401.534 868.9 406.472 871.236 412.603L873.382 411.786C870.945 405.389 867.598 400.142 863.319 396.084L861.739 397.751ZM871.237 412.606C873.559 418.66 874.74 426.076 874.74 434.886H877.037C877.037 425.884 875.832 418.172 873.381 411.783L871.237 412.606ZM874.74 434.886V441.662H877.037V434.886H874.74ZM875.889 440.514H797.842V442.81H875.889V440.514ZM798.99 441.662V427.344H796.693V441.662H798.99ZM797.842 428.492H857.16V426.195H797.842V428.492ZM858.308 427.344C858.308 422.156 857.252 417.514 855.107 413.449L853.076 414.52C855.022 418.21 856.011 422.474 856.011 427.344H858.308ZM855.11 413.453C852.969 409.351 849.949 406.105 846.06 403.735L844.865 405.697C848.39 407.844 851.123 410.777 853.073 414.516L855.11 413.453ZM846.065 403.738C842.193 401.352 837.674 400.18 832.55 400.18V402.477C837.313 402.477 841.402 403.562 844.86 405.694L846.065 403.738ZM832.55 400.18C826.984 400.18 822.071 401.552 817.856 404.333L819.12 406.25C822.916 403.746 827.378 402.477 832.55 402.477V400.18ZM817.858 404.331C813.729 407.039 810.526 410.598 808.263 414.993L810.304 416.044C812.387 412.001 815.321 408.742 819.118 406.251L817.858 404.331ZM808.26 414.997C806.044 419.342 804.939 424.06 804.939 429.134H807.236C807.236 424.406 808.262 420.048 810.306 416.04L808.26 414.997ZM804.939 429.134V440.32H807.236V429.134H804.939ZM804.939 440.32C804.939 447.013 806.112 452.781 808.512 457.58L810.566 456.553C808.364 452.148 807.236 446.751 807.236 440.32H804.939ZM808.516 457.588C810.952 462.373 814.361 466.059 818.742 468.606L819.896 466.621C815.924 464.311 812.813 460.965 810.562 456.546L808.516 457.588ZM818.749 468.611C823.125 471.111 828.207 472.342 833.957 472.342V470.045C828.542 470.045 823.865 468.889 819.889 466.617L818.749 468.611ZM833.957 472.342C837.687 472.342 841.118 471.815 844.237 470.745L843.492 468.573C840.645 469.549 837.471 470.045 833.957 470.045V472.342ZM844.251 470.741C847.378 469.623 850.098 467.963 852.394 465.757L850.803 464.101C848.753 466.071 846.316 467.564 843.478 468.578L844.251 470.741ZM852.394 465.757C854.702 463.54 856.454 460.813 857.66 457.598L855.509 456.791C854.414 459.713 852.842 462.142 850.803 464.101L852.394 465.757ZM856.381 458.325L874.47 461.585L874.878 459.324L856.788 456.064L856.381 458.325ZM873.566 460.153C872.166 465.3 869.659 469.8 866.037 473.668L867.714 475.238C871.593 471.095 874.284 466.262 875.782 460.756L873.566 460.153ZM866.037 473.669C862.459 477.494 857.941 480.493 852.456 482.653L853.298 484.79C859.063 482.519 863.878 479.339 867.714 475.238L866.037 473.669ZM852.461 482.651C847.034 484.764 840.809 485.833 833.765 485.833V488.13C841.039 488.13 847.555 487.026 853.294 484.792L852.461 482.651ZM897.094 485H895.946V486.148H897.094V485ZM897.094 386.818V385.67H895.946V386.818H897.094ZM915.567 386.818H916.715V385.67H915.567V386.818ZM915.567 402.415H914.419V403.563H915.567V402.415ZM916.59 402.415V403.563H917.413L917.678 402.783L916.59 402.415ZM926.05 389.95L926.689 390.904L926.691 390.903L926.05 389.95ZM945.738 385.476L945.677 386.623L945.679 386.623L945.738 385.476ZM949.637 385.795H950.785V384.793L949.792 384.658L949.637 385.795ZM949.637 404.077L949.329 405.183L950.785 405.588V404.077H949.637ZM945.546 403.374L945.373 404.509L945.385 404.511L945.397 404.512L945.546 403.374ZM927.584 405.803L928.127 406.814L928.132 406.812L927.584 405.803ZM919.275 413.665L920.253 414.267L920.256 414.261L919.275 413.665ZM916.206 485V486.148H917.355V485H916.206ZM898.242 485V386.818H895.946V485H898.242ZM897.094 387.967H915.567V385.67H897.094V387.967ZM914.419 386.818V402.415H916.715V386.818H914.419ZM915.567 403.563H916.59V401.266H915.567V403.563ZM917.678 402.783C919.389 397.732 922.388 393.785 926.689 390.904L925.411 388.996C920.678 392.166 917.371 396.53 915.502 402.046L917.678 402.783ZM926.691 390.903C931.052 387.969 935.983 386.496 941.519 386.496V384.2C935.549 384.2 930.167 385.796 925.409 388.998L926.691 390.903ZM941.519 386.496C942.686 386.496 944.071 386.538 945.677 386.623L945.798 384.329C944.165 384.243 942.738 384.2 941.519 384.2V386.496ZM945.679 386.623C947.329 386.707 948.591 386.812 949.482 386.933L949.792 384.658C948.807 384.523 947.47 384.415 945.796 384.329L945.679 386.623ZM948.488 385.795V404.077H950.785V385.795H948.488ZM949.944 402.97C949.09 402.733 947.653 402.49 945.694 402.235L945.397 404.512C947.359 404.768 948.649 404.994 949.329 405.183L949.944 402.97ZM945.719 402.238C943.702 401.931 941.684 401.778 939.665 401.778V404.075C941.567 404.075 943.469 404.219 945.373 404.509L945.719 402.238ZM939.665 401.778C934.981 401.778 930.762 402.774 927.037 404.793L928.132 406.812C931.481 404.996 935.315 404.075 939.665 404.075V401.778ZM927.041 404.791C923.368 406.762 920.446 409.526 918.293 413.068L920.256 414.261C922.194 411.071 924.812 408.593 928.127 406.814L927.041 404.791ZM918.296 413.063C916.13 416.584 915.058 420.589 915.058 425.043H917.355C917.355 420.974 918.329 417.393 920.253 414.267L918.296 413.063ZM915.058 425.043V485H917.355V425.043H915.058ZM916.206 483.852H897.094V486.148H916.206V483.852ZM958.506 482.507L957.694 483.319L957.701 483.326L958.506 482.507ZM958.506 464.482L959.311 465.3L959.318 465.294L958.506 464.482ZM976.531 464.482L975.719 465.294L975.726 465.3L976.531 464.482ZM978.513 479.886L977.532 479.289L977.528 479.296L978.513 479.886ZM967.518 485.066C964.328 485.066 961.612 483.951 959.311 481.688L957.701 483.326C960.427 486.007 963.72 487.363 967.518 487.363V485.066ZM959.318 481.695C957.018 479.395 955.883 476.661 955.883 473.43H953.586C953.586 477.274 954.965 480.591 957.694 483.319L959.318 481.695ZM955.883 473.43C955.883 470.247 957.014 467.558 959.311 465.3L957.701 463.663C954.969 466.348 953.586 469.625 953.586 473.43H955.883ZM959.318 465.294C961.621 462.99 964.335 461.859 967.518 461.859V459.562C963.714 459.562 960.419 460.944 957.694 463.67L959.318 465.294ZM967.518 461.859C970.702 461.859 973.416 462.99 975.719 465.294L977.343 463.67C974.618 460.944 971.323 459.562 967.518 459.562V461.859ZM975.726 465.3C978.023 467.558 979.154 470.247 979.154 473.43H981.451C981.451 469.625 980.068 466.348 977.336 463.663L975.726 465.3ZM979.154 473.43C979.154 475.568 978.613 477.513 977.532 479.289L979.494 480.483C980.799 478.339 981.451 475.98 981.451 473.43H979.154ZM977.528 479.296C976.474 481.052 975.076 482.45 973.32 483.504L974.501 485.473C976.581 484.226 978.25 482.556 979.498 480.477L977.528 479.296ZM973.32 483.504C971.589 484.542 969.665 485.066 967.518 485.066V487.363C970.06 487.363 972.397 486.736 974.501 485.473L973.32 483.504Z"></path>
<path fill="#FAF6EF" d="M336.536 962.536C338.488 960.583 338.488 957.417 336.536 955.464L304.716 923.645C302.763 921.692 299.597 921.692 297.645 923.645C295.692 925.597 295.692 928.763 297.645 930.716L325.929 959L297.645 987.284C295.692 989.237 295.692 992.403 297.645 994.355C299.597 996.308 302.763 996.308 304.716 994.355L336.536 962.536ZM92 964H333V954H92V964Z"></path>
</svg>
