<svg xmlns="http://www.w3.org/2000/svg" fill="none" viewBox="0 0 1088 1088" height="1088" width="1088">
<rect stroke-width="10" stroke="#FAF6EF" fill="black" height="1078" width="1078" y="5" x="5"></rect>
<mask fill="white" id="path-2-inside-1_396_79">
<path d="M165.263 143.091H184.95V235.903C184.95 244.298 183.288 251.479 179.964 257.445C176.683 263.411 172.06 267.97 166.094 271.124C160.128 274.234 153.139 275.79 145.128 275.79C137.756 275.79 131.129 274.447 125.249 271.763C119.411 269.078 114.787 265.179 111.378 260.065C108.011 254.909 106.328 248.645 106.328 241.273H125.952C125.952 244.895 126.783 248.027 128.445 250.669C130.149 253.311 132.472 255.378 135.412 256.869C138.395 258.318 141.804 259.043 145.639 259.043C149.815 259.043 153.352 258.169 156.25 256.422C159.19 254.632 161.428 252.011 162.962 248.56C164.496 245.108 165.263 240.889 165.263 235.903V143.091ZM253.521 275.982C244.316 275.982 236.284 273.872 229.423 269.653C222.562 265.435 217.235 259.533 213.443 251.947C209.65 244.362 207.754 235.499 207.754 225.357C207.754 215.172 209.65 206.266 213.443 198.638C217.235 191.01 222.562 185.087 229.423 180.868C236.284 176.649 244.316 174.54 253.521 174.54C262.725 174.54 270.758 176.649 277.619 180.868C284.48 185.087 289.806 191.01 293.599 198.638C297.392 206.266 299.288 215.172 299.288 225.357C299.288 235.499 297.392 244.362 293.599 251.947C289.806 259.533 284.48 265.435 277.619 269.653C270.758 273.872 262.725 275.982 253.521 275.982ZM253.585 259.938C259.551 259.938 264.494 258.361 268.414 255.207C272.335 252.054 275.233 247.857 277.108 242.615C279.025 237.374 279.984 231.599 279.984 225.293C279.984 219.028 279.025 213.276 277.108 208.034C275.233 202.75 272.335 198.51 268.414 195.314C264.494 192.118 259.551 190.52 253.585 190.52C247.576 190.52 242.591 192.118 238.627 195.314C234.707 198.51 231.788 202.75 229.87 208.034C227.995 213.276 227.058 219.028 227.058 225.293C227.058 231.599 227.995 237.374 229.87 242.615C231.788 247.857 234.707 252.054 238.627 255.207C242.591 258.361 247.576 259.938 253.585 259.938ZM320.621 274V175.818H339.734V274H320.621ZM330.273 160.669C326.95 160.669 324.094 159.561 321.708 157.345C319.364 155.087 318.192 152.402 318.192 149.291C318.192 146.138 319.364 143.453 321.708 141.237C324.094 138.979 326.95 137.849 330.273 137.849C333.597 137.849 336.431 138.979 338.775 141.237C341.161 143.453 342.354 146.138 342.354 149.291C342.354 152.402 341.161 155.087 338.775 157.345C336.431 159.561 333.597 160.669 330.273 160.669ZM384.558 215.705V274H365.446V175.818H383.791V191.798H385.005C387.264 186.599 390.801 182.423 395.616 179.27C400.474 176.116 406.589 174.54 413.961 174.54C420.652 174.54 426.511 175.946 431.539 178.759C436.568 181.528 440.467 185.662 443.237 191.159C446.007 196.656 447.392 203.453 447.392 211.55V274H428.279V213.851C428.279 206.734 426.426 201.173 422.718 197.168C419.011 193.119 413.919 191.095 407.441 191.095C403.01 191.095 399.068 192.054 395.616 193.972C392.207 195.889 389.501 198.702 387.498 202.409C385.538 206.074 384.558 210.506 384.558 215.705ZM549.233 276.173C543.011 276.173 537.386 275.023 532.358 272.722C527.33 270.378 523.345 266.99 520.405 262.558C517.507 258.126 516.058 252.693 516.058 246.259C516.058 240.719 517.124 236.159 519.254 232.58C521.385 229 524.261 226.166 527.884 224.078C531.506 221.99 535.554 220.413 540.028 219.348C544.503 218.283 549.063 217.473 553.707 216.919C559.588 216.237 564.361 215.683 568.026 215.257C571.69 214.788 574.354 214.043 576.016 213.02C577.678 211.997 578.509 210.335 578.509 208.034V207.587C578.509 202.004 576.932 197.679 573.778 194.611C570.668 191.543 566.023 190.009 559.844 190.009C553.409 190.009 548.338 191.436 544.631 194.291C540.966 197.104 538.43 200.236 537.024 203.688L519.062 199.597C521.193 193.631 524.304 188.815 528.395 185.151C532.528 181.443 537.28 178.759 542.649 177.097C548.018 175.392 553.665 174.54 559.588 174.54C563.509 174.54 567.663 175.009 572.053 175.946C576.484 176.841 580.618 178.503 584.453 180.932C588.331 183.361 591.506 186.834 593.977 191.351C596.449 195.825 597.685 201.642 597.685 208.801V274H579.02V260.577H578.253C577.017 263.048 575.163 265.477 572.692 267.864C570.22 270.25 567.045 272.232 563.168 273.808C559.29 275.385 554.645 276.173 549.233 276.173ZM553.388 260.832C558.672 260.832 563.189 259.788 566.939 257.7C570.732 255.612 573.608 252.885 575.568 249.518C577.571 246.109 578.572 242.466 578.572 238.588V225.932C577.891 226.614 576.57 227.253 574.609 227.849C572.692 228.403 570.497 228.893 568.026 229.32C565.554 229.703 563.146 230.065 560.803 230.406C558.459 230.705 556.499 230.96 554.922 231.173C551.214 231.642 547.827 232.43 544.759 233.538C541.733 234.646 539.304 236.244 537.472 238.332C535.682 240.378 534.787 243.105 534.787 246.514C534.787 251.244 536.534 254.824 540.028 257.253C543.523 259.639 547.976 260.832 553.388 260.832ZM131.96 355.091V486H112.848V355.091H131.96ZM199.988 487.982C190.314 487.982 181.983 485.915 174.995 481.781C168.049 477.605 162.679 471.746 158.887 464.203C155.137 456.618 153.262 447.733 153.262 437.548C153.262 427.491 155.137 418.628 158.887 410.957C162.679 403.287 167.963 397.3 174.739 392.996C181.557 388.692 189.526 386.54 198.645 386.54C204.185 386.54 209.554 387.456 214.753 389.288C219.952 391.121 224.618 393.997 228.752 397.918C232.885 401.838 236.145 406.93 238.532 413.195C240.918 419.416 242.111 426.98 242.111 435.886V442.662H164.064V428.344H223.382C223.382 423.315 222.36 418.862 220.314 414.984C218.269 411.064 215.392 407.974 211.685 405.716C208.02 403.457 203.716 402.328 198.773 402.328C193.404 402.328 188.716 403.649 184.711 406.291C180.748 408.891 177.679 412.3 175.506 416.518C173.375 420.695 172.31 425.233 172.31 430.134V441.32C172.31 447.882 173.461 453.464 175.762 458.067C178.105 462.669 181.365 466.185 185.542 468.614C189.718 471 194.597 472.193 200.179 472.193C203.801 472.193 207.104 471.682 210.087 470.659C213.07 469.594 215.648 468.017 217.821 465.929C219.995 463.841 221.657 461.263 222.807 458.195L240.897 461.455C239.448 466.781 236.848 471.447 233.098 475.453C229.391 479.416 224.725 482.506 219.1 484.722C213.517 486.895 207.147 487.982 199.988 487.982ZM291.889 488.173C285.668 488.173 280.043 487.023 275.014 484.722C269.986 482.378 266.001 478.99 263.061 474.558C260.163 470.126 258.714 464.693 258.714 458.259C258.714 452.719 259.78 448.159 261.911 444.58C264.041 441 266.918 438.166 270.54 436.078C274.162 433.99 278.21 432.413 282.685 431.348C287.159 430.283 291.719 429.473 296.364 428.919C302.244 428.237 307.017 427.683 310.682 427.257C314.347 426.788 317.01 426.043 318.672 425.02C320.334 423.997 321.165 422.335 321.165 420.034V419.587C321.165 414.004 319.588 409.679 316.435 406.611C313.324 403.543 308.679 402.009 302.5 402.009C296.065 402.009 290.994 403.436 287.287 406.291C283.622 409.104 281.087 412.236 279.68 415.688L261.719 411.597C263.849 405.631 266.96 400.815 271.051 397.151C275.185 393.443 279.936 390.759 285.305 389.097C290.675 387.392 296.321 386.54 302.244 386.54C306.165 386.54 310.32 387.009 314.709 387.946C319.141 388.841 323.274 390.503 327.109 392.932C330.987 395.361 334.162 398.834 336.634 403.351C339.105 407.825 340.341 413.642 340.341 420.801V486H321.676V472.577H320.909C319.673 475.048 317.82 477.477 315.348 479.864C312.876 482.25 309.702 484.232 305.824 485.808C301.946 487.385 297.301 488.173 291.889 488.173ZM296.044 472.832C301.328 472.832 305.845 471.788 309.595 469.7C313.388 467.612 316.264 464.885 318.224 461.518C320.227 458.109 321.229 454.466 321.229 450.588V437.932C320.547 438.614 319.226 439.253 317.266 439.849C315.348 440.403 313.153 440.893 310.682 441.32C308.21 441.703 305.803 442.065 303.459 442.406C301.115 442.705 299.155 442.96 297.578 443.173C293.871 443.642 290.483 444.43 287.415 445.538C284.389 446.646 281.96 448.244 280.128 450.332C278.338 452.378 277.443 455.105 277.443 458.514C277.443 463.244 279.19 466.824 282.685 469.253C286.179 471.639 290.632 472.832 296.044 472.832ZM406.962 524.864C399.164 524.864 392.452 523.841 386.827 521.795C381.245 519.75 376.685 517.044 373.148 513.678C369.611 510.311 366.969 506.625 365.222 502.619L381.65 495.844C382.8 497.719 384.334 499.7 386.252 501.788C388.212 503.919 390.854 505.73 394.178 507.222C397.544 508.713 401.87 509.459 407.154 509.459C414.398 509.459 420.385 507.69 425.115 504.153C429.846 500.659 432.211 495.077 432.211 487.406V468.102H430.996C429.846 470.19 428.184 472.513 426.01 475.07C423.88 477.626 420.939 479.842 417.189 481.717C413.439 483.592 408.56 484.53 402.551 484.53C394.796 484.53 387.807 482.719 381.586 479.097C375.407 475.432 370.506 470.041 366.884 462.925C363.304 455.766 361.515 446.966 361.515 436.526C361.515 426.085 363.283 417.136 366.82 409.679C370.4 402.222 375.3 396.511 381.522 392.548C387.743 388.543 394.796 386.54 402.679 386.54C408.773 386.54 413.695 387.562 417.445 389.608C421.195 391.611 424.114 393.955 426.202 396.639C428.333 399.324 429.973 401.689 431.124 403.734H432.53V387.818H451.259V488.173C451.259 496.611 449.299 503.536 445.378 508.947C441.458 514.359 436.152 518.365 429.462 520.964C422.814 523.564 415.314 524.864 406.962 524.864ZM406.77 468.678C412.267 468.678 416.912 467.399 420.705 464.842C424.54 462.243 427.438 458.536 429.398 453.72C431.401 448.862 432.402 443.045 432.402 436.27C432.402 429.665 431.422 423.848 429.462 418.82C427.502 413.791 424.625 409.871 420.833 407.058C417.04 404.203 412.353 402.776 406.77 402.776C401.017 402.776 396.223 404.267 392.388 407.25C388.553 410.19 385.655 414.196 383.695 419.267C381.777 424.338 380.819 430.006 380.819 436.27C380.819 442.705 381.799 448.351 383.759 453.209C385.719 458.067 388.617 461.859 392.452 464.587C396.33 467.314 401.103 468.678 406.77 468.678ZM539.086 445.283V387.818H558.262V486H539.469V468.997H538.446C536.188 474.239 532.566 478.607 527.58 482.101C522.637 485.553 516.479 487.278 509.107 487.278C502.8 487.278 497.218 485.893 492.36 483.124C487.544 480.311 483.752 476.156 480.982 470.659C478.255 465.162 476.891 458.365 476.891 450.268V387.818H496.003V447.967C496.003 454.658 497.857 459.984 501.564 463.947C505.272 467.911 510.087 469.892 516.01 469.892C519.59 469.892 523.148 468.997 526.685 467.207C530.265 465.418 533.226 462.712 535.57 459.089C537.956 455.467 539.128 450.865 539.086 445.283ZM626.257 487.982C616.584 487.982 608.253 485.915 601.264 481.781C594.318 477.605 588.949 471.746 585.156 464.203C581.406 456.618 579.531 447.733 579.531 437.548C579.531 427.491 581.406 418.628 585.156 410.957C588.949 403.287 594.233 397.3 601.009 392.996C607.827 388.692 615.795 386.54 624.915 386.54C630.455 386.54 635.824 387.456 641.023 389.288C646.222 391.121 650.888 393.997 655.021 397.918C659.155 401.838 662.415 406.93 664.801 413.195C667.188 419.416 668.381 426.98 668.381 435.886V442.662H590.334V428.344H649.652C649.652 423.315 648.629 418.862 646.584 414.984C644.538 411.064 641.662 407.974 637.955 405.716C634.29 403.457 629.986 402.328 625.043 402.328C619.673 402.328 614.986 403.649 610.98 406.291C607.017 408.891 603.949 412.3 601.776 416.518C599.645 420.695 598.58 425.233 598.58 430.134V441.32C598.58 447.882 599.73 453.464 602.031 458.067C604.375 462.669 607.635 466.185 611.811 468.614C615.987 471 620.866 472.193 626.449 472.193C630.071 472.193 633.374 471.682 636.357 470.659C639.339 469.594 641.918 468.017 644.091 465.929C646.264 463.841 647.926 461.263 649.077 458.195L667.166 461.455C665.717 466.781 663.118 471.447 659.368 475.453C655.661 479.416 650.994 482.506 645.369 484.722C639.787 486.895 633.416 487.982 626.257 487.982ZM702.179 487.214C698.684 487.214 695.68 485.979 693.166 483.507C690.652 480.993 689.395 477.967 689.395 474.43C689.395 470.936 690.652 467.953 693.166 465.482C695.68 462.967 698.684 461.71 702.179 461.71C705.673 461.71 708.677 462.967 711.191 465.482C713.706 467.953 714.963 470.936 714.963 474.43C714.963 476.774 714.366 478.926 713.173 480.886C712.022 482.804 710.488 484.338 708.571 485.489C706.653 486.639 704.522 487.214 702.179 487.214Z"></path>
</mask>
<path fill="#FAF6EF" d="M165.263 143.091H184.95V235.903C184.95 244.298 183.288 251.479 179.964 257.445C176.683 263.411 172.06 267.97 166.094 271.124C160.128 274.234 153.139 275.79 145.128 275.79C137.756 275.79 131.129 274.447 125.249 271.763C119.411 269.078 114.787 265.179 111.378 260.065C108.011 254.909 106.328 248.645 106.328 241.273H125.952C125.952 244.895 126.783 248.027 128.445 250.669C130.149 253.311 132.472 255.378 135.412 256.869C138.395 258.318 141.804 259.043 145.639 259.043C149.815 259.043 153.352 258.169 156.25 256.422C159.19 254.632 161.428 252.011 162.962 248.56C164.496 245.108 165.263 240.889 165.263 235.903V143.091ZM253.521 275.982C244.316 275.982 236.284 273.872 229.423 269.653C222.562 265.435 217.235 259.533 213.443 251.947C209.65 244.362 207.754 235.499 207.754 225.357C207.754 215.172 209.65 206.266 213.443 198.638C217.235 191.01 222.562 185.087 229.423 180.868C236.284 176.649 244.316 174.54 253.521 174.54C262.725 174.54 270.758 176.649 277.619 180.868C284.48 185.087 289.806 191.01 293.599 198.638C297.392 206.266 299.288 215.172 299.288 225.357C299.288 235.499 297.392 244.362 293.599 251.947C289.806 259.533 284.48 265.435 277.619 269.653C270.758 273.872 262.725 275.982 253.521 275.982ZM253.585 259.938C259.551 259.938 264.494 258.361 268.414 255.207C272.335 252.054 275.233 247.857 277.108 242.615C279.025 237.374 279.984 231.599 279.984 225.293C279.984 219.028 279.025 213.276 277.108 208.034C275.233 202.75 272.335 198.51 268.414 195.314C264.494 192.118 259.551 190.52 253.585 190.52C247.576 190.52 242.591 192.118 238.627 195.314C234.707 198.51 231.788 202.75 229.87 208.034C227.995 213.276 227.058 219.028 227.058 225.293C227.058 231.599 227.995 237.374 229.87 242.615C231.788 247.857 234.707 252.054 238.627 255.207C242.591 258.361 247.576 259.938 253.585 259.938ZM320.621 274V175.818H339.734V274H320.621ZM330.273 160.669C326.95 160.669 324.094 159.561 321.708 157.345C319.364 155.087 318.192 152.402 318.192 149.291C318.192 146.138 319.364 143.453 321.708 141.237C324.094 138.979 326.95 137.849 330.273 137.849C333.597 137.849 336.431 138.979 338.775 141.237C341.161 143.453 342.354 146.138 342.354 149.291C342.354 152.402 341.161 155.087 338.775 157.345C336.431 159.561 333.597 160.669 330.273 160.669ZM384.558 215.705V274H365.446V175.818H383.791V191.798H385.005C387.264 186.599 390.801 182.423 395.616 179.27C400.474 176.116 406.589 174.54 413.961 174.54C420.652 174.54 426.511 175.946 431.539 178.759C436.568 181.528 440.467 185.662 443.237 191.159C446.007 196.656 447.392 203.453 447.392 211.55V274H428.279V213.851C428.279 206.734 426.426 201.173 422.718 197.168C419.011 193.119 413.919 191.095 407.441 191.095C403.01 191.095 399.068 192.054 395.616 193.972C392.207 195.889 389.501 198.702 387.498 202.409C385.538 206.074 384.558 210.506 384.558 215.705ZM549.233 276.173C543.011 276.173 537.386 275.023 532.358 272.722C527.33 270.378 523.345 266.99 520.405 262.558C517.507 258.126 516.058 252.693 516.058 246.259C516.058 240.719 517.124 236.159 519.254 232.58C521.385 229 524.261 226.166 527.884 224.078C531.506 221.99 535.554 220.413 540.028 219.348C544.503 218.283 549.063 217.473 553.707 216.919C559.588 216.237 564.361 215.683 568.026 215.257C571.69 214.788 574.354 214.043 576.016 213.02C577.678 211.997 578.509 210.335 578.509 208.034V207.587C578.509 202.004 576.932 197.679 573.778 194.611C570.668 191.543 566.023 190.009 559.844 190.009C553.409 190.009 548.338 191.436 544.631 194.291C540.966 197.104 538.43 200.236 537.024 203.688L519.062 199.597C521.193 193.631 524.304 188.815 528.395 185.151C532.528 181.443 537.28 178.759 542.649 177.097C548.018 175.392 553.665 174.54 559.588 174.54C563.509 174.54 567.663 175.009 572.053 175.946C576.484 176.841 580.618 178.503 584.453 180.932C588.331 183.361 591.506 186.834 593.977 191.351C596.449 195.825 597.685 201.642 597.685 208.801V274H579.02V260.577H578.253C577.017 263.048 575.163 265.477 572.692 267.864C570.22 270.25 567.045 272.232 563.168 273.808C559.29 275.385 554.645 276.173 549.233 276.173ZM553.388 260.832C558.672 260.832 563.189 259.788 566.939 257.7C570.732 255.612 573.608 252.885 575.568 249.518C577.571 246.109 578.572 242.466 578.572 238.588V225.932C577.891 226.614 576.57 227.253 574.609 227.849C572.692 228.403 570.497 228.893 568.026 229.32C565.554 229.703 563.146 230.065 560.803 230.406C558.459 230.705 556.499 230.96 554.922 231.173C551.214 231.642 547.827 232.43 544.759 233.538C541.733 234.646 539.304 236.244 537.472 238.332C535.682 240.378 534.787 243.105 534.787 246.514C534.787 251.244 536.534 254.824 540.028 257.253C543.523 259.639 547.976 260.832 553.388 260.832ZM131.96 355.091V486H112.848V355.091H131.96ZM199.988 487.982C190.314 487.982 181.983 485.915 174.995 481.781C168.049 477.605 162.679 471.746 158.887 464.203C155.137 456.618 153.262 447.733 153.262 437.548C153.262 427.491 155.137 418.628 158.887 410.957C162.679 403.287 167.963 397.3 174.739 392.996C181.557 388.692 189.526 386.54 198.645 386.54C204.185 386.54 209.554 387.456 214.753 389.288C219.952 391.121 224.618 393.997 228.752 397.918C232.885 401.838 236.145 406.93 238.532 413.195C240.918 419.416 242.111 426.98 242.111 435.886V442.662H164.064V428.344H223.382C223.382 423.315 222.36 418.862 220.314 414.984C218.269 411.064 215.392 407.974 211.685 405.716C208.02 403.457 203.716 402.328 198.773 402.328C193.404 402.328 188.716 403.649 184.711 406.291C180.748 408.891 177.679 412.3 175.506 416.518C173.375 420.695 172.31 425.233 172.31 430.134V441.32C172.31 447.882 173.461 453.464 175.762 458.067C178.105 462.669 181.365 466.185 185.542 468.614C189.718 471 194.597 472.193 200.179 472.193C203.801 472.193 207.104 471.682 210.087 470.659C213.07 469.594 215.648 468.017 217.821 465.929C219.995 463.841 221.657 461.263 222.807 458.195L240.897 461.455C239.448 466.781 236.848 471.447 233.098 475.453C229.391 479.416 224.725 482.506 219.1 484.722C213.517 486.895 207.147 487.982 199.988 487.982ZM291.889 488.173C285.668 488.173 280.043 487.023 275.014 484.722C269.986 482.378 266.001 478.99 263.061 474.558C260.163 470.126 258.714 464.693 258.714 458.259C258.714 452.719 259.78 448.159 261.911 444.58C264.041 441 266.918 438.166 270.54 436.078C274.162 433.99 278.21 432.413 282.685 431.348C287.159 430.283 291.719 429.473 296.364 428.919C302.244 428.237 307.017 427.683 310.682 427.257C314.347 426.788 317.01 426.043 318.672 425.02C320.334 423.997 321.165 422.335 321.165 420.034V419.587C321.165 414.004 319.588 409.679 316.435 406.611C313.324 403.543 308.679 402.009 302.5 402.009C296.065 402.009 290.994 403.436 287.287 406.291C283.622 409.104 281.087 412.236 279.68 415.688L261.719 411.597C263.849 405.631 266.96 400.815 271.051 397.151C275.185 393.443 279.936 390.759 285.305 389.097C290.675 387.392 296.321 386.54 302.244 386.54C306.165 386.54 310.32 387.009 314.709 387.946C319.141 388.841 323.274 390.503 327.109 392.932C330.987 395.361 334.162 398.834 336.634 403.351C339.105 407.825 340.341 413.642 340.341 420.801V486H321.676V472.577H320.909C319.673 475.048 317.82 477.477 315.348 479.864C312.876 482.25 309.702 484.232 305.824 485.808C301.946 487.385 297.301 488.173 291.889 488.173ZM296.044 472.832C301.328 472.832 305.845 471.788 309.595 469.7C313.388 467.612 316.264 464.885 318.224 461.518C320.227 458.109 321.229 454.466 321.229 450.588V437.932C320.547 438.614 319.226 439.253 317.266 439.849C315.348 440.403 313.153 440.893 310.682 441.32C308.21 441.703 305.803 442.065 303.459 442.406C301.115 442.705 299.155 442.96 297.578 443.173C293.871 443.642 290.483 444.43 287.415 445.538C284.389 446.646 281.96 448.244 280.128 450.332C278.338 452.378 277.443 455.105 277.443 458.514C277.443 463.244 279.19 466.824 282.685 469.253C286.179 471.639 290.632 472.832 296.044 472.832ZM406.962 524.864C399.164 524.864 392.452 523.841 386.827 521.795C381.245 519.75 376.685 517.044 373.148 513.678C369.611 510.311 366.969 506.625 365.222 502.619L381.65 495.844C382.8 497.719 384.334 499.7 386.252 501.788C388.212 503.919 390.854 505.73 394.178 507.222C397.544 508.713 401.87 509.459 407.154 509.459C414.398 509.459 420.385 507.69 425.115 504.153C429.846 500.659 432.211 495.077 432.211 487.406V468.102H430.996C429.846 470.19 428.184 472.513 426.01 475.07C423.88 477.626 420.939 479.842 417.189 481.717C413.439 483.592 408.56 484.53 402.551 484.53C394.796 484.53 387.807 482.719 381.586 479.097C375.407 475.432 370.506 470.041 366.884 462.925C363.304 455.766 361.515 446.966 361.515 436.526C361.515 426.085 363.283 417.136 366.82 409.679C370.4 402.222 375.3 396.511 381.522 392.548C387.743 388.543 394.796 386.54 402.679 386.54C408.773 386.54 413.695 387.562 417.445 389.608C421.195 391.611 424.114 393.955 426.202 396.639C428.333 399.324 429.973 401.689 431.124 403.734H432.53V387.818H451.259V488.173C451.259 496.611 449.299 503.536 445.378 508.947C441.458 514.359 436.152 518.365 429.462 520.964C422.814 523.564 415.314 524.864 406.962 524.864ZM406.77 468.678C412.267 468.678 416.912 467.399 420.705 464.842C424.54 462.243 427.438 458.536 429.398 453.72C431.401 448.862 432.402 443.045 432.402 436.27C432.402 429.665 431.422 423.848 429.462 418.82C427.502 413.791 424.625 409.871 420.833 407.058C417.04 404.203 412.353 402.776 406.77 402.776C401.017 402.776 396.223 404.267 392.388 407.25C388.553 410.19 385.655 414.196 383.695 419.267C381.777 424.338 380.819 430.006 380.819 436.27C380.819 442.705 381.799 448.351 383.759 453.209C385.719 458.067 388.617 461.859 392.452 464.587C396.33 467.314 401.103 468.678 406.77 468.678ZM539.086 445.283V387.818H558.262V486H539.469V468.997H538.446C536.188 474.239 532.566 478.607 527.58 482.101C522.637 485.553 516.479 487.278 509.107 487.278C502.8 487.278 497.218 485.893 492.36 483.124C487.544 480.311 483.752 476.156 480.982 470.659C478.255 465.162 476.891 458.365 476.891 450.268V387.818H496.003V447.967C496.003 454.658 497.857 459.984 501.564 463.947C505.272 467.911 510.087 469.892 516.01 469.892C519.59 469.892 523.148 468.997 526.685 467.207C530.265 465.418 533.226 462.712 535.57 459.089C537.956 455.467 539.128 450.865 539.086 445.283ZM626.257 487.982C616.584 487.982 608.253 485.915 601.264 481.781C594.318 477.605 588.949 471.746 585.156 464.203C581.406 456.618 579.531 447.733 579.531 437.548C579.531 427.491 581.406 418.628 585.156 410.957C588.949 403.287 594.233 397.3 601.009 392.996C607.827 388.692 615.795 386.54 624.915 386.54C630.455 386.54 635.824 387.456 641.023 389.288C646.222 391.121 650.888 393.997 655.021 397.918C659.155 401.838 662.415 406.93 664.801 413.195C667.188 419.416 668.381 426.98 668.381 435.886V442.662H590.334V428.344H649.652C649.652 423.315 648.629 418.862 646.584 414.984C644.538 411.064 641.662 407.974 637.955 405.716C634.29 403.457 629.986 402.328 625.043 402.328C619.673 402.328 614.986 403.649 610.98 406.291C607.017 408.891 603.949 412.3 601.776 416.518C599.645 420.695 598.58 425.233 598.58 430.134V441.32C598.58 447.882 599.73 453.464 602.031 458.067C604.375 462.669 607.635 466.185 611.811 468.614C615.987 471 620.866 472.193 626.449 472.193C630.071 472.193 633.374 471.682 636.357 470.659C639.339 469.594 641.918 468.017 644.091 465.929C646.264 463.841 647.926 461.263 649.077 458.195L667.166 461.455C665.717 466.781 663.118 471.447 659.368 475.453C655.661 479.416 650.994 482.506 645.369 484.722C639.787 486.895 633.416 487.982 626.257 487.982ZM702.179 487.214C698.684 487.214 695.68 485.979 693.166 483.507C690.652 480.993 689.395 477.967 689.395 474.43C689.395 470.936 690.652 467.953 693.166 465.482C695.68 462.967 698.684 461.71 702.179 461.71C705.673 461.71 708.677 462.967 711.191 465.482C713.706 467.953 714.963 470.936 714.963 474.43C714.963 476.774 714.366 478.926 713.173 480.886C712.022 482.804 710.488 484.338 708.571 485.489C706.653 486.639 704.522 487.214 702.179 487.214Z"></path>
<path mask="url(#path-2-inside-1_396_79)" fill="#FAF6EF" d="M165.263 143.091V141.943H164.114V143.091H165.263ZM184.95 143.091H186.099V141.943H184.95V143.091ZM179.964 257.445L178.961 256.886L178.958 256.891L179.964 257.445ZM166.094 271.124L166.625 272.142L166.63 272.139L166.094 271.124ZM125.249 271.763L124.769 272.806L124.772 272.807L125.249 271.763ZM111.378 260.065L110.416 260.693L110.422 260.702L111.378 260.065ZM106.328 241.273V240.124H105.18V241.273H106.328ZM125.952 241.273H127.1V240.124H125.952V241.273ZM128.445 250.669L127.472 251.281L127.48 251.292L128.445 250.669ZM135.412 256.869L134.892 257.893L134.901 257.898L134.91 257.902L135.412 256.869ZM156.25 256.422L156.843 257.405L156.847 257.403L156.25 256.422ZM162.962 248.56L161.912 248.093L161.912 248.093L162.962 248.56ZM165.263 144.239H184.95V141.943H165.263V144.239ZM183.802 143.091V235.903H186.099V143.091H183.802ZM183.802 235.903C183.802 244.147 182.17 251.126 178.961 256.886L180.968 258.004C184.406 251.832 186.099 244.45 186.099 235.903H183.802ZM178.958 256.891C175.784 262.662 171.323 267.061 165.557 270.108L166.63 272.139C172.796 268.88 177.582 264.159 180.971 257.998L178.958 256.891ZM165.563 270.105C159.789 273.116 152.989 274.641 145.128 274.641V276.938C153.289 276.938 160.466 275.353 166.625 272.142L165.563 270.105ZM145.128 274.641C137.897 274.641 131.437 273.325 125.725 270.718L124.772 272.807C130.822 275.569 137.614 276.938 145.128 276.938V274.641ZM125.728 270.719C120.074 268.119 115.619 264.357 112.333 259.428L110.422 260.702C113.955 266.001 118.747 270.037 124.769 272.806L125.728 270.719ZM112.339 259.438C109.117 254.502 107.477 248.466 107.477 241.273H105.18C105.18 248.823 106.906 255.316 110.416 260.693L112.339 259.438ZM106.328 242.421H125.952V240.124H106.328V242.421ZM124.803 241.273C124.803 245.076 125.678 248.427 127.473 251.28L129.417 250.058C127.887 247.626 127.1 244.714 127.1 241.273H124.803ZM127.48 251.292C129.3 254.113 131.78 256.315 134.892 257.893L135.931 255.845C133.163 254.441 130.998 252.509 129.41 250.046L127.48 251.292ZM134.91 257.902C138.072 259.438 141.657 260.191 145.639 260.191V257.894C141.951 257.894 138.718 257.198 135.914 255.836L134.91 257.902ZM145.639 260.191C149.976 260.191 153.729 259.283 156.843 257.405L155.657 255.438C152.976 257.055 149.655 257.894 145.639 257.894V260.191ZM156.847 257.403C160.006 255.48 162.392 252.67 164.011 249.026L161.912 248.093C160.463 251.353 158.374 253.784 155.653 255.441L156.847 257.403ZM164.011 249.026C165.628 245.389 166.411 241.001 166.411 235.903H164.114C164.114 240.777 163.364 244.827 161.912 248.093L164.011 249.026ZM166.411 235.903V143.091H164.114V235.903H166.411ZM213.443 251.947L214.47 251.434L213.443 251.947ZM229.423 180.868L230.024 181.846L230.024 181.846L229.423 180.868ZM277.619 180.868L277.017 181.846L277.017 181.846L277.619 180.868ZM293.599 251.947L292.572 251.434L293.599 251.947ZM277.619 269.653L278.22 270.632L278.22 270.632L277.619 269.653ZM268.414 255.207L267.695 254.313L267.695 254.313L268.414 255.207ZM277.108 242.615L276.029 242.22L276.026 242.228L277.108 242.615ZM277.108 208.034L276.025 208.418L276.029 208.429L277.108 208.034ZM268.414 195.314L267.689 196.204L267.689 196.204L268.414 195.314ZM238.627 195.314L237.907 194.42L237.902 194.424L238.627 195.314ZM229.87 208.034L228.791 207.642L228.789 207.647L229.87 208.034ZM229.87 242.615L228.789 243.002L228.792 243.01L229.87 242.615ZM238.627 255.207L237.908 256.102L237.912 256.106L238.627 255.207ZM253.521 274.833C244.498 274.833 236.68 272.767 230.024 268.675L228.821 270.632C235.888 274.977 244.135 277.13 253.521 277.13V274.833ZM230.024 268.675C223.356 264.575 218.172 258.838 214.47 251.434L212.416 252.461C216.299 260.227 221.768 266.295 228.821 270.632L230.024 268.675ZM214.47 251.434C210.771 244.036 208.902 235.355 208.902 225.357H206.606C206.606 235.642 208.529 244.688 212.416 252.461L214.47 251.434ZM208.902 225.357C208.902 215.315 210.771 206.59 214.471 199.149L212.415 198.127C208.529 205.941 206.606 215.029 206.606 225.357H208.902ZM214.471 199.149C218.174 191.702 223.358 185.946 230.024 181.846L228.821 179.89C221.767 184.228 216.297 190.318 212.415 198.127L214.471 199.149ZM230.024 181.846C236.68 177.754 244.498 175.688 253.521 175.688V173.391C244.135 173.391 235.888 175.544 228.821 179.89L230.024 181.846ZM253.521 175.688C262.544 175.688 270.362 177.754 277.017 181.846L278.22 179.89C271.154 175.544 262.907 173.391 253.521 173.391V175.688ZM277.017 181.846C283.684 185.946 288.868 191.702 292.571 199.149L294.627 198.127C290.745 190.318 285.275 184.228 278.22 179.89L277.017 181.846ZM292.571 199.149C296.27 206.59 298.14 215.315 298.14 225.357H300.436C300.436 215.029 298.513 205.941 294.627 198.127L292.571 199.149ZM298.14 225.357C298.14 235.355 296.271 244.036 292.572 251.434L294.626 252.461C298.513 244.688 300.436 235.642 300.436 225.357H298.14ZM292.572 251.434C288.87 258.838 283.686 264.575 277.017 268.675L278.22 270.632C285.274 266.295 290.743 260.227 294.626 252.461L292.572 251.434ZM277.017 268.675C270.362 272.767 262.544 274.833 253.521 274.833V277.13C262.907 277.13 271.154 274.977 278.22 270.632L277.017 268.675ZM253.585 261.086C259.762 261.086 264.973 259.449 269.134 256.102L267.695 254.313C264.014 257.273 259.34 258.789 253.585 258.789V261.086ZM269.134 256.102C273.237 252.802 276.25 248.421 278.189 243.002L276.026 242.228C274.215 247.292 271.433 251.306 267.695 254.313L269.134 256.102ZM278.186 243.01C280.156 237.626 281.132 231.717 281.132 225.293H278.836C278.836 231.482 277.895 237.121 276.029 242.22L278.186 243.01ZM281.132 225.293C281.132 218.91 280.155 213.022 278.186 207.64L276.029 208.429C277.895 213.529 278.836 219.147 278.836 225.293H281.132ZM278.19 207.65C276.252 202.19 273.241 197.767 269.14 194.424L267.689 196.204C271.429 199.253 274.213 203.31 276.025 208.418L278.19 207.65ZM269.14 194.424C264.979 191.032 259.766 189.372 253.585 189.372V191.668C259.336 191.668 264.009 193.204 267.689 196.204L269.14 194.424ZM253.585 189.372C247.363 189.372 242.109 191.031 237.907 194.42L239.348 196.208C243.072 193.205 247.789 191.668 253.585 191.668V189.372ZM237.902 194.424C233.803 197.765 230.771 202.186 228.791 207.642L230.95 208.426C232.805 203.314 235.611 199.255 239.353 196.204L237.902 194.424ZM228.789 207.647C226.865 213.027 225.91 218.913 225.91 225.293H228.206C228.206 219.144 229.126 213.524 230.952 208.421L228.789 207.647ZM225.91 225.293C225.91 231.714 226.864 237.621 228.789 243.002L230.952 242.228C229.127 237.126 228.206 231.485 228.206 225.293H225.91ZM228.792 243.01C230.773 248.425 233.807 252.804 237.908 256.102L239.347 254.313C235.607 251.304 232.803 247.288 230.949 242.22L228.792 243.01ZM237.912 256.106C242.115 259.45 247.367 261.086 253.585 261.086V258.789C247.786 258.789 243.066 257.272 239.343 254.309L237.912 256.106ZM320.621 274H319.473V275.148H320.621V274ZM320.621 175.818V174.67H319.473V175.818H320.621ZM339.734 175.818H340.882V174.67H339.734V175.818ZM339.734 274V275.148H340.882V274H339.734ZM321.708 157.345L320.911 158.172L320.919 158.179L320.927 158.187L321.708 157.345ZM321.708 141.237L322.497 142.072L322.497 142.071L321.708 141.237ZM338.775 141.237L337.978 142.064L337.986 142.072L337.993 142.079L338.775 141.237ZM338.775 157.345L339.564 158.18L339.564 158.179L338.775 157.345ZM321.77 274V175.818H319.473V274H321.77ZM320.621 176.967H339.734V174.67H320.621V176.967ZM338.585 175.818V274H340.882V175.818H338.585ZM339.734 272.852H320.621V275.148H339.734V272.852ZM330.273 159.521C327.233 159.521 324.659 158.518 322.49 156.504L320.927 158.187C323.53 160.604 326.666 161.817 330.273 161.817V159.521ZM322.505 156.518C320.374 154.465 319.341 152.074 319.341 149.291H317.044C317.044 152.73 318.355 155.708 320.911 158.172L322.505 156.518ZM319.341 149.291C319.341 146.462 320.377 144.076 322.497 142.072L320.919 140.403C318.352 142.83 317.044 145.814 317.044 149.291H319.341ZM322.497 142.071C324.668 140.017 327.239 138.998 330.273 138.998V136.701C326.66 136.701 323.521 137.94 320.919 140.403L322.497 142.071ZM330.273 138.998C333.307 138.998 335.853 140.017 337.978 142.064L339.572 140.41C337.009 137.941 333.887 136.701 330.273 136.701V138.998ZM337.993 142.079C340.154 144.085 341.206 146.469 341.206 149.291H343.503C343.503 145.807 342.168 142.821 339.556 140.396L337.993 142.079ZM341.206 149.291C341.206 152.067 340.157 154.456 337.985 156.511L339.564 158.179C342.165 155.717 343.503 152.737 343.503 149.291H341.206ZM337.986 156.511C335.862 158.518 333.314 159.521 330.273 159.521V161.817C333.881 161.817 337 160.604 339.564 158.18L337.986 156.511ZM384.558 274V275.148H385.706V274H384.558ZM365.446 274H364.297V275.148H365.446V274ZM365.446 175.818V174.67H364.297V175.818H365.446ZM383.791 175.818H384.939V174.67H383.791V175.818ZM383.791 191.798H382.642V192.947H383.791V191.798ZM385.005 191.798V192.947H385.759L386.059 192.256L385.005 191.798ZM395.616 179.27L394.991 178.307L394.987 178.309L395.616 179.27ZM431.539 178.759L430.979 179.761L430.985 179.764L431.539 178.759ZM443.237 191.159L442.211 191.676L442.211 191.676L443.237 191.159ZM447.392 274V275.148H448.54V274H447.392ZM428.279 274H427.131V275.148H428.279V274ZM422.718 197.168L421.871 197.943L421.876 197.948L422.718 197.168ZM395.616 193.972L395.058 192.968L395.053 192.971L395.616 193.972ZM387.498 202.409L386.488 201.863L386.486 201.867L387.498 202.409ZM383.41 215.705V274H385.706V215.705H383.41ZM384.558 272.852H365.446V275.148H384.558V272.852ZM366.594 274V175.818H364.297V274H366.594ZM365.446 176.967H383.791V174.67H365.446V176.967ZM382.642 175.818V191.798H384.939V175.818H382.642ZM383.791 192.947H385.005V190.65H383.791V192.947ZM386.059 192.256C388.226 187.266 391.614 183.263 396.245 180.231L394.987 178.309C389.987 181.583 386.301 185.933 383.952 191.341L386.059 192.256ZM396.241 180.233C400.868 177.23 406.751 175.688 413.961 175.688V173.391C406.427 173.391 400.08 175.003 394.991 178.307L396.241 180.233ZM413.961 175.688C420.487 175.688 426.148 177.059 430.979 179.761L432.1 177.756C426.874 174.833 420.816 173.391 413.961 173.391V175.688ZM430.985 179.764C435.796 182.414 439.538 186.37 442.211 191.676L444.262 190.642C441.396 184.954 437.34 180.643 432.093 177.753L430.985 179.764ZM442.211 191.676C444.879 196.97 446.243 203.578 446.243 211.55H448.54C448.54 203.328 447.134 196.342 444.262 190.642L442.211 191.676ZM446.243 211.55V274H448.54V211.55H446.243ZM447.392 272.852H428.279V275.148H447.392V272.852ZM429.428 274V213.851H427.131V274H429.428ZM429.428 213.851C429.428 206.536 427.519 200.664 423.561 196.388L421.876 197.948C425.333 201.683 427.131 206.933 427.131 213.851H429.428ZM423.565 196.392C419.601 192.063 414.178 189.947 407.441 189.947V192.244C413.66 192.244 418.421 194.175 421.871 197.943L423.565 196.392ZM407.441 189.947C402.839 189.947 398.701 190.944 395.058 192.968L396.174 194.975C399.435 193.164 403.18 192.244 407.441 192.244V189.947ZM395.053 192.971C391.44 195.003 388.586 197.98 386.488 201.863L388.509 202.955C390.417 199.423 392.974 196.775 396.179 194.972L395.053 192.971ZM386.486 201.867C384.417 205.736 383.41 210.363 383.41 215.705H385.706C385.706 210.648 386.659 206.412 388.511 202.951L386.486 201.867ZM532.358 272.722L531.873 273.762L531.88 273.766L532.358 272.722ZM520.405 262.558L519.444 263.187L519.448 263.193L520.405 262.558ZM519.254 232.58L520.241 233.167L520.241 233.167L519.254 232.58ZM527.884 224.078L528.457 225.073L528.457 225.073L527.884 224.078ZM553.707 216.919L553.575 215.778L553.571 215.779L553.707 216.919ZM568.026 215.257L568.158 216.398L568.171 216.396L568.026 215.257ZM576.016 213.02L576.617 213.998L576.617 213.998L576.016 213.02ZM573.778 194.611L572.972 195.428L572.978 195.434L573.778 194.611ZM544.631 194.291L545.33 195.202L545.331 195.201L544.631 194.291ZM537.024 203.688L536.769 204.807L537.72 205.024L538.088 204.121L537.024 203.688ZM519.062 199.597L517.981 199.21L517.546 200.429L518.807 200.716L519.062 199.597ZM528.395 185.151L529.161 186.006L529.162 186.005L528.395 185.151ZM542.649 177.097L542.989 178.194L542.997 178.191L542.649 177.097ZM572.053 175.946L571.813 177.069L571.825 177.072L572.053 175.946ZM584.453 180.932L583.839 181.902L583.844 181.905L584.453 180.932ZM593.977 191.351L592.97 191.902L592.972 191.906L593.977 191.351ZM597.685 274V275.148H598.833V274H597.685ZM579.02 274H577.872V275.148H579.02V274ZM579.02 260.577H580.168V259.428H579.02V260.577ZM578.253 260.577V259.428H577.543L577.226 260.063L578.253 260.577ZM572.692 267.864L571.894 267.037L571.894 267.037L572.692 267.864ZM563.168 273.808L562.735 272.744L563.168 273.808ZM566.939 257.7L566.385 256.694L566.38 256.697L566.939 257.7ZM575.568 249.518L574.578 248.937L574.576 248.941L575.568 249.518ZM578.572 225.932H579.721V223.159L577.76 225.12L578.572 225.932ZM574.609 227.849L574.928 228.953L574.936 228.95L574.944 228.948L574.609 227.849ZM568.026 229.32L568.202 230.454L568.211 230.453L568.221 230.451L568.026 229.32ZM560.803 230.406L560.948 231.545L560.958 231.544L560.968 231.543L560.803 230.406ZM554.922 231.173L555.066 232.313L555.076 232.311L554.922 231.173ZM544.759 233.538L544.368 232.458L544.364 232.46L544.759 233.538ZM537.472 238.332L536.608 237.575L536.607 237.576L537.472 238.332ZM540.028 257.253L539.373 258.196L539.381 258.201L540.028 257.253ZM549.233 275.025C543.156 275.025 537.697 273.902 532.836 271.677L531.88 273.766C537.076 276.144 542.867 277.322 549.233 277.322V275.025ZM532.843 271.681C527.998 269.422 524.18 266.171 521.362 261.923L519.448 263.193C522.51 267.809 526.661 271.333 531.873 273.762L532.843 271.681ZM521.366 261.93C518.614 257.722 517.207 252.518 517.207 246.259H514.91C514.91 252.868 516.4 258.531 519.444 263.187L521.366 261.93ZM517.207 246.259C517.207 240.859 518.246 236.519 520.241 233.167L518.267 231.992C516.002 235.799 514.91 240.578 514.91 246.259H517.207ZM520.241 233.167C522.271 229.757 525.005 227.063 528.457 225.073L527.31 223.083C523.518 225.269 520.499 228.243 518.267 231.992L520.241 233.167ZM528.457 225.073C531.974 223.046 535.917 221.507 540.294 220.465L539.762 218.231C535.191 219.319 531.037 220.935 527.31 223.083L528.457 225.073ZM540.294 220.465C544.725 219.41 549.241 218.608 553.843 218.059L553.571 215.779C548.884 216.338 544.28 217.155 539.762 218.231L540.294 220.465ZM553.84 218.06C559.72 217.378 564.493 216.824 568.158 216.398L567.893 214.116C564.228 214.543 559.456 215.096 553.575 215.778L553.84 218.06ZM568.171 216.396C571.879 215.922 574.742 215.152 576.617 213.998L575.414 212.042C573.966 212.933 571.502 213.655 567.88 214.118L568.171 216.396ZM576.617 213.998C578.685 212.726 579.657 210.65 579.657 208.034H577.36C577.36 210.02 576.67 211.269 575.414 212.042L576.617 213.998ZM579.657 208.034V207.587H577.36V208.034H579.657ZM579.657 207.587C579.657 201.782 578.011 197.127 574.579 193.788L572.978 195.434C575.853 198.231 577.36 202.226 577.36 207.587H579.657ZM574.585 193.793C571.184 190.438 566.198 188.86 559.844 188.86V191.157C565.847 191.157 570.152 192.647 572.972 195.428L574.585 193.793ZM559.844 188.86C553.249 188.86 547.902 190.323 543.93 193.381L545.331 195.201C548.775 192.549 553.569 191.157 559.844 191.157V188.86ZM543.932 193.38C540.143 196.287 537.46 199.573 535.961 203.254L538.088 204.121C539.401 200.898 541.788 197.92 545.33 195.202L543.932 193.38ZM537.279 202.568L519.318 198.477L518.807 200.716L536.769 204.807L537.279 202.568ZM520.144 199.983C522.22 194.169 525.233 189.525 529.161 186.006L527.629 184.295C523.375 188.106 520.166 193.092 517.981 199.21L520.144 199.983ZM529.162 186.005C533.17 182.41 537.776 179.807 542.989 178.194L542.31 176C536.784 177.71 531.886 180.476 527.628 184.296L529.162 186.005ZM542.997 178.191C548.248 176.524 553.777 175.688 559.588 175.688V173.391C553.553 173.391 547.789 174.26 542.302 176.002L542.997 178.191ZM559.588 175.688C563.417 175.688 567.491 176.146 571.813 177.069L572.292 174.823C567.835 173.871 563.6 173.391 559.588 173.391V175.688ZM571.825 177.072C576.119 177.939 580.121 179.548 583.839 181.902L585.068 179.962C581.114 177.458 576.85 175.743 572.28 174.82L571.825 177.072ZM583.844 181.905C587.535 184.217 590.581 187.535 592.97 191.902L594.985 190.8C592.431 186.132 589.127 182.504 585.063 179.959L583.844 181.905ZM592.972 191.906C595.32 196.156 596.536 201.763 596.536 208.801H598.833C598.833 201.521 597.578 195.495 594.982 190.796L592.972 191.906ZM596.536 208.801V274H598.833V208.801H596.536ZM597.685 272.852H579.02V275.148H597.685V272.852ZM580.168 274V260.577H577.872V274H580.168ZM579.02 259.428H578.253V261.725H579.02V259.428ZM577.226 260.063C576.06 262.394 574.294 264.72 571.894 267.037L573.489 268.69C576.033 266.234 577.974 263.703 579.28 261.09L577.226 260.063ZM571.894 267.037C569.548 269.302 566.506 271.211 562.735 272.744L563.6 274.872C567.585 273.252 570.892 271.198 573.489 268.69L571.894 267.037ZM562.735 272.744C559.028 274.252 554.538 275.025 549.233 275.025V277.322C554.752 277.322 559.551 276.518 563.6 274.872L562.735 272.744ZM553.388 261.981C558.823 261.981 563.542 260.906 567.498 258.704L566.38 256.697C562.836 258.67 558.521 259.684 553.388 259.684V261.981ZM567.493 258.706C571.447 256.529 574.484 253.662 576.561 250.096L574.576 248.941C572.732 252.108 570.016 254.695 566.385 256.694L567.493 258.706ZM576.558 250.1C578.663 246.518 579.721 242.675 579.721 238.588H577.424C577.424 242.257 576.479 245.7 574.578 248.937L576.558 250.1ZM579.721 238.588V225.932H577.424V238.588H579.721ZM577.76 225.12C577.294 225.586 576.215 226.161 574.275 226.751L574.944 228.948C576.925 228.345 578.487 227.641 579.384 226.744L577.76 225.12ZM574.291 226.746C572.422 227.286 570.27 227.767 567.83 228.188L568.221 230.451C570.724 230.02 572.961 229.521 574.928 228.953L574.291 226.746ZM567.849 228.185C565.381 228.568 562.977 228.929 560.637 229.27L560.968 231.543C563.315 231.201 565.727 230.838 568.202 230.454L567.849 228.185ZM560.658 229.267C558.312 229.566 556.349 229.822 554.768 230.035L555.076 232.311C556.648 232.099 558.605 231.844 560.948 231.545L560.658 229.267ZM554.778 230.034C550.998 230.512 547.527 231.318 544.368 232.458L545.149 234.618C548.127 233.543 551.431 232.772 555.066 232.313L554.778 230.034ZM544.364 232.46C541.187 233.623 538.587 235.321 536.608 237.575L538.335 239.09C540.021 237.168 542.279 235.669 545.153 234.617L544.364 232.46ZM536.607 237.576C534.591 239.88 533.639 242.9 533.639 246.514H535.935C535.935 243.31 536.772 240.876 538.336 239.089L536.607 237.576ZM533.639 246.514C533.639 251.571 535.532 255.526 539.373 258.196L540.684 256.31C537.536 254.122 535.935 250.917 535.935 246.514H533.639ZM539.381 258.201C543.113 260.75 547.809 261.981 553.388 261.981V259.684C548.143 259.684 543.933 258.528 540.676 256.305L539.381 258.201ZM131.96 355.091H133.109V353.943H131.96V355.091ZM131.96 486V487.148H133.109V486H131.96ZM112.848 486H111.7V487.148H112.848V486ZM112.848 355.091V353.943H111.7V355.091H112.848ZM130.812 355.091V486H133.109V355.091H130.812ZM131.96 484.852H112.848V487.148H131.96V484.852ZM113.996 486V355.091H111.7V486H113.996ZM112.848 356.239H131.96V353.943H112.848V356.239ZM174.995 481.781L174.403 482.765L174.41 482.77L174.995 481.781ZM158.887 464.203L157.857 464.712L157.861 464.719L158.887 464.203ZM158.887 410.957L157.857 410.448L157.855 410.453L158.887 410.957ZM174.739 392.996L174.126 392.025L174.123 392.026L174.739 392.996ZM214.753 389.288L215.135 388.205L215.135 388.205L214.753 389.288ZM228.752 397.918L227.962 398.751L227.962 398.751L228.752 397.918ZM238.532 413.195L237.458 413.603L237.459 413.606L238.532 413.195ZM242.111 442.662V443.81H243.26V442.662H242.111ZM164.064 442.662H162.916V443.81H164.064V442.662ZM164.064 428.344V427.195H162.916V428.344H164.064ZM223.382 428.344V429.492H224.531V428.344H223.382ZM220.314 414.984L219.296 415.516L219.299 415.52L220.314 414.984ZM211.685 405.716L211.083 406.694L211.088 406.697L211.685 405.716ZM184.711 406.291L185.34 407.251L185.343 407.25L184.711 406.291ZM175.506 416.518L174.485 415.993L174.483 415.997L175.506 416.518ZM175.762 458.067L174.735 458.58L174.738 458.588L175.762 458.067ZM185.542 468.614L184.964 469.606L184.972 469.611L185.542 468.614ZM210.087 470.659L210.459 471.745L210.466 471.743L210.473 471.741L210.087 470.659ZM217.821 465.929L217.026 465.101L217.026 465.101L217.821 465.929ZM222.807 458.195L223.011 457.064L222.068 456.895L221.732 457.791L222.807 458.195ZM240.897 461.455L242.005 461.756L242.334 460.547L241.1 460.324L240.897 461.455ZM233.098 475.453L232.26 474.668L232.26 474.669L233.098 475.453ZM219.1 484.722L219.516 485.792L219.521 485.79L219.1 484.722ZM199.988 486.833C190.48 486.833 182.36 484.803 175.579 480.793L174.41 482.77C181.607 487.026 190.148 489.13 199.988 489.13V486.833ZM175.586 480.797C168.834 476.738 163.612 471.044 159.913 463.687L157.861 464.719C161.747 472.447 167.263 478.473 174.403 482.765L175.586 480.797ZM159.916 463.694C156.259 456.296 154.41 447.592 154.41 437.548H152.113C152.113 447.874 154.015 456.94 157.857 464.712L159.916 463.694ZM154.41 437.548C154.41 427.635 156.258 418.95 159.918 411.462L157.855 410.453C154.016 418.306 152.113 427.348 152.113 437.548H154.41ZM159.916 411.466C163.622 403.971 168.768 398.149 175.355 393.965L174.123 392.026C167.158 396.451 161.737 402.602 157.857 410.448L159.916 411.466ZM175.352 393.967C181.963 389.793 189.714 387.688 198.645 387.688V385.391C189.338 385.391 181.151 387.59 174.126 392.025L175.352 393.967ZM198.645 387.688C204.056 387.688 209.296 388.582 214.371 390.371L215.135 388.205C209.813 386.329 204.314 385.391 198.645 385.391V387.688ZM214.371 390.371C219.413 392.148 223.941 394.938 227.962 398.751L229.542 397.084C225.295 393.057 220.491 390.093 215.135 388.205L214.371 390.371ZM227.962 398.751C231.95 402.534 235.123 407.472 237.458 413.603L239.605 412.786C237.168 406.389 233.821 401.142 229.542 397.084L227.962 398.751ZM237.459 413.606C239.782 419.66 240.963 427.076 240.963 435.886H243.26C243.26 426.884 242.054 419.172 239.604 412.783L237.459 413.606ZM240.963 435.886V442.662H243.26V435.886H240.963ZM242.111 441.514H164.064V443.81H242.111V441.514ZM165.213 442.662V428.344H162.916V442.662H165.213ZM164.064 429.492H223.382V427.195H164.064V429.492ZM224.531 428.344C224.531 423.156 223.475 418.514 221.33 414.449L219.299 415.52C221.245 419.21 222.234 423.474 222.234 428.344H224.531ZM221.332 414.453C219.192 410.351 216.172 407.105 212.282 404.735L211.088 406.697C214.613 408.844 217.345 411.777 219.296 415.516L221.332 414.453ZM212.288 404.738C208.416 402.352 203.897 401.18 198.773 401.18V403.477C203.536 403.477 207.624 404.562 211.083 406.694L212.288 404.738ZM198.773 401.18C193.207 401.18 188.293 402.552 184.078 405.333L185.343 407.25C189.139 404.746 193.601 403.477 198.773 403.477V401.18ZM184.081 405.331C179.952 408.039 176.749 411.598 174.485 415.993L176.527 417.044C178.61 413.001 181.543 409.742 185.34 407.251L184.081 405.331ZM174.483 415.997C172.266 420.342 171.162 425.06 171.162 430.134H173.458C173.458 425.406 174.485 421.048 176.529 417.04L174.483 415.997ZM171.162 430.134V441.32H173.458V430.134H171.162ZM171.162 441.32C171.162 448.013 172.335 453.781 174.735 458.58L176.789 457.553C174.586 453.148 173.458 447.751 173.458 441.32H171.162ZM174.738 458.588C177.175 463.373 180.584 467.059 184.964 469.606L186.119 467.621C182.147 465.311 179.036 461.965 176.785 457.546L174.738 458.588ZM184.972 469.611C189.348 472.111 194.43 473.342 200.179 473.342V471.045C194.764 471.045 190.088 469.889 186.111 467.617L184.972 469.611ZM200.179 473.342C203.91 473.342 207.34 472.815 210.459 471.745L209.715 469.573C206.868 470.549 203.693 471.045 200.179 471.045V473.342ZM210.473 471.741C213.601 470.623 216.321 468.963 218.617 466.757L217.026 465.101C214.975 467.071 212.539 468.564 209.701 469.578L210.473 471.741ZM218.617 466.757C220.925 464.54 222.677 461.813 223.882 458.598L221.732 457.791C220.636 460.713 219.065 463.142 217.026 465.101L218.617 466.757ZM222.604 459.325L240.693 462.585L241.1 460.324L223.011 457.064L222.604 459.325ZM239.789 461.153C238.389 466.3 235.881 470.8 232.26 474.668L233.937 476.238C237.816 472.095 240.507 467.262 242.005 461.756L239.789 461.153ZM232.26 474.669C228.681 478.494 224.164 481.493 218.679 483.653L219.521 485.79C225.286 483.519 230.1 480.339 233.937 476.238L232.26 474.669ZM218.683 483.651C213.257 485.764 207.031 486.833 199.988 486.833V489.13C207.262 489.13 213.778 488.026 219.516 485.792L218.683 483.651ZM275.014 484.722L274.529 485.762L274.536 485.766L275.014 484.722ZM263.061 474.558L262.1 475.187L262.104 475.193L263.061 474.558ZM261.911 444.58L262.897 445.167L262.897 445.167L261.911 444.58ZM270.54 436.078L271.113 437.073L271.113 437.073L270.54 436.078ZM296.364 428.919L296.231 427.778L296.228 427.779L296.364 428.919ZM310.682 427.257L310.814 428.398L310.828 428.396L310.682 427.257ZM318.672 425.02L319.274 425.998L319.274 425.998L318.672 425.02ZM316.435 406.611L315.628 407.428L315.634 407.434L316.435 406.611ZM287.287 406.291L287.986 407.202L287.988 407.201L287.287 406.291ZM279.68 415.688L279.425 416.807L280.376 417.024L280.744 416.121L279.68 415.688ZM261.719 411.597L260.637 411.21L260.202 412.429L261.464 412.716L261.719 411.597ZM271.051 397.151L271.817 398.006L271.818 398.005L271.051 397.151ZM285.305 389.097L285.645 390.194L285.653 390.191L285.305 389.097ZM314.709 387.946L314.469 389.069L314.482 389.072L314.709 387.946ZM327.109 392.932L326.495 393.902L326.5 393.905L327.109 392.932ZM336.634 403.351L335.626 403.902L335.628 403.906L336.634 403.351ZM340.341 486V487.148H341.489V486H340.341ZM321.676 486H320.528V487.148H321.676V486ZM321.676 472.577H322.825V471.428H321.676V472.577ZM320.909 472.577V471.428H320.199L319.882 472.063L320.909 472.577ZM315.348 479.864L314.55 479.037L314.55 479.037L315.348 479.864ZM305.824 485.808L305.391 484.744L305.824 485.808ZM309.595 469.7L309.041 468.694L309.037 468.697L309.595 469.7ZM318.224 461.518L317.234 460.937L317.232 460.941L318.224 461.518ZM321.229 437.932H322.377V435.159L320.417 437.12L321.229 437.932ZM317.266 439.849L317.584 440.953L317.592 440.95L317.6 440.948L317.266 439.849ZM310.682 441.32L310.858 442.454L310.867 442.453L310.877 442.451L310.682 441.32ZM303.459 442.406L303.604 443.545L303.614 443.544L303.624 443.543L303.459 442.406ZM297.578 443.173L297.722 444.313L297.732 444.311L297.578 443.173ZM287.415 445.538L287.025 444.458L287.02 444.46L287.415 445.538ZM280.128 450.332L279.265 449.575L279.264 449.576L280.128 450.332ZM282.685 469.253L282.029 470.196L282.037 470.201L282.685 469.253ZM291.889 487.025C285.812 487.025 280.353 485.902 275.492 483.677L274.536 485.766C279.732 488.144 285.523 489.322 291.889 489.322V487.025ZM275.499 483.681C270.654 481.422 266.836 478.171 264.018 473.923L262.104 475.193C265.167 479.809 269.318 483.333 274.529 485.762L275.499 483.681ZM264.022 473.93C261.271 469.722 259.863 464.518 259.863 458.259H257.566C257.566 464.868 259.056 470.531 262.1 475.187L264.022 473.93ZM259.863 458.259C259.863 452.859 260.902 448.519 262.897 445.167L260.924 443.992C258.658 447.799 257.566 452.578 257.566 458.259H259.863ZM262.897 445.167C264.927 441.757 267.661 439.063 271.113 437.073L269.966 435.083C266.174 437.269 263.155 440.243 260.924 443.992L262.897 445.167ZM271.113 437.073C274.63 435.046 278.573 433.507 282.951 432.465L282.419 430.231C277.847 431.319 273.694 432.935 269.966 435.083L271.113 437.073ZM282.951 432.465C287.382 431.41 291.898 430.608 296.5 430.059L296.228 427.779C291.54 428.338 286.937 429.155 282.419 430.231L282.951 432.465ZM296.496 430.06C302.377 429.378 307.15 428.824 310.814 428.398L310.549 426.116C306.885 426.543 302.112 427.096 296.231 427.778L296.496 430.06ZM310.828 428.396C314.535 427.922 317.398 427.152 319.274 425.998L318.07 424.042C316.622 424.933 314.158 425.655 310.536 426.118L310.828 428.396ZM319.274 425.998C321.341 424.726 322.313 422.65 322.313 420.034H320.016C320.016 422.02 319.327 423.269 318.07 424.042L319.274 425.998ZM322.313 420.034V419.587H320.016V420.034H322.313ZM322.313 419.587C322.313 413.782 320.667 409.127 317.235 405.788L315.634 407.434C318.509 410.231 320.016 414.226 320.016 419.587H322.313ZM317.241 405.793C313.84 402.438 308.855 400.86 302.5 400.86V403.157C308.503 403.157 312.808 404.647 315.628 407.428L317.241 405.793ZM302.5 400.86C295.906 400.86 290.558 402.323 286.586 405.381L287.988 407.201C291.431 404.549 296.225 403.157 302.5 403.157V400.86ZM286.588 405.38C282.8 408.287 280.116 411.573 278.617 415.254L280.744 416.121C282.057 412.898 284.445 409.92 287.986 407.202L286.588 405.38ZM279.935 414.568L261.974 410.477L261.464 412.716L279.425 416.807L279.935 414.568ZM262.8 411.983C264.877 406.169 267.89 401.525 271.817 398.006L270.285 396.295C266.031 400.106 262.822 405.092 260.637 411.21L262.8 411.983ZM271.818 398.005C275.827 394.41 280.432 391.807 285.645 390.194L284.966 388C279.44 389.71 274.543 392.476 270.284 396.296L271.818 398.005ZM285.653 390.191C290.904 388.524 296.433 387.688 302.244 387.688V385.391C296.209 385.391 290.445 386.26 284.958 388.002L285.653 390.191ZM302.244 387.688C306.074 387.688 310.147 388.146 314.469 389.069L314.949 386.823C310.492 385.871 306.256 385.391 302.244 385.391V387.688ZM314.482 389.072C318.775 389.939 322.778 391.548 326.495 393.902L327.724 391.962C323.771 389.458 319.506 387.743 314.936 386.82L314.482 389.072ZM326.5 393.905C330.191 396.217 333.237 399.535 335.626 403.902L337.641 402.8C335.087 398.132 331.783 394.504 327.719 391.959L326.5 393.905ZM335.628 403.906C337.976 408.156 339.193 413.763 339.193 420.801H341.489C341.489 413.521 340.234 407.495 337.639 402.796L335.628 403.906ZM339.193 420.801V486H341.489V420.801H339.193ZM340.341 484.852H321.676V487.148H340.341V484.852ZM322.825 486V472.577H320.528V486H322.825ZM321.676 471.428H320.909V473.725H321.676V471.428ZM319.882 472.063C318.717 474.394 316.95 476.72 314.55 479.037L316.146 480.69C318.689 478.234 320.63 475.703 321.936 473.09L319.882 472.063ZM314.55 479.037C312.204 481.302 309.162 483.211 305.391 484.744L306.256 486.872C310.241 485.252 313.548 483.198 316.146 480.69L314.55 479.037ZM305.391 484.744C301.685 486.252 297.194 487.025 291.889 487.025V489.322C297.408 489.322 302.207 488.518 306.256 486.872L305.391 484.744ZM296.044 473.981C301.479 473.981 306.198 472.906 310.154 470.704L309.037 468.697C305.493 470.67 301.177 471.684 296.044 471.684V473.981ZM310.149 470.706C314.103 468.529 317.141 465.662 319.217 462.096L317.232 460.941C315.388 464.108 312.673 466.695 309.041 468.694L310.149 470.706ZM319.215 462.1C321.319 458.518 322.377 454.675 322.377 450.588H320.08C320.08 454.257 319.136 457.7 317.234 460.937L319.215 462.1ZM322.377 450.588V437.932H320.08V450.588H322.377ZM320.417 437.12C319.95 437.586 318.871 438.161 316.931 438.751L317.6 440.948C319.581 440.345 321.144 439.641 322.041 438.744L320.417 437.12ZM316.947 438.746C315.079 439.286 312.927 439.767 310.487 440.188L310.877 442.451C313.38 442.02 315.617 441.521 317.584 440.953L316.947 438.746ZM310.506 440.185C308.038 440.568 305.633 440.929 303.294 441.27L303.624 443.543C305.972 443.201 308.383 442.838 310.858 442.454L310.506 440.185ZM303.314 441.267C300.968 441.566 299.005 441.822 297.424 442.035L297.732 444.311C299.305 444.099 301.262 443.844 303.604 443.545L303.314 441.267ZM297.434 442.034C293.655 442.512 290.183 443.318 287.025 444.458L287.805 446.618C290.783 445.543 294.087 444.772 297.722 444.313L297.434 442.034ZM287.02 444.46C283.843 445.623 281.243 447.321 279.265 449.575L280.991 451.09C282.678 449.168 284.936 447.669 287.81 446.617L287.02 444.46ZM279.264 449.576C277.248 451.88 276.295 454.9 276.295 458.514H278.592C278.592 455.31 279.429 452.876 280.992 451.089L279.264 449.576ZM276.295 458.514C276.295 463.571 278.188 467.526 282.029 470.196L283.34 468.31C280.193 466.122 278.592 462.917 278.592 458.514H276.295ZM282.037 470.201C285.769 472.75 290.465 473.981 296.044 473.981V471.684C290.799 471.684 286.589 470.528 283.332 468.305L282.037 470.201ZM386.827 521.795L386.432 522.874L386.435 522.875L386.827 521.795ZM373.148 513.678L373.94 512.846L373.94 512.846L373.148 513.678ZM365.222 502.619L364.784 501.558L363.701 502.004L364.169 503.078L365.222 502.619ZM381.65 495.844L382.628 495.243L382.116 494.409L381.212 494.782L381.65 495.844ZM386.252 501.788L385.406 502.565L385.407 502.566L386.252 501.788ZM394.178 507.222L393.708 508.269L393.713 508.272L394.178 507.222ZM425.115 504.153L424.433 503.23L424.428 503.234L425.115 504.153ZM432.211 468.102H433.359V466.954H432.211V468.102ZM430.996 468.102V466.954H430.318L429.99 467.548L430.996 468.102ZM426.01 475.07L425.135 474.326L425.128 474.334L426.01 475.07ZM417.189 481.717L416.676 480.69L416.676 480.69L417.189 481.717ZM381.586 479.097L381 480.084L381.008 480.089L381.586 479.097ZM366.884 462.925L365.857 463.438L365.86 463.446L366.884 462.925ZM366.82 409.679L365.785 409.182L365.782 409.187L366.82 409.679ZM381.522 392.548L382.139 393.517L382.143 393.514L381.522 392.548ZM417.445 389.608L416.895 390.616L416.904 390.621L417.445 389.608ZM426.202 396.639L425.296 397.344L425.303 397.353L426.202 396.639ZM431.124 403.734L430.123 404.297L430.452 404.883H431.124V403.734ZM432.53 403.734V404.883H433.679V403.734H432.53ZM432.53 387.818V386.67H431.382V387.818H432.53ZM451.259 387.818H452.407V386.67H451.259V387.818ZM445.378 508.947L444.448 508.274L444.448 508.274L445.378 508.947ZM429.462 520.964L429.046 519.894L429.044 519.895L429.462 520.964ZM420.705 464.842L421.347 465.795L421.349 465.793L420.705 464.842ZM429.398 453.72L428.336 453.282L428.334 453.287L429.398 453.72ZM420.833 407.058L420.142 407.976L420.149 407.981L420.833 407.058ZM392.388 407.25L393.087 408.161L393.093 408.156L392.388 407.25ZM383.695 419.267L382.624 418.853L382.621 418.861L383.695 419.267ZM383.759 453.209L384.824 452.779L384.824 452.779L383.759 453.209ZM392.452 464.587L391.787 465.523L391.791 465.526L392.452 464.587ZM406.962 523.715C399.259 523.715 392.687 522.704 387.22 520.716L386.435 522.875C392.217 524.977 399.068 526.012 406.962 526.012V523.715ZM387.222 520.717C381.756 518.714 377.341 516.083 373.94 512.846L372.356 514.509C376.029 518.005 380.733 520.786 386.432 522.874L387.222 520.717ZM373.94 512.846C370.501 509.572 367.954 506.01 366.275 502.16L364.169 503.078C365.985 507.24 368.721 511.05 372.356 514.509L373.94 512.846ZM365.66 503.681L382.087 496.905L381.212 494.782L364.784 501.558L365.66 503.681ZM380.671 496.444C381.869 498.397 383.452 500.437 385.406 502.565L387.098 501.012C385.216 498.963 383.731 497.04 382.628 495.243L380.671 496.444ZM385.407 502.566C387.496 504.837 390.277 506.73 393.708 508.269L394.648 506.174C391.431 504.73 388.928 503.001 387.097 501.011L385.407 502.566ZM393.713 508.272C397.275 509.85 401.774 510.607 407.154 510.607V508.31C401.965 508.31 397.814 507.576 394.643 506.172L393.713 508.272ZM407.154 510.607C414.589 510.607 420.833 508.79 425.803 505.073L424.428 503.234C419.938 506.591 414.208 508.31 407.154 508.31V510.607ZM425.798 505.077C430.907 501.303 433.359 495.32 433.359 487.406H431.062C431.062 494.834 428.784 500.015 424.433 503.23L425.798 505.077ZM433.359 487.406V468.102H431.062V487.406H433.359ZM432.211 466.954H430.996V469.251H432.211V466.954ZM429.99 467.548C428.888 469.548 427.277 471.806 425.135 474.326L426.885 475.813C429.09 473.22 430.803 470.833 432.002 468.656L429.99 467.548ZM425.128 474.334C423.122 476.742 420.32 478.868 416.676 480.69L417.703 482.744C421.559 480.816 424.638 478.511 426.893 475.805L425.128 474.334ZM416.676 480.69C413.139 482.459 408.454 483.381 402.551 483.381V485.678C408.666 485.678 413.74 484.726 417.703 482.744L416.676 480.69ZM402.551 483.381C394.983 483.381 388.196 481.616 382.163 478.104L381.008 480.089C387.418 483.821 394.609 485.678 402.551 485.678V483.381ZM382.171 478.109C376.2 474.567 371.442 469.349 367.907 462.404L365.86 463.446C369.57 470.734 374.613 476.296 381 480.084L382.171 478.109ZM367.911 462.411C364.432 455.452 362.663 446.84 362.663 436.526H360.366C360.366 447.092 362.177 456.079 365.857 463.438L367.911 462.411ZM362.663 436.526C362.663 426.212 364.41 417.44 367.858 410.171L365.782 409.187C362.156 416.833 360.366 425.959 360.366 436.526H362.663ZM367.855 410.176C371.354 402.888 376.119 397.351 382.139 393.517L380.905 391.58C374.481 395.671 369.445 401.556 365.785 409.182L367.855 410.176ZM382.143 393.514C388.167 389.635 395.001 387.688 402.679 387.688V385.391C394.59 385.391 387.319 387.45 380.9 391.583L382.143 393.514ZM402.679 387.688C408.658 387.688 413.37 388.694 416.895 390.616L417.995 388.6C414.02 386.431 408.888 385.391 402.679 385.391V387.688ZM416.904 390.621C420.546 392.566 423.328 394.814 425.296 397.344L427.109 395.934C424.9 393.095 421.844 390.655 417.986 388.595L416.904 390.621ZM425.303 397.353C427.411 400.01 429.012 402.323 430.123 404.297L432.125 403.171C430.934 401.055 429.254 398.638 427.102 395.925L425.303 397.353ZM431.124 404.883H432.53V402.586H431.124V404.883ZM433.679 403.734V387.818H431.382V403.734H433.679ZM432.53 388.967H451.259V386.67H432.53V388.967ZM450.111 387.818V488.173H452.407V387.818H450.111ZM450.111 488.173C450.111 496.433 448.193 503.104 444.448 508.274L446.308 509.621C450.404 503.967 452.407 496.789 452.407 488.173H450.111ZM444.448 508.274C440.667 513.493 435.546 517.368 429.046 519.894L429.878 522.035C436.758 519.362 442.248 515.225 446.308 509.621L444.448 508.274ZM429.044 519.895C422.55 522.434 415.195 523.715 406.962 523.715V526.012C415.433 526.012 423.079 524.694 429.88 522.034L429.044 519.895ZM406.77 469.826C412.449 469.826 417.329 468.503 421.347 465.795L420.063 463.89C416.495 466.295 412.086 467.529 406.77 467.529V469.826ZM421.349 465.793C425.395 463.051 428.427 459.152 430.462 454.153L428.334 453.287C426.449 457.919 423.686 461.435 420.061 463.892L421.349 465.793ZM430.46 454.158C432.534 449.127 433.551 443.154 433.551 436.27H431.254C431.254 442.937 430.268 448.597 428.336 453.282L430.46 454.158ZM433.551 436.27C433.551 429.553 432.554 423.59 430.532 418.403L428.392 419.237C430.29 424.106 431.254 429.777 431.254 436.27H433.551ZM430.532 418.403C428.505 413.202 425.507 409.095 421.517 406.136L420.149 407.981C423.744 410.647 426.499 414.38 428.392 419.237L430.532 418.403ZM421.523 406.141C417.498 403.111 412.556 401.627 406.77 401.627V403.924C412.149 403.924 416.582 405.296 420.142 407.976L421.523 406.141ZM406.77 401.627C400.811 401.627 395.755 403.176 391.683 406.344L393.093 408.156C396.691 405.358 401.224 403.924 406.77 403.924V401.627ZM391.689 406.339C387.666 409.423 384.65 413.61 382.624 418.853L384.766 419.681C386.66 414.782 389.439 410.958 393.087 408.161L391.689 406.339ZM382.621 418.861C380.647 424.08 379.67 429.888 379.67 436.27H381.967C381.967 430.123 382.908 424.596 384.769 419.673L382.621 418.861ZM379.67 436.27C379.67 442.819 380.668 448.617 382.694 453.639L384.824 452.779C382.93 448.085 381.967 442.59 381.967 436.27H379.67ZM382.694 453.639C384.727 458.676 387.753 462.654 391.787 465.523L393.118 463.651C389.481 461.065 386.712 457.457 384.824 452.779L382.694 453.639ZM391.791 465.526C395.898 468.414 400.913 469.826 406.77 469.826V467.529C401.292 467.529 396.762 466.214 393.113 463.647L391.791 465.526ZM539.086 445.283H537.937L537.937 445.291L539.086 445.283ZM539.086 387.818V386.67H537.937V387.818H539.086ZM558.262 387.818H559.41V386.67H558.262V387.818ZM558.262 486V487.148H559.41V486H558.262ZM539.469 486H538.321V487.148H539.469V486ZM539.469 468.997H540.617V467.849H539.469V468.997ZM538.446 468.997V467.849H537.691L537.392 468.543L538.446 468.997ZM527.58 482.101L528.237 483.042L528.239 483.041L527.58 482.101ZM492.36 483.124L491.781 484.115L491.791 484.121L492.36 483.124ZM480.982 470.659L479.953 471.169L479.956 471.176L480.982 470.659ZM476.891 387.818V386.67H475.743V387.818H476.891ZM496.003 387.818H497.152V386.67H496.003V387.818ZM501.564 463.947L502.403 463.163L502.403 463.163L501.564 463.947ZM526.685 467.207L526.171 466.18L526.167 466.183L526.685 467.207ZM535.57 459.089L534.611 458.458L534.606 458.466L535.57 459.089ZM540.234 445.283V387.818H537.937V445.283H540.234ZM539.086 388.967H558.262V386.67H539.086V388.967ZM557.113 387.818V486H559.41V387.818H557.113ZM558.262 484.852H539.469V487.148H558.262V484.852ZM540.617 486V468.997H538.321V486H540.617ZM539.469 467.849H538.446V470.146H539.469V467.849ZM537.392 468.543C535.223 473.576 531.744 477.78 526.921 481.16L528.239 483.041C533.387 479.433 537.153 474.902 539.501 469.452L537.392 468.543ZM526.922 481.159C522.211 484.449 516.297 486.13 509.107 486.13V488.427C516.661 488.427 523.062 486.656 528.237 483.042L526.922 481.159ZM509.107 486.13C502.974 486.13 497.592 484.785 492.929 482.126L491.791 484.121C496.843 487.002 502.627 488.427 509.107 488.427V486.13ZM492.939 482.132C488.335 479.443 484.688 475.463 482.007 470.142L479.956 471.176C482.815 476.85 486.754 481.179 491.781 484.115L492.939 482.132ZM482.011 470.149C479.383 464.853 478.039 458.242 478.039 450.268H475.743C475.743 458.488 477.126 465.471 479.953 471.169L482.011 470.149ZM478.039 450.268V387.818H475.743V450.268H478.039ZM476.891 388.967H496.003V386.67H476.891V388.967ZM494.855 387.818V447.967H497.152V387.818H494.855ZM494.855 447.967C494.855 454.878 496.775 460.509 500.726 464.732L502.403 463.163C498.938 459.459 497.152 454.438 497.152 447.967H494.855ZM500.726 464.732C504.671 468.95 509.802 471.04 516.01 471.04V468.744C510.372 468.744 505.872 466.871 502.403 463.163L500.726 464.732ZM516.01 471.04C519.789 471.04 523.523 470.094 527.204 468.232L526.167 466.183C522.773 467.9 519.391 468.744 516.01 468.744V471.04ZM527.199 468.235C530.976 466.346 534.088 463.494 536.534 459.713L534.606 458.466C532.365 461.929 529.553 464.489 526.171 466.18L527.199 468.235ZM536.529 459.721C539.072 455.861 540.278 451.019 540.234 445.274L537.937 445.291C537.979 450.711 536.841 455.073 534.611 458.458L536.529 459.721ZM601.264 481.781L600.672 482.765L600.68 482.77L601.264 481.781ZM585.156 464.203L584.127 464.712L584.13 464.719L585.156 464.203ZM585.156 410.957L584.127 410.448L584.125 410.453L585.156 410.957ZM601.009 392.996L600.396 392.025L600.393 392.026L601.009 392.996ZM641.023 389.288L641.404 388.205L641.404 388.205L641.023 389.288ZM655.021 397.918L654.231 398.751L654.231 398.751L655.021 397.918ZM664.801 413.195L663.728 413.603L663.729 413.606L664.801 413.195ZM668.381 442.662V443.81H669.529V442.662H668.381ZM590.334 442.662H589.185V443.81H590.334V442.662ZM590.334 428.344V427.195H589.185V428.344H590.334ZM649.652 428.344V429.492H650.8V428.344H649.652ZM646.584 414.984L645.566 415.516L645.568 415.52L646.584 414.984ZM637.955 405.716L637.352 406.694L637.357 406.697L637.955 405.716ZM610.98 406.291L611.61 407.251L611.612 407.25L610.98 406.291ZM601.776 416.518L600.755 415.993L600.753 415.997L601.776 416.518ZM602.031 458.067L601.004 458.58L601.008 458.588L602.031 458.067ZM611.811 468.614L611.234 469.606L611.241 469.611L611.811 468.614ZM636.357 470.659L636.729 471.745L636.736 471.743L636.743 471.741L636.357 470.659ZM644.091 465.929L643.295 465.101L643.295 465.101L644.091 465.929ZM649.077 458.195L649.28 457.064L648.338 456.895L648.001 457.791L649.077 458.195ZM667.166 461.455L668.274 461.756L668.603 460.547L667.37 460.324L667.166 461.455ZM659.368 475.453L658.53 474.668L658.529 474.669L659.368 475.453ZM645.369 484.722L645.786 485.792L645.79 485.79L645.369 484.722ZM626.257 486.833C616.75 486.833 608.629 484.803 601.849 480.793L600.68 482.77C607.876 487.026 616.418 489.13 626.257 489.13V486.833ZM601.856 480.797C595.104 476.738 589.882 471.044 586.182 463.687L584.13 464.719C588.016 472.447 593.532 478.473 600.672 482.765L601.856 480.797ZM586.186 463.694C582.528 456.296 580.68 447.592 580.68 437.548H578.383C578.383 447.874 580.284 456.94 584.127 464.712L586.186 463.694ZM580.68 437.548C580.68 427.635 582.527 418.95 586.188 411.462L584.125 410.453C580.285 418.306 578.383 427.348 578.383 437.548H580.68ZM586.186 411.466C589.892 403.971 595.038 398.149 601.624 393.965L600.393 392.026C593.428 396.451 588.006 402.602 584.127 410.448L586.186 411.466ZM601.622 393.967C608.233 389.793 615.983 387.688 624.915 387.688V385.391C615.608 385.391 607.42 387.59 600.396 392.025L601.622 393.967ZM624.915 387.688C630.325 387.688 635.565 388.582 640.641 390.371L641.404 388.205C636.082 386.329 630.584 385.391 624.915 385.391V387.688ZM640.641 390.371C645.682 392.148 650.211 394.938 654.231 398.751L655.812 397.084C651.565 393.057 646.761 390.093 641.404 388.205L640.641 390.371ZM654.231 398.751C658.219 402.534 661.392 407.472 663.728 413.603L665.874 412.786C663.437 406.389 660.09 401.142 655.812 397.084L654.231 398.751ZM663.729 413.606C666.051 419.66 667.232 427.076 667.232 435.886H669.529C669.529 426.884 668.324 419.172 665.873 412.783L663.729 413.606ZM667.232 435.886V442.662H669.529V435.886H667.232ZM668.381 441.514H590.334V443.81H668.381V441.514ZM591.482 442.662V428.344H589.185V442.662H591.482ZM590.334 429.492H649.652V427.195H590.334V429.492ZM650.8 428.344C650.8 423.156 649.744 418.514 647.6 414.449L645.568 415.52C647.514 419.21 648.504 423.474 648.504 428.344H650.8ZM647.602 414.453C645.462 410.351 642.441 407.105 638.552 404.735L637.357 406.697C640.882 408.844 643.615 411.777 645.566 415.516L647.602 414.453ZM638.557 404.738C634.686 402.352 630.166 401.18 625.043 401.18V403.477C629.805 403.477 633.894 404.562 637.352 406.694L638.557 404.738ZM625.043 401.18C619.476 401.18 614.563 402.552 610.348 405.333L611.612 407.25C615.409 404.746 619.87 403.477 625.043 403.477V401.18ZM610.35 405.331C606.221 408.039 603.019 411.598 600.755 415.993L602.796 417.044C604.879 413.001 607.813 409.742 611.61 407.251L610.35 405.331ZM600.753 415.997C598.536 420.342 597.431 425.06 597.431 430.134H599.728C599.728 425.406 600.754 421.048 602.798 417.04L600.753 415.997ZM597.431 430.134V441.32H599.728V430.134H597.431ZM597.431 441.32C597.431 448.013 598.604 453.781 601.004 458.58L603.058 457.553C600.856 453.148 599.728 447.751 599.728 441.32H597.431ZM601.008 458.588C603.445 463.373 606.853 467.059 611.234 469.606L612.388 467.621C608.417 465.311 605.305 461.965 603.055 457.546L601.008 458.588ZM611.241 469.611C615.617 472.111 620.699 473.342 626.449 473.342V471.045C621.034 471.045 616.357 469.889 612.381 467.617L611.241 469.611ZM626.449 473.342C630.179 473.342 633.61 472.815 636.729 471.745L635.984 469.573C633.137 470.549 629.963 471.045 626.449 471.045V473.342ZM636.743 471.741C639.871 470.623 642.59 468.963 644.887 466.757L643.295 465.101C641.245 467.071 638.808 468.564 635.97 469.578L636.743 471.741ZM644.887 466.757C647.194 464.54 648.946 461.813 650.152 458.598L648.001 457.791C646.906 460.713 645.334 463.142 643.295 465.101L644.887 466.757ZM648.873 459.325L666.963 462.585L667.37 460.324L649.28 457.064L648.873 459.325ZM666.058 461.153C664.658 466.3 662.151 470.8 658.53 474.668L660.206 476.238C664.085 472.095 666.777 467.262 668.274 461.756L666.058 461.153ZM658.529 474.669C654.951 478.494 650.433 481.493 644.948 483.653L645.79 485.79C651.556 483.519 656.37 480.339 660.207 476.238L658.529 474.669ZM644.953 483.651C639.526 485.764 633.301 486.833 626.257 486.833V489.13C633.532 489.13 640.048 488.026 645.786 485.792L644.953 483.651ZM693.166 483.507L692.354 484.319L692.361 484.326L693.166 483.507ZM693.166 465.482L693.971 466.3L693.978 466.294L693.166 465.482ZM711.191 465.482L710.379 466.294L710.386 466.3L711.191 465.482ZM713.173 480.886L712.192 480.289L712.188 480.296L713.173 480.886ZM702.179 486.066C698.988 486.066 696.272 484.951 693.971 482.688L692.361 484.326C695.088 487.007 698.38 488.363 702.179 488.363V486.066ZM693.978 482.695C691.678 480.395 690.543 477.661 690.543 474.43H688.246C688.246 478.274 689.626 481.591 692.354 484.319L693.978 482.695ZM690.543 474.43C690.543 471.247 691.674 468.558 693.971 466.3L692.361 464.663C689.629 467.348 688.246 470.625 688.246 474.43H690.543ZM693.978 466.294C696.281 463.99 698.995 462.859 702.179 462.859V460.562C698.374 460.562 695.079 461.944 692.354 464.67L693.978 466.294ZM702.179 462.859C705.362 462.859 708.076 463.99 710.379 466.294L712.003 464.67C709.278 461.944 705.983 460.562 702.179 460.562V462.859ZM710.386 466.3C712.683 468.558 713.814 471.247 713.814 474.43H716.111C716.111 470.625 714.728 467.348 711.996 464.663L710.386 466.3ZM713.814 474.43C713.814 476.568 713.273 478.513 712.192 480.289L714.154 481.483C715.459 479.339 716.111 476.98 716.111 474.43H713.814ZM712.188 480.296C711.135 482.052 709.736 483.45 707.98 484.504L709.162 486.473C711.241 485.226 712.91 483.556 714.158 481.477L712.188 480.296ZM707.98 484.504C706.249 485.542 704.325 486.066 702.179 486.066V488.363C704.72 488.363 707.057 487.736 709.162 486.473L707.98 484.504Z"></path>
<path fill="#FAF6EF" d="M344.536 962.536C346.488 960.583 346.488 957.417 344.536 955.464L312.716 923.645C310.763 921.692 307.597 921.692 305.645 923.645C303.692 925.597 303.692 928.763 305.645 930.716L333.929 959L305.645 987.284C303.692 989.237 303.692 992.403 305.645 994.355C307.597 996.308 310.763 996.308 312.716 994.355L344.536 962.536ZM100 964H341V954H100V964Z"></path>
</svg>
